<svg width="56" height="122" viewBox="0 0 56 122" fill="none" xmlns="http://www.w3.org/2000/svg">
<path fill-rule="evenodd" clip-rule="evenodd" d="M52.0372 39.8125C53.6422 44.4555 54.7982 49.1955 55.1782 54.1085C55.6502 60.2035 55.4342 66.2555 54.1492 72.2505C54.1142 72.4155 54.0402 72.5705 53.9852 72.7305C53.5822 72.7315 53.1712 72.6815 52.7772 72.7425C49.4482 73.2655 46.1222 73.8075 42.7962 74.3465C39.3582 74.9035 35.9152 75.4385 32.4832 76.0335C31.2672 76.2435 29.7622 75.9925 29.2712 77.6745C29.2572 77.7205 29.1172 77.7285 29.0362 77.7545L29.2022 67.7035L29.0332 43.4515L30.6352 43.1765C33.2552 42.7475 35.8752 42.3125 38.4972 41.8955C41.6262 41.3985 44.7582 40.9155 47.8892 40.4305C49.2702 40.2155 50.6532 40.0185 52.0372 39.8125Z" fill="#439934"/>
<path fill-rule="evenodd" clip-rule="evenodd" d="M25.7288 107.054C24.0388 105.601 22.2898 104.212 20.6698 102.684C11.9528 94.4624 5.57677 84.7854 2.43677 73.1184C1.57177 69.9074 0.994772 66.6444 0.809772 63.3264C0.679772 61.0044 0.491769 58.6614 0.655769 56.3514C1.09277 50.2074 1.98077 44.1224 3.78277 38.2044L3.88177 38.0664C4.05677 38.2994 4.30877 38.5054 4.39777 38.7684C6.15677 43.9484 7.90277 49.1324 9.63977 54.3194C15.0978 70.6194 20.5488 86.9234 26.0158 103.219C26.1228 103.537 26.3998 103.798 26.5988 104.085L25.7288 107.054Z" fill="#45A538"/>
<path fill-rule="evenodd" clip-rule="evenodd" d="M52.037 39.8114C50.653 40.0174 49.269 40.2144 47.888 40.4274C44.757 40.9124 41.625 41.3954 38.496 41.8924C35.874 42.3094 33.254 42.7444 30.634 43.1734L29.032 43.4484L29.02 42.4034C28.967 41.5444 28.876 40.6864 28.866 39.8274C28.797 34.3494 28.754 28.8714 28.686 23.3934C28.644 19.9644 28.581 16.5364 28.511 13.1084C28.468 10.9784 28.422 8.84736 28.326 6.72036C28.274 5.57736 28.09 4.44036 28.015 3.29736C27.973 2.64036 28.031 1.97836 28.044 1.31836C28.861 2.90136 29.66 4.49636 30.5 6.06736C31.827 8.55136 33.941 10.3814 35.844 12.3784C43.367 20.2704 48.708 29.4464 52.037 39.8114Z" fill="#46A037"/>
<path fill-rule="evenodd" clip-rule="evenodd" d="M29.0355 77.7537C29.1165 77.7277 29.2575 77.7197 29.2705 77.6737C29.7615 75.9917 31.2665 76.2427 32.4825 76.0327C35.9145 75.4387 39.3574 74.9027 42.7954 74.3457C46.1214 73.8067 49.4475 73.2647 52.7765 72.7417C53.1705 72.6797 53.5815 72.7307 53.9845 72.7297C53.3625 74.9497 52.8725 77.2177 52.0835 79.3767C51.1875 81.8257 50.1035 84.2157 48.9525 86.5587C47.2293 90.0534 45.0967 93.3308 42.5994 96.3217C40.6804 98.6297 38.5415 100.763 36.3975 102.87C35.2125 104.035 33.8154 104.984 32.5154 106.031L32.1785 105.801L30.9644 104.763L29.7085 102.01C28.8505 98.7982 28.3825 95.4951 28.3145 92.1717L28.3374 91.6107L28.5085 89.1847C28.5655 88.3567 28.6415 87.5297 28.6765 86.6997C28.8055 83.7177 28.9175 80.7357 29.0355 77.7537Z" fill="#409433"/>
<path fill-rule="evenodd" clip-rule="evenodd" d="M29.0363 77.7536C28.9183 80.7356 28.8063 83.7176 28.6793 86.7006C28.6443 87.5306 28.5683 88.3576 28.5113 89.1856L27.7463 89.4746C26.0473 84.4726 24.3473 79.5236 22.6843 74.5616C19.9343 66.3526 17.2173 58.1306 14.4713 49.9196C12.2534 43.2921 10.0201 36.6697 7.7713 30.0526C7.6663 29.7426 7.3643 29.5006 7.1543 29.2266L12.0503 20.2246C12.2183 20.5166 12.4403 20.7896 12.5463 21.1036C14.8138 27.8057 17.0698 34.5117 19.3143 41.2216C22.2303 49.9516 25.1283 58.6886 28.0423 67.4196C28.1583 67.7686 28.3503 68.0906 28.5333 68.4816L29.2033 67.7016L29.0363 77.7536Z" fill="#4FAA41"/>
<path fill-rule="evenodd" clip-rule="evenodd" d="M7.15481 29.2266C7.36481 29.5006 7.66581 29.7426 7.77181 30.0526C10.0206 36.6697 12.2539 43.292 14.4718 49.9196C17.2178 58.1306 19.9348 66.3526 22.6848 74.5616C24.3468 79.5226 26.0468 84.4726 27.7468 89.4746L28.5118 89.1856L28.3408 91.6116L28.1858 92.1706C27.9198 94.8266 27.6958 97.4886 27.3718 100.139C27.2088 101.467 26.8628 102.771 26.5998 104.086C26.4018 103.799 26.1238 103.538 26.0168 103.22C20.5498 86.9226 15.0988 70.6196 9.64081 54.3196C7.90442 49.1322 6.15708 43.9485 4.39881 38.7686C4.30981 38.5056 4.05881 38.2996 3.88281 38.0666L7.15481 29.2266Z" fill="#4AA73C"/>
<path fill-rule="evenodd" clip-rule="evenodd" d="M29.2018 67.7018L28.5318 68.4818C28.3488 68.0908 28.1568 67.7678 28.0408 67.4198C25.1278 58.6888 22.2288 49.9518 19.3128 41.2218C17.0684 34.5119 14.8124 27.8059 12.5448 21.1038C12.4398 20.7898 12.2178 20.5158 12.0488 20.2248L18.1038 12.2598C18.2948 12.5148 18.5668 12.7418 18.6658 13.0288C20.3468 17.9498 22.0128 22.8768 23.6688 27.8068C25.2158 32.4108 26.7398 37.0218 28.3048 41.6198C28.4098 41.9278 28.7748 42.1458 29.0188 42.4058L29.0308 43.4508C29.0888 51.5328 29.1458 59.6178 29.2018 67.7018Z" fill="#57AE47"/>
<path fill-rule="evenodd" clip-rule="evenodd" d="M29.0205 42.4037C28.7765 42.1437 28.4115 41.9257 28.3065 41.6177C26.7415 37.0197 25.2175 32.4087 23.6705 27.8047C22.0145 22.8747 20.3485 17.9487 18.6675 13.0267C18.5685 12.7397 18.2965 12.5127 18.1055 12.2577C20.0745 10.3297 21.9825 8.33272 24.0305 6.49372C25.8515 4.85972 27.3155 3.10772 27.3825 0.525719C27.3855 0.418719 27.4415 0.311719 27.5275 0.0117188L28.0465 1.31772C28.0335 1.97872 27.9745 2.63972 28.0175 3.29672C28.0925 4.43972 28.2765 5.57672 28.3285 6.71972C28.4245 8.84672 28.4705 10.9777 28.5135 13.1077C28.5825 16.5357 28.6455 19.9637 28.6885 23.3927C28.7555 28.8707 28.7995 34.3487 28.8685 39.8267C28.8765 40.6877 28.9665 41.5447 29.0205 42.4037Z" fill="#60B24F"/>
<path fill-rule="evenodd" clip-rule="evenodd" d="M26.5985 104.085C26.8615 102.77 27.2075 101.465 27.3705 100.138C27.6955 97.4892 27.9185 94.8262 28.1845 92.1702L28.2505 92.1602L28.3165 92.1712C28.3846 95.4946 28.8526 98.7977 29.7105 102.009C29.5345 102.241 29.2855 102.448 29.1925 102.71C28.4655 104.76 27.7805 106.826 27.0495 108.876C26.9495 109.156 26.6715 109.374 26.4755 109.62L25.7285 107.054L26.5985 104.085Z" fill="#A9AA88"/>
<path fill-rule="evenodd" clip-rule="evenodd" d="M26.4766 109.621C26.6726 109.375 26.9516 109.157 27.0506 108.877C27.7816 106.827 28.4676 104.762 29.1936 102.711C29.2866 102.449 29.5346 102.242 29.7116 102.01L30.9666 104.764C30.7186 105.116 30.3766 105.433 30.2386 105.825L27.8346 112.884C27.7356 113.167 27.3976 113.367 27.1716 113.606L26.4766 109.621Z" fill="#B6B598"/>
<path fill-rule="evenodd" clip-rule="evenodd" d="M27.1719 113.606C27.3989 113.368 27.7359 113.167 27.8349 112.884L30.2389 105.825C30.3759 105.434 30.7189 105.116 30.9669 104.764L32.1819 105.801C31.5949 106.381 31.2689 107.051 31.4649 107.898L31.0959 109.106C30.9279 109.313 30.6849 109.493 30.6019 109.73C29.7629 112.133 28.9619 114.549 28.1169 116.952C28.0099 117.257 27.7129 117.496 27.5029 117.764C27.3939 116.377 27.2829 114.993 27.1719 113.606Z" fill="#C2C1A7"/>
<path fill-rule="evenodd" clip-rule="evenodd" d="M27.5028 117.763C27.7118 117.494 28.0088 117.255 28.1168 116.951C28.9618 114.549 29.7628 112.133 30.6018 109.729C30.6848 109.493 30.9268 109.312 31.0958 109.105L30.5868 114.65C30.4508 114.807 30.2538 114.944 30.1888 115.127C29.6138 116.741 29.0718 118.367 28.4948 119.981C28.3758 120.314 28.1478 120.608 27.9698 120.919C27.8118 120.712 27.5288 120.512 27.5158 120.296C27.4648 119.455 27.4998 118.608 27.5028 117.763Z" fill="#CECDB7"/>
<path fill-rule="evenodd" clip-rule="evenodd" d="M27.9688 120.919C28.1468 120.607 28.3748 120.313 28.4938 119.981C29.0718 118.368 29.6128 116.742 30.1878 115.127C30.2528 114.944 30.4507 114.808 30.5857 114.65L30.5977 118.29L29.3797 121.414L27.9688 120.919Z" fill="#DBDAC7"/>
<path fill-rule="evenodd" clip-rule="evenodd" d="M29.3809 121.415L30.5989 118.291L30.8499 121.987L29.3809 121.415Z" fill="#EBE9DC"/>
<path fill-rule="evenodd" clip-rule="evenodd" d="M31.4634 107.898C31.2674 107.051 31.5924 106.38 32.1804 105.801L32.5174 106.031L31.4634 107.898Z" fill="#CECDB7"/>
<path fill-rule="evenodd" clip-rule="evenodd" d="M28.3156 92.1713L28.2496 92.1603L28.1836 92.1703L28.3386 91.6113L28.3156 92.1713Z" fill="#4FAA41"/>
</svg>
