<svg width="316" height="356" viewBox="0 0 316 356" fill="none" xmlns="http://www.w3.org/2000/svg">
<path d="M-52.2934 356H-72C-72 319.921 -65.9003 284.85 -53.9356 252.051C-49.2435 239.436 -43.8477 227.325 -37.5134 215.467L-34.9328 210.673L-29.7715 210.169C-19.6836 209.412 -3.73063 207.141 14.3338 200.077C40.6093 189.984 61.9581 173.837 77.9111 152.139C90.345 135.235 99.0253 115.807 103.717 94.1091L82.6031 14.3813L102.544 0L108.175 4.54146C121.078 14.8859 134.685 24.7257 148.761 33.0517C157.676 38.6024 167.06 43.6485 176.444 48.1899C194.509 47.433 212.808 45.4146 230.637 42.6393C252.925 39.107 275.212 34.3133 297.03 28.0057L305.945 25.4826L308.995 35.0702C314.391 52.7314 316.737 70.8972 315.798 89.3154C315.094 106.724 311.341 123.629 305.006 139.524L286.942 131.198C292.338 117.573 295.388 102.94 296.092 88.0539C296.795 75.691 295.622 63.3281 292.807 51.2176C273.335 56.5159 253.394 60.8051 233.453 63.8327C214.215 66.8604 194.509 68.6265 174.802 69.6357H172.456L170.345 68.6265C159.787 63.3281 149.23 57.7775 138.908 51.4699C128.116 44.91 117.324 37.5932 107.002 29.7718L124.362 93.6045L123.893 96.1276C118.497 122.115 108.409 145.327 93.6295 165.259C75.3305 190.237 50.9318 208.403 21.1373 220.008C3.77666 226.568 -11.7071 229.596 -22.968 230.858C-27.6601 240.193 -31.8829 250.033 -35.6366 259.872C-46.6629 290.149 -52.2934 322.444 -52.2934 356Z" fill="#ECECEC"/>
<path d="M0.257409 356.001V351.712C0.257409 341.115 2.83805 333.041 7.7647 327.995C15.5066 320.426 27.0021 320.931 27.7059 320.931H27.9405H169.406H169.875H170.579C171.283 320.931 180.667 320.174 187.47 326.986C193.335 332.789 196.385 342.377 196.385 356.001H216.092C216.092 336.069 210.696 320.931 200.373 310.839C187.94 298.98 172.69 299.485 168.937 299.737H29.1135C25.5945 299.485 7.99929 299.233 -5.37306 312.1C-14.7572 321.183 -19.4492 334.555 -19.4492 351.459V355.749H0.257409V356.001Z" fill="#ECECEC"/>
<path d="M232.982 205.123C246.12 253.566 252.22 304.279 251.516 356.001H271.223C271.926 302.26 265.358 249.529 251.985 199.068C249.17 188.724 246.12 178.379 242.601 168.287L284.83 186.958L292.337 167.278L234.155 141.543L218.906 160.97L221.018 166.773C225.475 179.388 229.463 192.256 232.982 205.123Z" fill="#ECECEC"/>
</svg>
