<svg width="433" height="67" viewBox="0 0 433 67" fill="none" xmlns="http://www.w3.org/2000/svg">
<path d="M19.7074 11.4573C10.1817 11.4062 5.36776 11.3465 0 11.125L0.33229 26.7938H1.88298C2.76908 17.9923 5.81082 13.5107 12.0647 13.5618C16.0522 13.5618 17.2109 15.7174 17.2109 19.9264V43.732C17.2109 47.9411 16.0522 50.0967 9.96019 51.5366L10.1817 53.0873C15.2172 52.8146 17.9863 52.7039 19.7585 52.7039C21.5307 52.7039 24.8536 52.8146 29.2245 53.0873L29.446 51.5366C23.354 50.0456 22.1953 47.9411 22.1953 43.732V19.9264C22.1953 15.7174 23.354 13.6129 27.3415 13.5618C33.5954 13.5107 36.6456 17.9923 37.5232 26.7938H39.0739L39.3466 11.125C34.0299 11.3465 29.216 11.5084 19.6988 11.4573H19.7074Z" fill="black"/>
<path d="M141.776 13.552C148.03 13.5009 151.08 17.9826 151.958 26.784H153.508L153.781 11.1152C148.464 11.3368 143.65 11.4986 134.133 11.4475C124.616 11.3964 119.794 11.3368 114.426 11.1152L114.758 26.784H116.309C117.195 17.9826 120.237 13.5009 126.49 13.552C130.478 13.552 131.637 15.7077 131.637 19.9167V43.7223C131.637 47.9313 130.478 50.0869 124.386 51.5268L124.607 53.0775C129.643 52.8049 132.412 52.6941 134.184 52.6941C135.956 52.6941 139.279 52.8049 143.65 53.0775L143.872 51.5268C137.78 50.0358 136.621 47.9313 136.621 43.7223V19.9167C136.621 15.7077 137.78 13.6032 141.767 13.552H141.776Z" fill="black"/>
<path d="M156.117 17.2086C165.2 12.8377 172.119 13.6131 176.046 18.8701C171.011 21.6391 166.248 25.1836 162.704 28.6172C152.13 39.242 152.411 49.4834 156.058 52.2013C160.761 55.5754 175.322 52.3717 180.468 36.0895C181.738 45.0017 182.181 48.5973 182.462 52.6955H191.323L192.039 51.2556C188.443 48.4865 185.393 40.7927 184.345 33.0393C182.854 21.8607 184.729 17.984 189.773 14.7718L188.776 13.5534C186.509 14.1584 183.74 15.1552 180.69 16.544C178.142 12.7781 174.266 11.0059 168.898 11.0059C163.53 11.0059 159.21 12.7184 155.334 15.6579L156.109 17.2086H156.117ZM179.259 27.45C180.034 33.3204 177.819 37.4698 174.939 41.2357C170.841 46.5524 164.536 49.9264 160.991 47.5493C157.557 45.2829 159.773 35.5953 164.979 30.1083C167.969 26.9558 172.34 23.6329 177.214 20.6934C178.211 22.5764 178.875 24.7916 179.259 27.45Z" fill="black"/>
<path d="M231.238 11.4567C229.526 11.4567 227.362 11.4056 223.655 11.0733L223.434 12.624C228.972 14.6177 230.131 16.7734 230.131 21.5362V43.7315L202.397 11.0137C201.128 11.2352 199.739 11.4567 198.359 11.4567C196.868 11.4567 195.538 11.2948 193.323 11.0733L193.102 12.624C197.532 14.6177 198.972 16.7734 198.972 23.7515V42.6324C198.972 47.3952 197.532 49.5508 193.102 51.5446L193.323 53.0952C196.424 52.8226 197.472 52.7118 199.577 52.7118C201.511 52.7118 204.059 52.8226 207.663 53.0952L207.884 51.5446C202.346 49.4997 201.187 47.3952 201.187 42.6324V18.9972L230.633 53.7598L232.346 52.763V21.5277C232.346 16.7648 233.505 14.6603 237.935 12.6155L237.714 11.0648C235.004 11.3374 232.951 11.4482 231.238 11.4482V11.4567Z" fill="black"/>
<path d="M357.009 11.7287C352.911 14.0548 347.705 10.6211 340.897 10.6211C329.719 10.6211 320.031 20.249 320.031 32.041C320.031 43.8331 329.225 53.5206 340.897 53.5206C351.301 53.5206 357.393 46.8237 359.497 36.4716L358.168 36.25C355.237 44.5573 351.19 48.647 342.78 48.647C333.314 48.647 325.782 40.5102 325.782 29.9876C325.782 20.1893 331.874 12.879 339.841 12.879C346.819 12.879 352.076 16.8664 354.624 26.0513L356.004 25.8894C355.842 21.4077 356.72 16.4234 357.998 12.3848L357.001 11.7202L357.009 11.7287Z" fill="black"/>
<path d="M419.656 29.7228C411.63 26.1273 407.924 23.1366 407.924 18.8169C407.924 15.2724 411.801 12.8357 415.899 12.8357C420.883 12.8357 426.473 16.0989 429.182 25.403L430.452 25.1304C429.957 20.6487 429.898 16.6016 430.341 12.0688C423.252 12.0688 421.983 10.6289 416.615 10.6289C409.969 10.6289 403.05 14.1137 403.05 21.0321C403.05 26.3999 406.646 30.447 415.286 34.1533C424.641 38.192 428.236 41.1314 428.236 45.3916C428.236 48.8252 424.803 51.3132 419.154 51.3132C413.505 51.3132 407.583 47.8284 404.209 37.0843L402.829 37.5274C403.604 41.2337 403.383 48.0414 402.113 51.2535C407.924 53.0768 412.798 53.5199 417.612 53.5199C428.458 53.5199 432.999 49.2001 432.999 42.9463C432.999 37.2973 429.293 34.0341 419.656 29.7143V29.7228Z" fill="black"/>
<path d="M119.657 52.0305V52.0135C119.614 51.9879 119.563 51.9623 119.504 51.9368C117.45 50.6843 115.772 49.3125 114.587 47.8215C113.343 46.2708 111.878 44.2004 109.688 41.2864L103.596 31.9312C110.242 29.3836 113.446 25.8988 113.446 21.0253C113.446 14.3283 107.797 10.622 97.2827 11.1758C94.8033 11.3036 86.6409 11.3803 82.4064 11.4059C100.793 2.85154 129.242 1.55646 136.075 2.0336C153.099 3.22643 157.061 9.97448 157.061 9.97448C155.587 6.36189 143.139 -5.54092 101.781 3.15827C86.3683 6.40449 74.7296 11.1418 66.1923 15.8109C63.6533 12.5646 59.964 11.014 54.9711 11.014C49.3818 11.014 45.2836 12.7265 41.4069 15.666L42.1822 17.2167C50.9836 12.9821 57.7402 13.5871 61.7277 18.4181C50.6513 25.2854 46.2378 31.3433 46.2378 31.3433L46.3571 31.2666C38.2714 40.903 38.7826 49.7215 42.1311 52.2009C46.8343 55.5749 61.3954 52.3713 66.5416 36.0891C67.8111 45.0013 68.2542 48.5968 68.5354 52.6951H77.3964L78.1121 51.2552C74.5166 48.4861 71.4663 40.7923 70.4184 33.0388C69.6174 27.0406 69.7964 23.1553 70.904 20.3351C71.2959 19.4746 72.5825 17.2082 75.6327 15.7768C75.6583 15.7683 75.6754 15.7597 75.6924 15.7427C81.6651 12.9225 85.61 16.8759 85.61 20.4118V43.7147C85.61 47.9237 84.4512 50.0794 80.0207 51.5193L80.2422 53.07C83.6162 52.7973 86.3853 52.6866 88.1575 52.6866C89.9298 52.6866 93.2526 52.7973 95.9621 53.07L96.1836 51.5193C91.7531 50.0282 90.5943 47.9237 90.5943 43.7147V35.629L98.6204 33.4734C101.926 38.1425 104.482 42.2833 106.485 46.0067C107.558 48.2475 109.007 53.3511 98.3137 50.7184C98.3137 50.7184 119.342 63.4221 157.913 65.5948C196.484 67.7589 233.777 65.4925 233.777 65.4925C233.777 65.4925 145.695 67.6907 119.657 52.0305ZM61.0035 41.2353C56.9052 46.552 50.6002 49.926 47.0558 47.5488C43.6221 45.2824 45.8374 35.5949 51.0433 30.1079C54.0339 26.9554 58.4048 23.6325 63.2784 20.693C64.2752 22.5759 64.9398 24.7912 65.3232 27.4495C66.0986 33.32 63.8833 37.4694 61.0035 41.2353ZM95.9621 31.9397L90.5943 33.3796V13.6723C100.887 12.7862 107.371 14.3369 107.371 21.4257C107.371 25.9074 103.775 29.8949 95.9706 31.9397H95.9621Z" fill="black"/>
<path d="M285.694 12.6151L285.472 11.0645C282.763 11.3371 279.44 11.4479 277.668 11.4479C275.895 11.4479 273.126 11.3371 269.752 11.0645L269.531 12.6151C273.961 14.0551 275.12 16.2107 275.12 20.4197V24.9099C274.472 26.0601 272.649 28.4117 267.52 32.5355C263.26 35.9607 259.443 37.2557 256.18 36.3781C253.249 35.5943 251.272 33.1916 250.156 31.4023V20.4282C250.156 16.2192 251.323 14.1147 255.745 12.6237L255.523 11.073C252.814 11.3456 249.491 11.4564 247.719 11.4564C245.947 11.4564 243.178 11.3456 239.804 11.073L239.582 12.6237C244.013 14.0636 245.171 16.2192 245.171 20.4282V43.7311C245.171 47.9401 244.004 50.0958 239.582 51.5357L239.804 53.0864C243.178 52.8137 245.947 52.703 247.719 52.703C249.491 52.703 252.814 52.8137 255.523 53.0864L255.745 51.5357C251.314 50.0446 250.156 47.9401 250.156 43.7311V36.1566C251.51 37.4773 253.231 38.6701 255.387 39.2495C256.316 39.4966 257.27 39.6244 258.241 39.6244C261.709 39.6244 265.45 38.0311 269.394 34.8615C271.908 32.8422 273.757 31.1382 275.12 29.6897V43.7311C275.12 47.9401 273.961 50.0958 269.531 51.5357L269.752 53.0864C273.126 52.8137 275.895 52.703 277.668 52.703C279.44 52.703 282.763 52.8137 285.472 53.0864L285.694 51.5357C281.263 50.0446 280.104 47.9401 280.104 43.7311V20.4282C280.104 16.2192 281.263 14.1147 285.694 12.6237V12.6151Z" fill="black"/>
<path d="M350.343 2.86826C333.763 5.90147 321.076 11.3118 312.471 16.0235C309.923 12.6325 306.183 11.0136 301.079 11.0136C295.49 11.0136 291.391 12.7262 287.515 15.6657L288.29 17.2164C297.211 12.9222 304.036 13.6038 307.997 18.6137C302.093 22.2433 299.068 24.9613 299.068 24.9613H299.077C297.552 26.1626 296.129 27.3981 294.868 28.6165C284.294 39.2413 284.575 49.4826 288.222 52.2006C292.925 55.5746 307.486 52.371 312.632 36.0888C313.902 45.0009 314.345 48.5965 314.626 52.6947H323.487L324.203 51.2548C320.607 48.4857 317.557 40.7919 316.509 33.0385C315.683 26.8613 315.896 22.925 317.089 20.0877C318.009 18.1621 322.201 12.019 339.744 7.07727C356.367 2.39112 370.528 0.857476 388.199 1.6243C405.87 2.39112 378.741 11.7123 378.741 11.7123C400.851 5.48398 385.608 20.3092 385.608 20.3092L370.332 34.7596V20.42C370.332 16.211 371.49 14.1065 375.921 12.6154L375.699 11.0647C372.99 11.3374 369.667 11.4482 367.895 11.4482C366.123 11.4482 363.354 11.3374 359.98 11.0647L359.758 12.6154C364.189 14.0554 365.347 16.211 365.347 20.42V39.957C365.194 42.709 362.246 56.4096 320.011 62.9787C320.011 62.9787 359.46 60.7634 381.272 42.1893C381.272 42.1893 370.332 48.3238 370.332 39.4628V37.7928L377.915 30.5932C383.393 38.3466 388.488 47.4803 390.704 52.6777H400.008L400.834 51.127C397.179 49.5252 395.134 48.1364 390.542 40.9964L381.63 27.0999L387.108 21.894C388.292 20.7693 391.896 18.0002 393.149 17.0289C396.353 14.8733 398.585 12.9392 399.982 11.2096C409.525 -0.599489 379.653 -2.52507 350.318 2.85122L350.343 2.86826ZM307.12 41.235C303.022 46.5516 296.717 49.9257 293.172 47.5485C289.739 45.2821 291.954 35.5946 297.16 30.1075C300.15 26.955 304.521 23.6321 309.395 20.6926C310.392 22.5756 311.056 24.7909 311.44 27.4492C312.215 33.3197 310 37.469 307.12 41.235Z" fill="black"/>
</svg>
