<svg width="219" height="59" viewBox="0 0 219 59" fill="none" xmlns="http://www.w3.org/2000/svg">
<g clip-path="url(#clip0_3095_10195)">
<path d="M58.2823 29.9697C58.2789 43.6996 47.7386 55.9494 33.5834 58.1171C17.805 60.5322 2.94855 49.6971 0.474431 33.9703C-2.05228 17.9046 9.02339 2.90855 25.1327 0.658043C29.6613 0.0255606 34.1315 0.417213 38.4802 1.90547C39.4409 2.23399 39.5028 2.3509 39.1569 3.26279C38.901 3.93736 38.5994 4.59557 38.3891 5.283C38.1951 5.91784 37.8725 5.97161 37.2917 5.77284C32.1237 3.99581 26.8693 3.80059 21.713 5.57529C11.6296 9.04514 5.62716 16.1206 4.33462 26.7219C2.71715 39.9877 12.1531 52.0913 25.3804 54.1361C39.2013 56.2731 52.2626 46.551 53.9794 32.6691C55.147 23.2275 51.7647 15.5313 44.3833 9.56305C43.4343 8.79499 43.4121 8.78913 44.1133 7.77432C44.4417 7.29971 44.7678 6.8227 45.1009 6.35038C45.6291 5.6045 45.8056 5.57881 46.5594 6.14464C50.0327 8.75052 52.8072 11.9586 54.8559 15.7862C57.1349 20.0417 58.2254 24.5976 58.2812 29.9685L58.2823 29.9697Z" fill="black"/>
<path d="M29.1908 6.53892C40.5517 6.54243 50.2635 14.9845 51.8587 26.2452C53.6211 38.6821 44.8057 50.4806 32.3253 52.018C22.756 53.1965 15.2203 49.5488 9.81041 41.571C9.22373 40.7058 9.27399 40.5982 10.1692 40.1213C10.7805 39.795 11.4022 39.4853 11.9982 39.1345C12.5428 38.8142 12.8701 38.854 13.2546 39.449C16.1377 43.9033 20.1756 46.7302 25.3809 47.8513C35.6432 50.0609 46.0632 42.9809 47.7426 32.6671C49.415 22.3907 42.9486 13.0098 32.753 10.9219C22.4673 8.8163 12.0917 16.0811 10.5479 26.4557C10.2475 28.4724 10.2195 30.4809 10.5794 32.4847C10.6952 33.1289 10.535 33.4434 9.86418 33.5579C9.1548 33.6784 8.46174 33.8993 7.76055 34.0677C6.81975 34.2945 6.78001 34.2757 6.6246 33.3662C6.24009 31.1051 6.09281 28.8219 6.45982 26.5574C8.01182 16.9871 13.3831 10.5758 22.6228 7.55953C24.71 6.87795 26.9691 6.72014 29.1488 6.32031C29.1616 6.39276 29.1756 6.46642 29.1885 6.53892H29.1908Z" fill="black"/>
<path d="M29.1496 46.0474C20.4639 46.0474 13.3127 39.4993 12.5191 30.821C11.7408 22.3088 17.8297 14.4443 26.3401 12.9677C36.5135 11.2024 45.8315 19.0494 45.8479 29.3749C45.8514 31.3915 45.5276 33.3358 44.8147 35.2192C44.484 36.0913 44.456 36.103 43.6647 35.6845C43.0267 35.3466 42.4107 34.9597 41.7505 34.6733C41.0948 34.388 40.9569 34.0489 41.1801 33.3405C42.6024 28.8266 41.8147 24.6774 38.6955 21.1304C35.3612 17.3379 31.0674 15.9408 26.1613 17.1578C21.268 18.3713 18.1148 21.5957 16.869 26.4767C15.5192 31.7645 17.8005 37.1564 22.4519 40.1236C26.9186 42.9727 32.7211 42.6605 36.9798 39.3414C37.8026 38.7008 37.8786 38.6996 38.6628 39.3952C39.1595 39.836 39.6304 40.3095 40.1447 40.7291C40.701 41.1839 40.611 41.5405 40.1143 41.986C37.2136 44.586 33.2961 46.0485 29.1484 46.0485L29.1496 46.0474Z" fill="black"/>
<path d="M136.879 35.9594C137.618 34.7517 138.227 33.7544 138.752 32.8975C140.363 33.4002 141.839 34.0023 143.375 34.2899C144.352 34.4735 145.437 34.2887 146.436 34.0865C147.276 33.9158 147.812 33.2751 147.893 32.3574C147.977 31.4034 147.434 30.7885 146.65 30.4751C145.557 30.0367 144.401 29.7562 143.28 29.3844C142.241 29.0406 141.171 28.7554 140.187 28.2913C136.368 26.4909 136.604 21.4532 139.33 19.4213C140.625 18.4568 142.081 18.0032 143.677 17.9062C146.33 17.7448 148.829 18.3037 151.324 19.4646C150.835 20.5063 150.363 21.5093 149.973 22.3382C148.227 21.9945 146.61 21.5935 144.967 21.3924C144.236 21.3036 143.425 21.5316 142.705 21.777C141.943 22.0366 141.514 22.6866 141.504 23.5167C141.493 24.2977 141.95 24.8494 142.625 25.1242C143.555 25.503 144.532 25.7684 145.488 26.084C146.69 26.4815 147.934 26.7878 149.084 27.3034C151.134 28.2211 152.101 29.893 152.084 32.1353C152.068 34.3694 151.073 36.0143 149.059 36.9811C146.449 38.2333 143.72 38.1047 141.012 37.4196C139.636 37.0724 138.324 36.4796 136.879 35.9605V35.9594Z" fill="black"/>
<path d="M196.323 31.544C196.411 33.5712 197.882 34.8514 199.983 34.6035C201.302 34.4481 202.586 33.9781 204.03 33.6121C204.441 34.2388 204.99 35.0724 205.569 35.9562C204.078 37.0563 202.451 37.7087 200.675 37.8314C199.508 37.9121 198.276 37.8922 197.155 37.6035C194.095 36.8143 192.489 34.6293 192.064 31.5978C191.675 28.8189 192.147 26.2351 194.324 24.2138C196.56 22.1375 200.435 21.6897 203.064 23.2282C205.037 24.3833 205.854 26.2433 206.008 28.4272C206.061 29.1965 205.913 29.9775 205.901 30.7537C205.892 31.4026 205.583 31.5639 204.973 31.5569C202.399 31.5289 199.825 31.5452 197.252 31.5452C196.943 31.5452 196.635 31.5452 196.322 31.5452L196.323 31.544ZM202.055 28.4973C202.226 26.5835 201.258 25.3537 199.589 25.3081C197.851 25.2602 196.29 26.8068 196.371 28.4973H202.055Z" fill="black"/>
<path d="M129.375 31.545H119.852C119.869 33.4998 121.365 34.739 123.473 34.6502C124.869 34.5917 126.126 34.1299 127.407 33.3817C127.957 34.2164 128.505 35.0476 129.101 35.9513C127.748 36.9895 126.256 37.567 124.646 37.7915C121.821 38.1855 119.179 37.7892 117.234 35.4533C115.596 33.4869 115.277 31.1452 115.583 28.676C115.961 25.6294 118.059 23.2725 121.044 22.557C122.301 22.2554 123.567 22.2437 124.823 22.5406C127.745 23.2316 129.427 25.4225 129.554 28.7719C129.588 29.6546 129.444 30.5431 129.375 31.545ZM119.806 28.4949H125.62C125.725 26.6687 124.878 25.4973 123.373 25.3313C121.594 25.1349 120.149 26.3951 119.804 28.4949H119.806Z" fill="black"/>
<path d="M180.732 31.5326C181.03 33.679 182.341 34.7347 184.401 34.6494C185.797 34.5921 187.056 34.1326 188.332 33.3832C188.886 34.2133 189.44 35.0445 190.042 35.9459C188.704 36.9689 187.217 37.5569 185.606 37.7837C182.916 38.1625 180.421 37.8024 178.406 35.7331C175.305 32.5485 175.285 24.1906 181.963 22.5586C183.219 22.2511 184.486 22.2394 185.742 22.534C188.898 23.2729 190.694 25.9174 190.494 29.5322C190.458 30.1834 190.335 30.8299 190.246 31.5314H180.731L180.732 31.5326ZM180.721 28.4812H186.576C186.62 26.6293 185.823 25.5234 184.365 25.3399C182.587 25.1154 181.236 26.2529 180.721 28.4812Z" fill="black"/>
<path d="M91.8926 28.638C91.9533 28.5339 91.9767 28.5106 91.9806 28.486C92.2525 26.087 91.3994 25.285 88.9965 25.7269C88.3484 25.8462 87.7115 26.0555 87.0885 26.2764C86.4922 26.488 85.9222 26.7709 85.2579 27.0585C84.7792 26.0741 84.3033 25.1003 83.7974 24.0621C86.6315 22.6931 89.5097 21.9063 92.6198 22.6592C94.9184 23.2157 96.0942 24.9003 96.1221 27.5788C96.1422 29.4832 96.1527 31.3889 96.1143 33.2933C96.0965 34.1608 96.2999 34.7793 97.3012 34.8482V37.6494C95.4996 37.5956 93.7242 37.6763 92.5144 35.9226C91.5153 36.81 90.4883 37.6202 89.1464 37.7686C88.3785 37.854 87.5794 37.9124 86.8232 37.7944C85.0512 37.5173 83.8325 36.3459 83.5237 34.7886C83.1777 33.0455 83.8782 31.3982 85.429 30.3846C87.176 29.2424 89.1765 28.9419 91.1915 28.7C91.4183 28.6731 91.6474 28.659 91.8914 28.638H91.8926ZM92.0191 30.9411C90.7346 30.9855 89.5822 31.1562 88.5457 31.7817C87.6864 32.3008 87.3281 33.208 87.6307 33.9796C87.9205 34.7208 88.6471 35.0481 89.7343 34.9266C90.7942 34.8085 91.965 34.1082 92.0051 33.4862C92.0586 32.6632 92.0179 31.8331 92.0179 30.9411H92.0191Z" fill="black"/>
<path d="M113.08 37.512H108.979V36.5511C108.979 33.6365 108.984 30.7219 108.978 27.8074C108.973 25.7357 107.666 24.8332 105.765 25.6913C104.343 26.3331 103.798 26.8335 103.853 28.3931C103.949 31.1019 103.88 33.8177 103.88 36.53V37.5039H99.8623V22.7674H103.598C103.679 23.2175 103.765 23.6863 103.869 24.2626C104.086 24.092 104.272 23.947 104.456 23.7997C105.797 22.7265 107.3 22.163 109.036 22.3769C111.449 22.6739 112.85 24.0721 112.984 26.5284C113.107 28.773 113.062 31.0259 113.081 33.2752C113.093 34.6583 113.084 36.0413 113.084 37.5132L113.08 37.512Z" fill="black"/>
<path d="M209.515 19.0128H213.634V22.7107H216.892V25.5657H213.655C213.655 26.453 213.655 27.2223 213.655 27.9927C213.655 29.6084 213.651 31.2252 213.656 32.8409C213.663 34.3876 214.389 34.9172 215.883 34.4543C216.237 34.3444 216.574 34.1772 217.032 33.9901C217.496 34.7442 217.971 35.517 218.49 36.3599C217.443 37.2718 216.234 37.674 214.943 37.8447C214.349 37.923 213.727 37.9066 213.127 37.8376C210.809 37.5711 209.571 36.0676 209.53 33.436C209.495 31.1855 209.522 28.9338 209.522 26.6821C209.522 26.3665 209.522 26.0496 209.522 25.6183H207.236V22.74H209.513V19.0117L209.515 19.0128Z" fill="black"/>
<path d="M68.3252 35.2043C69.2519 34.3626 70.1463 33.5501 70.9454 32.8252C71.7027 33.266 72.363 33.8213 73.1226 34.0574C74.7369 34.559 76.081 33.6518 76.3719 31.9987C76.441 31.6035 76.4561 31.1943 76.4572 30.7922C76.4627 26.9797 76.4605 23.1684 76.4605 19.356C76.4605 19.0158 76.4605 18.6756 76.4605 18.2734H80.6772V19.2438C80.6772 23.2865 80.6951 27.3305 80.6622 31.3732C80.655 32.1705 80.5418 32.9936 80.3195 33.7581C79.8079 35.5247 78.6706 36.7674 76.9214 37.4256C73.8743 38.5725 70.484 37.7319 68.3252 35.2043Z" fill="black"/>
<path d="M159.413 22.7182H162.725V25.5416H159.628C159.538 25.7111 159.465 25.7836 159.465 25.8573C159.463 28.2527 159.421 30.6494 159.488 33.0437C159.525 34.4104 160.239 34.85 161.579 34.4852C161.991 34.373 162.382 34.1894 162.83 34.0211C162.925 34.1462 163.036 34.2725 163.124 34.4127C163.515 35.0487 163.899 35.6894 164.278 36.316C162.669 37.9118 159.173 38.4052 157.273 37.3203C155.786 36.4715 155.4 35.0335 155.371 33.4774C155.328 31.1965 155.359 28.9145 155.359 26.6324C155.359 26.3214 155.359 26.0104 155.359 25.6118H153.087V22.7276H155.326V19.0508H159.414V22.7159L159.413 22.7182Z" fill="black"/>
<path d="M166.16 37.4953V22.781H169.887C169.984 23.4381 170.074 24.053 170.19 24.8386C171.665 22.5203 173.64 21.8282 176.235 22.5787C176.04 23.825 175.851 25.0327 175.655 26.279C175.292 26.2042 175.015 26.1364 174.735 26.0931C172.666 25.7692 171.253 26.4976 170.366 28.3857C170.227 28.6827 170.205 29.0544 170.203 29.3923C170.19 31.7597 170.195 34.1283 170.195 36.4957C170.195 36.809 170.195 37.1223 170.195 37.4965H166.16V37.4953Z" fill="black"/>
</g>
<defs>
<clipPath id="clip0_3095_10195">
<rect width="219" height="58.5115" fill="white"/>
</clipPath>
</defs>
</svg>
