<svg width="1768" height="826" viewBox="0 0 1768 826" fill="none" xmlns="http://www.w3.org/2000/svg">
<mask id="mask0_1560_4324" style="mask-type:alpha" maskUnits="userSpaceOnUse" x="101" y="35" width="1516" height="775">
<g style="mix-blend-mode:soft-light">
<path d="M126.04 725.056H101.102C101.102 679.334 108.821 634.89 123.962 593.325C129.9 577.338 136.728 561.991 144.744 546.963L148.01 540.888L154.541 540.249C167.307 539.29 187.496 536.412 210.356 527.46C243.607 514.67 270.624 494.207 290.812 466.71C306.547 445.288 317.532 420.668 323.47 393.171L296.75 292.135L321.985 273.91L329.111 279.665C345.44 292.774 362.659 305.244 380.472 315.795C391.754 322.83 403.629 329.224 415.505 334.979C438.365 334.02 461.522 331.462 484.086 327.945C512.29 323.469 540.494 317.394 568.105 309.401L579.386 306.203L583.246 318.353C590.074 340.735 593.043 363.756 591.856 387.096C590.965 409.158 586.215 430.58 578.199 450.723L555.339 440.172C562.167 422.906 566.027 404.362 566.917 385.497C567.808 369.83 566.323 354.164 562.761 338.816C538.119 345.531 512.884 350.966 487.648 354.803C463.304 358.64 438.365 360.878 413.427 362.157H410.458L407.786 360.878C394.426 354.164 381.066 347.129 368.003 339.136C354.346 330.823 340.689 321.551 327.626 311.639L349.596 392.532L349.002 395.729C342.174 428.662 329.408 458.077 310.704 483.336C287.547 514.99 256.67 538.011 218.966 552.719C196.996 561.032 177.402 564.869 163.151 566.467C157.213 578.297 151.869 590.767 147.119 603.237C133.165 641.605 126.04 682.531 126.04 725.056Z" fill="white"/>
<path d="M192.544 725.056V719.62C192.544 706.192 195.81 695.96 202.044 689.565C211.842 679.973 226.389 680.613 227.28 680.613H227.577H406.599H407.193H408.084C408.975 680.613 420.85 679.654 429.46 688.286C436.882 695.64 440.741 707.79 440.741 725.056H465.68C465.68 699.797 458.852 680.613 445.789 667.823C430.054 652.796 410.756 653.435 406.006 653.755H229.061C224.608 653.435 202.341 653.116 185.419 669.422C173.543 680.933 167.605 697.879 167.605 719.301V724.736H192.544V725.056Z" fill="white"/>
<path d="M487.055 533.854C503.681 595.243 511.4 659.51 510.509 725.056H535.448C536.339 656.952 528.026 590.128 511.103 526.181C507.541 513.072 503.681 499.962 499.228 487.173L552.667 510.833L562.168 485.894L488.54 453.281L469.242 477.901L471.914 485.255C477.555 501.241 482.602 517.548 487.055 533.854Z" fill="white"/>
</g>
<g style="mix-blend-mode:soft-light">
<path d="M415.398 197.859L381.62 186.711L409.946 165.163L399.918 153.172L373.453 177.133L369.013 141.71L353.591 144.262L361.017 179.069L328.138 165.497L322.745 180.04L356.522 191.189L328.196 212.736L338.224 224.728L364.689 200.766L369.129 236.189L384.551 233.637L377.125 198.83L410.004 212.402L415.398 197.859Z" fill="white"/>
<path d="M692.465 726.554L665.922 750.232L661.424 714.926L646.025 717.616L653.544 752.515L620.647 738.649L615.146 753.281L649.003 764.254L620.809 785.941L630.707 797.884L657.251 774.206L661.749 809.511L677.148 806.822L669.628 771.922L702.526 785.789L708.027 771.157L674.17 760.184L702.363 738.496L692.465 726.554Z" fill="white"/>
<path d="M1528.67 200.001L1557.3 178.889L1523.67 167.232L1529.47 152.715L1562.08 167.245L1555.27 132.2L1570.72 129.824L1574.5 165.213L1601.52 142.078L1611.17 154.219L1582.55 175.33L1616.17 186.987L1610.38 201.505L1577.77 186.974L1584.58 222.019L1569.13 224.396L1565.35 189.006L1538.33 212.141L1528.67 200.001Z" fill="white"/>
<path d="M789.851 146.574L756.073 135.425L784.399 113.878L774.371 101.887L747.907 125.848L743.467 90.4249L728.044 92.977L735.47 127.784L702.591 114.212L697.198 128.755L730.975 139.904L702.649 161.451L712.677 173.442L739.142 149.481L743.582 184.904L759.004 182.352L751.578 147.545L784.457 161.117L789.851 146.574Z" fill="white"/>
<path d="M900.493 308.741L873.949 332.419L869.451 297.114L854.052 299.803L861.572 334.703L828.674 320.836L823.173 335.468L857.03 346.441L828.837 368.129L838.734 380.071L865.278 356.393L869.776 391.699L885.175 389.009L877.656 354.11L910.553 367.976L916.054 353.344L882.197 342.371L910.391 320.684L900.493 308.741Z" fill="white"/>
<path d="M1077.03 317.727L1105.66 296.616L1072.03 284.959L1077.83 270.441L1110.44 284.972L1103.63 249.927L1119.08 247.55L1122.86 282.939L1149.88 259.804L1159.53 271.945L1130.9 293.057L1164.53 304.714L1158.73 319.231L1126.12 304.701L1132.93 339.745L1117.48 342.122L1113.7 306.733L1086.68 329.868L1077.03 317.727Z" fill="white"/>
<path d="M1538.47 270.785C1538.28 266.69 1539.6 263.111 1542.4 260.049C1545.2 256.987 1548.65 255.366 1552.75 255.186C1556.84 255.006 1560.42 256.318 1563.48 259.122C1566.55 261.925 1568.17 265.375 1568.35 269.47C1568.53 273.565 1567.22 277.144 1564.41 280.206C1561.61 283.268 1558.16 284.889 1554.06 285.069C1551.35 285.189 1548.83 284.606 1546.5 283.323C1544.17 282.094 1542.27 280.376 1540.79 278.168C1539.36 276.013 1538.59 273.552 1538.47 270.785Z" fill="white"/>
<path d="M981.988 319.994C978.017 318.977 974.245 319.525 970.672 321.64C967.099 323.755 964.804 326.797 963.786 330.768C962.768 334.739 963.317 338.511 965.431 342.083C967.546 345.656 970.589 347.952 974.56 348.97C978.53 349.988 982.302 349.439 985.875 347.324C989.448 345.209 991.743 342.167 992.761 338.196C993.435 335.567 993.384 332.98 992.606 330.436C991.882 327.906 990.592 325.689 988.736 323.783C986.92 321.945 984.671 320.682 981.988 319.994Z" fill="white"/>
<path d="M1071.29 399.797C1071.11 395.702 1072.42 392.123 1075.23 389.061C1078.03 385.999 1081.48 384.378 1085.58 384.198C1089.67 384.017 1093.25 385.329 1096.31 388.133C1099.38 390.937 1101 394.387 1101.18 398.482C1101.36 402.577 1100.04 406.155 1097.24 409.218C1094.44 412.28 1090.99 413.901 1086.89 414.081C1084.18 414.2 1081.66 413.618 1079.33 412.334C1077 411.106 1075.1 409.388 1073.61 407.18C1072.19 405.025 1071.41 402.564 1071.29 399.797Z" fill="white"/>
<path d="M662.115 100.67L652.366 89.328C649.405 85.8835 645.654 82.7525 641.114 79.935C636.496 77.1117 631.458 74.9048 626 73.3143C620.464 71.7179 614.86 71.0199 609.189 71.2201L606.757 84.706C612.653 86.2118 618.357 88.1744 623.87 90.5939C629.305 93.0076 634.027 96.5457 638.035 101.208L648.001 112.802L662.115 100.67ZM629.854 128.401L620.105 117.059C617.144 113.615 613.393 110.484 608.853 107.666C604.235 104.843 599.197 102.636 593.739 101.046C588.203 99.4493 582.599 98.7513 576.928 98.9515L574.496 112.437C580.392 113.943 586.096 115.906 591.609 118.325C597.044 120.739 601.766 124.277 605.774 128.94L615.74 140.534L629.854 128.401Z" fill="white"/>
<path d="M796.87 396.412L782.173 399.184C777.71 400.026 773.123 401.709 768.413 404.232C763.659 406.82 759.228 410.079 755.122 414.011C750.972 418.007 747.565 422.51 744.903 427.522L755.366 436.372C759.618 432.018 764.17 428.059 769.022 424.495C773.83 420.995 779.255 418.675 785.297 417.535L800.32 414.701L796.87 396.412ZM804.756 438.216L790.059 440.989C785.595 441.831 781.009 443.513 776.298 446.036C771.544 448.624 767.114 451.884 763.008 455.815C758.857 459.811 755.451 464.315 752.789 469.327L763.252 478.176C767.504 473.823 772.056 469.864 776.908 466.299C781.715 462.799 787.14 460.48 793.182 459.34L808.206 456.506L804.756 438.216Z" fill="white"/>
<path d="M1184.12 234.332L1189.86 220.519C1191.6 216.324 1194.19 212.18 1197.63 208.089C1201.14 203.968 1205.24 200.303 1209.93 197.092C1214.69 193.851 1219.8 191.443 1225.25 189.868L1231.76 201.926C1226.63 205.192 1221.82 208.834 1217.33 212.85C1212.92 216.835 1209.53 221.668 1207.18 227.347L1201.31 241.467L1184.12 234.332ZM1223.42 250.64L1229.15 236.827C1230.89 232.632 1233.48 228.489 1236.92 224.398C1240.43 220.277 1244.53 216.611 1249.22 213.4C1253.98 210.159 1259.09 207.751 1264.54 206.176L1271.05 218.234C1265.92 221.501 1261.11 225.142 1256.62 229.158C1252.21 233.143 1248.82 237.976 1246.47 243.655L1240.61 257.775L1223.42 250.64Z" fill="white"/>
<path d="M720.016 235.95L708.317 222.34L630.689 289.068L642.388 302.678L720.016 235.95ZM752.08 273.251L740.381 259.641L662.753 326.37L674.452 339.98L752.08 273.251Z" fill="white"/>
<path d="M942.975 413.909L925.339 417.236L944.314 517.828L961.95 514.501L942.975 413.909ZM991.312 404.792L973.675 408.118L992.65 508.71L1010.29 505.384L991.312 404.792Z" fill="white"/>
<path d="M1171.22 380.916L1178.1 364.34L1272.65 403.581L1265.77 420.157L1171.22 380.916ZM1152.37 426.347L1159.25 409.771L1253.79 449.012L1246.91 465.588L1152.37 426.347Z" fill="white"/>
<path d="M251.441 105.133L463.143 84.4685L458.365 35.5122L442.156 37.0943L445.127 67.5266L265.841 85.027L262.87 54.5947L246.662 56.1768L251.441 105.133Z" fill="white"/>
<path d="M627.693 695.955L715.648 502.283L670.861 481.943L664.127 496.771L691.968 509.415L617.481 673.431L589.64 660.787L582.906 675.615L627.693 695.955Z" fill="white"/>
<path d="M1512.04 130.322L1304.42 176.601L1293.72 128.59L1309.62 125.047L1316.27 154.892L1492.09 115.699L1485.44 85.8548L1501.33 82.3116L1512.04 130.322Z" fill="white"/>
<path d="M548.032 221.29L494.977 125.299L478.687 134.302L531.743 230.294L548.032 221.29ZM565.857 159.413L556.854 143.124L460.862 196.179L469.866 212.469L565.857 159.413Z" fill="white"/>
<path d="M844.286 555.521L734.627 553.472L734.28 572.081L843.938 574.13L844.286 555.521ZM799.612 509.145L781.003 508.798L778.954 618.457L797.563 618.804L799.612 509.145Z" fill="white"/>
<path d="M1330.09 313.434L1350.62 205.694L1368.91 209.178L1348.38 316.918L1330.09 313.434ZM1293.89 260.182L1297.37 241.899L1405.11 262.429L1401.63 280.712L1293.89 260.182Z" fill="white"/>
<path d="M592.355 259.644C610.25 248.772 625.301 236.42 637.508 222.587C649.696 208.83 659.478 193.78 666.855 177.437L657.881 162.667C655.265 168.923 651.417 175.604 646.336 182.709C641.331 189.833 635.433 196.981 628.642 204.154C621.804 211.354 614.403 218.216 606.441 224.739C598.459 231.339 590.255 237.198 581.828 242.318C570.561 249.163 558.467 255.02 545.546 259.889C532.624 264.758 520.071 268.366 507.886 270.714C495.701 273.061 485.104 273.861 476.094 273.113L485.067 287.883C502.971 288.867 520.859 287.105 538.732 282.599C556.586 278.168 574.461 270.516 592.355 259.644Z" fill="white"/>
<path d="M899.668 536.315C899.2 515.382 896.027 496.171 890.151 478.683C884.331 461.249 876.189 445.252 865.724 430.693L848.446 431.079C852.556 436.473 856.417 443.146 860.03 451.099C863.697 458.996 866.939 467.677 869.755 477.144C872.572 486.667 874.814 496.507 876.482 506.664C878.206 516.876 879.178 526.911 879.399 536.768C879.694 549.948 878.719 563.351 876.475 576.976C874.231 590.601 871.079 603.276 867.02 615.002C862.96 626.728 858.354 636.306 853.201 643.735L870.479 643.349C880.283 628.336 887.702 611.963 892.735 594.231C897.825 576.554 900.136 557.248 899.668 536.315Z" fill="white"/>
<path d="M1299.91 363.684C1279.52 358.924 1261.37 351.872 1245.47 342.527C1229.6 333.249 1215.62 321.993 1203.52 308.759L1207.45 291.929C1211.88 297.06 1217.62 302.21 1224.66 307.38C1231.64 312.592 1239.47 317.549 1248.15 322.25C1256.89 326.963 1266.06 331.18 1275.66 334.9C1285.3 338.686 1294.92 341.699 1304.52 343.941C1317.36 346.938 1330.68 348.738 1344.47 349.342C1358.27 349.945 1371.32 349.466 1383.63 347.903C1395.94 346.339 1406.26 343.8 1414.59 340.283L1410.66 357.113C1393.95 363.623 1376.41 367.519 1358.02 368.801C1339.67 370.149 1320.3 368.444 1299.91 363.684Z" fill="white"/>
<path d="M752.22 712.863L753.77 637.568L741.763 643.376L741.85 700.516L742.419 699.778L740.542 700.685L741.474 700.698L696.734 665.154L684.726 670.962L744.715 716.493L752.22 712.863Z" fill="white"/>
<path d="M1503 255.665L1428.99 241.709L1437.14 231.151L1493.04 242.978L1492.2 243.384L1493.48 241.734L1493.3 242.649L1467.71 191.559L1475.86 181.001L1508.09 249.066L1503 255.665Z" fill="white"/>
<path d="M228.577 206.659C227.473 202.711 225.112 199.719 221.494 197.682C217.876 195.645 214.093 195.179 210.146 196.282C206.198 197.386 203.206 199.747 201.169 203.365C199.132 206.983 198.665 210.766 199.769 214.714C200.873 218.661 203.234 221.653 206.852 223.69C210.47 225.727 214.253 226.194 218.2 225.09C220.814 224.359 223.028 223.021 224.843 221.076C226.672 219.184 227.948 216.958 228.67 214.398C229.353 211.906 229.322 209.326 228.577 206.659Z" fill="white"/>
</g>
</mask>
<g mask="url(#mask0_1560_4324)">
<g filter="url(#filter0_f_1560_4324)">
<rect x="64" y="-48" width="1080" height="773" fill="url(#paint0_linear_1560_4324)"/>
</g>
</g>
<defs>
<filter id="filter0_f_1560_4324" x="-154.5" y="-266.5" width="1517" height="1210" filterUnits="userSpaceOnUse" color-interpolation-filters="sRGB">
<feFlood flood-opacity="0" result="BackgroundImageFix"/>
<feBlend mode="normal" in="SourceGraphic" in2="BackgroundImageFix" result="shape"/>
<feGaussianBlur stdDeviation="109.25" result="effect1_foregroundBlur_1560_4324"/>
</filter>
<linearGradient id="paint0_linear_1560_4324" x1="232.5" y1="175" x2="784.5" y2="700.5" gradientUnits="userSpaceOnUse">
<stop offset="0.105461" stop-color="#40D2FC"/>
<stop offset="0.407727" stop-color="#1F4CE0"/>
<stop offset="0.708911" stop-color="#FB1A32"/>
</linearGradient>
</defs>
</svg>
