<svg width="6" height="14" viewBox="0 0 6 14" fill="none" xmlns="http://www.w3.org/2000/svg">
<path d="M-3.0598e-07 7C5.51582e-05 5.46074 1.03071 4.17701 2.4 3.88219L2.4 0.636364L2.40293 0.571733C2.43351 0.250687 2.68923 -1.1755e-07 3 -1.31134e-07C3.31076 -1.44718e-07 3.56649 0.250687 3.59707 0.571733L3.6 0.636364L3.6 3.88219C4.96929 4.17701 5.99994 5.46073 6 7C6 8.5393 4.9693 9.82296 3.6 10.1178L3.6 13.3636C3.6 13.7151 3.33137 14 3 14C2.66863 14 2.4 13.7151 2.4 13.3636L2.4 10.1178C1.0307 9.82296 -2.38695e-07 8.5393 -3.0598e-07 7ZM1.2 7C1.2 8.05436 2.00589 8.90909 3 8.90909C3.99411 8.90909 4.8 8.05436 4.8 7C4.79994 5.9457 3.99407 5.09091 3 5.09091C2.00593 5.09091 1.20006 5.94569 1.2 7Z" fill="#5A5A5A"/>
</svg>
