<svg width="16" height="16" viewBox="0 0 16 16" fill="none" xmlns="http://www.w3.org/2000/svg">
<g clip-path="url(#clip0_1250_3519)">
<path d="M2.07112 15.9614C1.09339 15.9614 0.300781 15.1688 0.300781 14.1911V2.42073C0.300781 1.443 1.09339 0.650391 2.07112 0.650391H3.25533C3.57903 0.650391 3.84145 0.912808 3.84145 1.23652C3.84145 1.56022 3.57903 1.82264 3.25533 1.82264H2.74097C2.13319 1.82264 1.64049 2.31534 1.64049 2.92312V13.6887C1.64049 14.2964 2.1332 14.7891 2.74097 14.7891H3.25533C3.57903 14.7891 3.84145 15.0516 3.84145 15.3753C3.84145 15.699 3.57903 15.9614 3.25533 15.9614H2.07112Z" fill="#5A5A5A"/>
<path d="M14.9457 11.5781C15.2945 11.5781 15.5773 11.8609 15.5773 12.2097V13.7887C15.5773 15.0095 14.5876 15.9992 13.3668 15.9992H7.78783C7.43902 15.9992 7.15625 15.7164 7.15625 15.3676C7.15625 15.0188 7.43902 14.736 7.78783 14.736H12.7352C13.6072 14.736 14.3141 14.0291 14.3141 13.1571V12.2097C14.3141 11.8609 14.5969 11.5781 14.9457 11.5781Z" fill="#5A5A5A"/>
<path d="M14.7136 1.07071C14.7927 0.981907 14.9288 0.974034 15.0176 1.05312C15.1064 1.13221 15.1143 1.26831 15.0352 1.35711L14.9238 1.48217C14.8447 1.57097 14.7086 1.57884 14.6198 1.49975C14.531 1.42066 14.5232 1.28456 14.6023 1.19576L14.7136 1.07071ZM10.3426 2.91215C9.9882 2.59655 10.0841 2.0193 10.5215 1.83529L14.106 0.327332C14.564 0.134633 15.092 0.222395 15.4631 0.552901C15.8342 0.883407 15.9823 1.39779 15.8437 1.87501L14.7547 5.62432C14.6244 6.0731 14.0706 6.2325 13.7216 5.92169C13.5374 5.75764 13.4648 5.50184 13.5352 5.26546L14.7048 1.34232C14.7144 1.31021 14.7541 1.29894 14.7791 1.32122C14.804 1.34345 14.7975 1.38405 14.7669 1.39737L11.0291 3.02209C10.7984 3.12238 10.5304 3.07947 10.3426 2.91215Z" fill="#5A5A5A"/>
<path d="M11.7716 4.74627C12.0192 4.99207 12.0206 5.39199 11.7748 5.63954L5.00897 12.454C4.76317 12.7016 4.36319 12.703 4.11564 12.4572C3.8681 12.2114 3.86669 11.8114 4.11247 11.5639L10.8783 4.74944C11.1241 4.50186 11.5241 4.50044 11.7716 4.74627Z" fill="#5A5A5A"/>
</g>
<defs>
<clipPath id="clip0_1250_3519">
<rect width="16" height="16" fill="white"/>
</clipPath>
</defs>
</svg>
