<svg width="20" height="20" viewBox="0 0 20 20" fill="none" xmlns="http://www.w3.org/2000/svg">
<path d="M1.94926e-06 14.2002V7.7998C1.82648e-06 6.97632 -0.00102053 6.29843 0.0439473 5.74805C0.0898762 5.18599 0.188274 4.6689 0.435549 4.18359C0.819017 3.43109 1.43109 2.81902 2.1836 2.43555C2.6689 2.18827 3.18599 2.08987 3.74805 2.04395C4.29843 1.99898 4.97632 2 5.79981 2H8C8.55229 2 9 2.44772 9 3C9 3.55228 8.55229 4 8 4H5.79981C4.94342 4 4.36117 4.00035 3.91113 4.03711C3.47272 4.07293 3.2482 4.13808 3.0918 4.21777C2.71555 4.40951 2.40951 4.71554 2.21778 5.0918C2.13809 5.2482 2.07293 5.47272 2.03711 5.91113C2.00035 6.36117 2 6.94341 2 7.7998V14.2002C2 15.0566 2.00035 15.6388 2.03711 16.0889C2.07293 16.5273 2.13809 16.7518 2.21778 16.9082C2.40951 17.2845 2.71555 17.5905 3.0918 17.7822C3.2482 17.8619 3.47272 17.9271 3.91113 17.9629C4.36117 17.9997 4.94342 18 5.79981 18H12.2002C13.0566 18 13.6388 17.9997 14.0889 17.9629C14.5273 17.9271 14.7518 17.8619 14.9082 17.7822C15.2845 17.5905 15.5905 17.2845 15.7822 16.9082C15.8619 16.7518 15.9271 16.5273 15.9629 16.0889C15.9997 15.6388 16 15.0566 16 14.2002V12C16 11.4477 16.4477 11 17 11C17.5523 11 18 11.4477 18 12V14.2002C18 15.0237 18.001 15.7016 17.9561 16.252C17.9101 16.814 17.8117 17.3311 17.5645 17.8164C17.181 18.5689 16.5689 19.181 15.8164 19.5645C15.3311 19.8117 14.814 19.9101 14.252 19.9561C13.7016 20.001 13.0237 20 12.2002 20H5.79981C4.97632 20 4.29843 20.001 3.74805 19.9561C3.18599 19.9101 2.6689 19.8117 2.1836 19.5645C1.43109 19.181 0.819017 18.5689 0.435549 17.8164C0.188273 17.3311 0.0898761 16.814 0.0439473 16.252C-0.00102053 15.7016 1.82648e-06 15.0237 1.94926e-06 14.2002ZM20 7C20 7.55228 19.5523 8 19 8C18.4477 8 18 7.55228 18 7V3.41406L11.707 9.70703C11.3165 10.0976 10.6835 10.0976 10.293 9.70703C9.90245 9.31651 9.90245 8.68349 10.293 8.29297L16.5859 2H13C12.4477 2 12 1.55228 12 1C12 0.447715 12.4477 0 13 0H19C19.5523 3.09243e-06 20 0.447718 20 1V7Z" fill="black"/>
</svg>
