<svg width="10" height="11" viewBox="0 0 10 11" fill="none" xmlns="http://www.w3.org/2000/svg">
<path d="M2.65357 3.26364C2.92534 3.81772 3.34266 4.28361 3.85884 4.60918C4.37503 4.93475 4.9697 5.10715 5.57633 5.1071H6.63622C6.77231 4.71366 7.04016 4.38205 7.39244 4.17087C7.74471 3.95969 8.15872 3.88255 8.56129 3.95308C8.96385 4.02361 9.32905 4.23727 9.59233 4.55629C9.8556 4.87532 10 5.27916 10 5.69644C10 6.11372 9.8556 6.51757 9.59233 6.83659C9.32905 7.15562 8.96385 7.36928 8.56129 7.43981C8.15872 7.51034 7.74471 7.4332 7.39244 7.22202C7.04016 7.01084 6.77231 6.67922 6.63622 6.28579H5.57633C4.96089 6.28656 4.3521 6.15574 3.78912 5.90172C3.22614 5.6477 2.72143 5.27611 2.30745 4.81086V7.56506C2.69234 7.70408 3.01673 7.97764 3.22329 8.33738C3.42985 8.69712 3.50528 9.11988 3.43625 9.53095C3.36722 9.94201 3.15816 10.3149 2.84604 10.5837C2.53392 10.8526 2.13883 11 1.73059 11C1.32235 11 0.927256 10.8526 0.615134 10.5837C0.303012 10.3149 0.0939603 9.94201 0.0249265 9.53095C-0.0441073 9.11988 0.0313221 8.69712 0.237883 8.33738C0.444444 7.97764 0.768837 7.70408 1.15373 7.56506V3.43494C0.784434 3.30154 0.470359 3.0441 0.262845 2.7047C0.0553322 2.3653 -0.0333436 1.96402 0.0113144 1.56646C0.0559725 1.16889 0.231322 0.798568 0.508699 0.516018C0.786076 0.233468 1.14907 0.0554089 1.53834 0.0109487C1.92761 -0.0335115 2.32013 0.0582573 2.65174 0.271253C2.98334 0.484249 3.23441 0.805872 3.3639 1.18355C3.49339 1.56122 3.49364 1.9726 3.36461 2.35044C3.23558 2.72827 2.98491 3.05022 2.65357 3.26364ZM1.73059 9.82185C1.88358 9.82185 2.03031 9.75976 2.13849 9.64923C2.24667 9.53871 2.30745 9.38881 2.30745 9.2325C2.30745 9.0762 2.24667 8.9263 2.13849 8.81578C2.03031 8.70525 1.88358 8.64316 1.73059 8.64316C1.5776 8.64316 1.43087 8.70525 1.32269 8.81578C1.2145 8.9263 1.15373 9.0762 1.15373 9.2325C1.15373 9.38881 1.2145 9.53871 1.32269 9.64923C1.43087 9.75976 1.5776 9.82185 1.73059 9.82185ZM8.26835 6.28579C8.42135 6.28579 8.56807 6.2237 8.67626 6.11317C8.78444 6.00265 8.84521 5.85275 8.84521 5.69644C8.84521 5.54014 8.78444 5.39024 8.67626 5.27972C8.56807 5.16919 8.42135 5.1071 8.26835 5.1071C8.11536 5.1071 7.96863 5.16919 7.86045 5.27972C7.75227 5.39024 7.69149 5.54014 7.69149 5.69644C7.69149 5.85275 7.75227 6.00265 7.86045 6.11317C7.96863 6.2237 8.11536 6.28579 8.26835 6.28579ZM2.30745 1.76749C2.30694 1.61136 2.24581 1.46181 2.13747 1.35168C2.02914 1.24156 1.88246 1.17985 1.72963 1.18011C1.5768 1.18037 1.43032 1.24258 1.32235 1.35307C1.21437 1.46357 1.15373 1.61332 1.15373 1.76945C1.15373 1.92559 1.21437 2.07534 1.32235 2.18583C1.43032 2.29633 1.5768 2.35854 1.72963 2.3588C1.88246 2.35906 2.02914 2.29735 2.13747 2.18722C2.24581 2.0771 2.30694 1.92755 2.30745 1.77142V1.76749Z" fill="#AB7DF8"/>
</svg>
