<svg width="11" height="11" viewBox="0 0 11 11" fill="none" xmlns="http://www.w3.org/2000/svg">
<path d="M3.67368 0.316331C4.76296 -0.0670881 5.94579 -0.0986512 7.05356 0.227464L6.77134 1.18547C6.16284 1.00615 5.51974 0.954028 4.88364 1.04192C3.90385 1.17735 2.99619 1.63263 2.30063 2.33586C1.60519 3.03903 1.16069 3.95146 1.03598 4.93254C0.911353 5.91385 1.11345 6.90972 1.61118 7.76457C2.10887 8.61916 2.87423 9.28603 3.78891 9.66203C4.70385 10.0381 5.71768 10.1024 6.6727 9.84465C7.62755 9.58689 8.4707 9.02141 9.07212 8.23625C9.67279 7.45196 9.99899 6.49165 9.99985 5.50383H10.9999C10.9999 6.6588 10.6364 7.78487 9.96079 8.7216C9.28521 9.65813 8.33193 10.3581 7.23618 10.7226C6.14026 11.0871 4.9574 11.0973 3.85532 10.7519C2.75323 10.4064 1.78733 9.72265 1.09555 8.79778C0.404027 7.87304 0.0209048 6.75407 0.000827924 5.59953C-0.0192107 4.44474 0.324955 3.3125 0.984226 2.36418C1.64339 1.41607 2.5845 0.699837 3.67368 0.316331Z" fill="black"/>
</svg>
