<svg width="16" height="16" viewBox="0 0 16 16" fill="none" xmlns="http://www.w3.org/2000/svg">
<g clip-path="url(#clip0_1250_3477)">
<path d="M1.21313 14.887H0.421875C0.421875 13.5062 0.666789 12.1641 1.1472 10.9088C1.33559 10.426 1.55224 9.96257 1.80658 9.50875L1.9102 9.32529L2.11743 9.30598C2.52248 9.27701 3.16302 9.19011 3.88834 8.91974C4.94335 8.53351 5.80055 7.91554 6.44109 7.08514C6.94034 6.4382 7.28887 5.69471 7.47727 4.86431L6.62949 1.81308L7.43017 1.2627L7.65624 1.4365C8.17433 1.83239 8.72067 2.20896 9.28586 2.52761C9.64381 2.74003 10.0206 2.93315 10.3974 3.10695C11.1227 3.07799 11.8575 3.00074 12.5734 2.89453C13.4682 2.75934 14.3631 2.57588 15.2391 2.33449L15.5971 2.23793L15.7195 2.60485C15.9362 3.28076 16.0304 3.97597 15.9927 4.68085C15.9645 5.3471 15.8137 5.99404 15.5594 6.60235L14.8341 6.28371C15.0507 5.7623 15.1732 5.20226 15.2015 4.63257C15.2297 4.15943 15.1826 3.6863 15.0696 3.22282C14.2877 3.42559 13.4871 3.58974 12.6864 3.70561C11.914 3.82148 11.1227 3.88907 10.3315 3.9277H10.2373L10.1525 3.88907C9.72859 3.6863 9.3047 3.47387 8.89023 3.23248C8.45692 2.98143 8.02361 2.70141 7.60914 2.40208L8.3062 4.845L8.28737 4.94155C8.07071 5.9361 7.66566 6.82444 7.07222 7.58724C6.33748 8.54317 5.35782 9.23838 4.16152 9.68255C3.46445 9.9336 2.84275 10.0495 2.3906 10.0978C2.20221 10.455 2.03265 10.8316 1.88194 11.2082C1.43921 12.3669 1.21313 13.6028 1.21313 14.887Z" fill="black"/>
<path d="M3.32251 14.8871V14.723C3.32251 14.3174 3.42613 14.0084 3.62394 13.8153C3.93479 13.5256 4.39636 13.545 4.42462 13.545H4.43404H10.1141H10.133H10.1612C10.1895 13.545 10.5663 13.516 10.8395 13.7767C11.075 13.9988 11.1974 14.3657 11.1974 14.8871H11.9887C11.9887 14.1243 11.772 13.545 11.3576 13.1587C10.8583 12.7049 10.246 12.7242 10.0953 12.7339H4.48114C4.33984 12.7242 3.63336 12.7146 3.09643 13.207C2.71964 13.5546 2.53125 14.0664 2.53125 14.7133V14.8775H3.32251V14.8871Z" fill="black"/>
<path d="M12.6667 9.11295C13.1943 10.9669 13.4392 12.9077 13.4109 14.8871H14.2022C14.2304 12.8304 13.9667 10.8124 13.4297 8.88121C13.3167 8.48532 13.1943 8.08943 13.053 7.7032L14.7485 8.41773L15.0499 7.66458L12.7138 6.67969L12.1016 7.42318L12.1863 7.64527C12.3653 8.12806 12.5255 8.6205 12.6667 9.11295Z" fill="black"/>
<path d="M2.42911 7.38748L2.51523 5.01906L0.51284 6.28939L-0.00390625 5.38509L2.10614 4.287L-0.00390625 3.18892L0.51284 2.28461L2.51523 3.55494L2.42911 1.18652H3.4626L3.37648 3.55494L5.37887 2.28461L5.89562 3.18892L3.78557 4.287L5.89562 5.38509L5.37887 6.28939L3.37648 5.01906L3.4626 7.38748H2.42911Z" fill="black"/>
</g>
<defs>
<clipPath id="clip0_1250_3477">
<rect width="16" height="16" fill="white"/>
</clipPath>
</defs>
</svg>
