<svg width="25" height="25" viewBox="0 0 25 25" fill="none" xmlns="http://www.w3.org/2000/svg">
<path d="M4.56089 10.9118C4.99937 10.4736 5.71023 10.4735 6.1486 10.9118C6.58697 11.3501 6.58675 12.061 6.1486 12.4995L4.56089 14.0883C2.807 15.8422 2.80697 18.6852 4.56089 20.4391C6.31481 22.193 9.15783 22.193 10.9118 20.4391L12.4995 18.8514C12.938 18.413 13.6498 18.413 14.0883 18.8514C14.5265 19.2898 14.5264 20.0007 14.0883 20.4391L12.4995 22.0269C9.86858 24.6577 5.60406 24.6577 2.97317 22.0269C0.342276 19.396 0.342276 15.1304 2.97317 12.4995L4.56089 10.9118ZM15.6354 7.77579C16.0739 7.33731 16.7858 7.33731 17.2242 7.77579C17.6627 8.21428 17.6627 8.92614 17.2242 9.36461L9.36461 17.2242C8.92614 17.6627 8.21428 17.6627 7.77579 17.2242C7.33732 16.7858 7.33732 16.0739 7.77579 15.6354L15.6354 7.77579ZM12.4995 2.97317C15.1304 0.342276 19.396 0.342276 22.0269 2.97317C24.6577 5.60406 24.6577 9.86859 22.0269 12.4995L20.4391 14.0883L20.3536 14.165C19.9127 14.5244 19.2624 14.4991 18.8514 14.0883C18.413 13.6498 18.413 12.938 18.8514 12.4995L20.4391 10.9118C22.193 9.15783 22.193 6.31481 20.4391 4.56089C18.6852 2.80697 15.8422 2.807 14.0883 4.56089L12.4995 6.1486C12.061 6.58675 11.3501 6.58697 10.9118 6.1486C10.4735 5.71023 10.4736 4.99937 10.9118 4.56089L12.4995 2.97317Z" fill="#555555" stroke="#555555" stroke-linecap="round" stroke-linejoin="round"/>
</svg>
