<svg width="164" height="43" viewBox="0 0 164 43" fill="none" xmlns="http://www.w3.org/2000/svg">
<g clip-path="url(#clip0_3095_10017)">
<path d="M95.1001 12L104.5 8.5L95.1001 4.9V0L111.2 6.5V10.5L95.1001 17V12Z" fill="#A100FF"/>
<path d="M6.2 43.0016C2.8 43.0016 0 41.3016 0 37.5016V37.3016C0 32.7016 4 31.1016 8.9 31.1016H11.2V30.2016C11.2 28.3016 10.4 27.2016 8.4 27.2016C6.6 27.2016 5.7 28.2016 5.6 29.6016H0.6C1 25.4016 4.3 23.4016 8.7 23.4016C13.2 23.4016 16.5 25.3016 16.5 30.0016V42.6016H11.4V40.4016C10.4 41.8016 8.7 43.0016 6.2 43.0016ZM11.2 36.4016V34.6016H9.1C6.5 34.6016 5.2 35.3016 5.2 37.0016V37.2016C5.2 38.5016 6 39.4016 7.8 39.4016C9.6 39.3016 11.2 38.3016 11.2 36.4016ZM28.4 43.0016C23.2 43.0016 19.4 39.8016 19.4 33.4016V33.1016C19.4 26.7016 23.4 23.3016 28.4 23.3016C32.7 23.3016 36.2 25.5016 36.6 30.4016H31.6C31.3 28.6016 30.3 27.4016 28.5 27.4016C26.3 27.4016 24.7 29.2016 24.7 32.9016V33.5016C24.7 37.3016 26.1 39.0016 28.5 39.0016C30.3 39.0016 31.6 37.7016 31.9 35.6016H36.7C36.4 40.0016 33.5 43.0016 28.4 43.0016ZM48 43.0016C42.8 43.0016 39 39.8016 39 33.4016V33.1016C39 26.7016 43 23.3016 48 23.3016C52.3 23.3016 55.8 25.5016 56.2 30.4016H51.2C50.9 28.6016 49.9 27.4016 48.1 27.4016C45.9 27.4016 44.3 29.2016 44.3 32.9016V33.5016C44.3 37.3016 45.7 39.0016 48.1 39.0016C49.9 39.0016 51.2 37.7016 51.5 35.6016H56.3C56 40.0016 53.1 43.0016 48 43.0016ZM67.7 43.0016C62.3 43.0016 58.6 39.8016 58.6 33.5016V33.1016C58.6 26.8016 62.5 23.3016 67.6 23.3016C72.3 23.3016 76.2 25.9016 76.2 32.2016V34.5016H63.9C64.1 37.9016 65.6 39.2016 67.8 39.2016C69.8 39.2016 70.9 38.1016 71.3 36.8016H76.2C75.6 40.3016 72.6 43.0016 67.7 43.0016ZM64 31.0016H71C70.9 28.2016 69.6 27.0016 67.5 27.0016C65.9 27.1016 64.4 28.0016 64 31.0016ZM79.4 23.8016H84.7V26.6016C85.6 24.8016 87.5 23.4016 90.4 23.4016C93.8 23.4016 96.1 25.5016 96.1 30.0016V42.6016H90.8V30.8016C90.8 28.6016 89.9 27.6016 88 27.6016C86.2 27.6016 84.7 28.7016 84.7 31.1016V42.6016H79.4V23.8016ZM105.8 18.1016V23.8016H109.4V27.7016H105.8V36.6016C105.8 38.0016 106.4 38.7016 107.7 38.7016C108.5 38.7016 109 38.6016 109.5 38.4016V42.5016C108.9 42.7016 107.8 42.9016 106.5 42.9016C102.4 42.9016 100.5 41.0016 100.5 37.2016V27.7016H98.3V23.8016H100.5V20.3016L105.8 18.1016ZM129.2 42.6016H124V39.8016C123.1 41.6016 121.3 43.0016 118.5 43.0016C115.1 43.0016 112.6 40.9016 112.6 36.5016V23.8016H117.9V35.8016C117.9 38.0016 118.8 39.0016 120.6 39.0016C122.4 39.0016 123.9 37.8016 123.9 35.5016V23.8016H129.2V42.6016ZM133.1 23.8016H138.4V27.3016C139.5 24.8016 141.3 23.6016 144.1 23.6016V28.8016C140.5 28.8016 138.4 29.9016 138.4 33.0016V42.7016H133.1V23.8016ZM154.8 43.0016C149.4 43.0016 145.7 39.8016 145.7 33.5016V33.1016C145.7 26.8016 149.6 23.3016 154.7 23.3016C159.4 23.3016 163.3 25.9016 163.3 32.2016V34.5016H151.1C151.3 37.9016 152.8 39.2016 155 39.2016C157 39.2016 158.1 38.1016 158.5 36.8016H163.4C162.6 40.3016 159.7 43.0016 154.8 43.0016ZM151 31.0016H158.1C158 28.2016 156.7 27.0016 154.6 27.0016C153 27.1016 151.5 28.0016 151 31.0016Z" fill="black"/>
</g>
<defs>
<clipPath id="clip0_3095_10017">
<rect width="163.2" height="43" fill="white"/>
</clipPath>
</defs>
</svg>
