<svg width="328" height="82" viewBox="0 0 328 82" fill="none" xmlns="http://www.w3.org/2000/svg">
<g clip-path="url(#clip0_3095_9895)">
<path d="M308.175 22.0785L277.985 60.0329C274.071 57.5505 270.637 54.1965 268.001 50.056L305.968 19.8554C307.147 18.9174 306.73 17.0334 305.265 16.6817L273.032 8.94343C274.853 7.21799 276.902 5.67563 279.169 4.36638C294.738 -4.62222 314.646 0.71206 323.634 16.2807C331.014 29.0619 328.738 44.7659 319.073 54.9535L311.349 22.7821C310.997 21.317 309.113 20.8993 308.175 22.0785ZM290.838 64.7801C296.865 65.6459 303.171 64.8314 309.016 62.1422V25.7974L290.838 64.7801ZM265.842 19.015C263.266 24.6591 262.324 30.9857 263.222 37.2137L302.249 19.015H265.842Z" fill="#1B1B1B"/>
<path d="M219.191 78.4509L222.833 73.3966C223.992 74.5857 225.3 75.3291 227.203 75.3291C230.548 75.3291 232.243 73.9467 234.398 69.1897L235.022 67.7773L221.762 37.2137H228.259L238.174 60.6864L247.643 37.2137H254.095L239.705 70.8844C236.524 78.3915 233.298 81.082 227.263 81.082C224.2 81.082 221.227 80.0414 219.191 78.4509ZM6.00561 31.4608V44.2601H18.8645C24.1119 44.2601 26.6094 41.4802 26.6094 37.7192C26.6094 33.869 23.7847 31.4608 18.6265 31.4608H6.00561ZM0 25.9158H18.6413C27.2633 25.9158 32.7042 30.3904 32.7042 37.7192C32.7042 41.7477 30.7717 45.0478 27.1147 46.8911C31.0689 48.7047 33.3286 52.1537 33.3286 56.8958C33.3286 64.819 27.6648 69.3234 18.9685 69.3234L0 69.3234V25.9158ZM6.00561 49.909V63.7191H18.9536C24.1268 63.7191 27.2188 60.9541 27.2188 56.7918C27.2188 52.5698 24.5283 49.909 18.5373 49.909H6.00561ZM64.7588 53.2091C64.7588 47.0845 60.1357 42.0451 53.8775 42.0451C47.7378 42.0451 42.9808 46.9508 42.9808 53.2091C42.9808 59.512 47.7378 64.4177 53.8775 64.4177C60.1357 64.4177 64.7588 59.408 64.7588 53.2091ZM36.9752 53.2685C36.9752 43.2342 44.4824 36.5598 53.1934 36.5598C57.5788 36.5598 61.9494 38.6112 64.417 41.9856V37.2137H70.3335V69.3234H64.4021V64.3732C61.89 67.8667 57.5194 69.9776 53.1488 69.9776C44.5864 69.9776 36.9752 63.2583 36.9752 53.2685ZM77.036 23.625H83.116V69.3234H77.036V23.625ZM84.7491 78.4509L88.3912 73.3966C89.5506 74.5857 90.8587 75.3291 92.7616 75.3291C96.1064 75.3291 97.8011 73.9467 99.9566 69.1897L100.581 67.7773L87.3207 37.2137H93.8171L103.732 60.6864L113.202 37.2137H119.653L105.264 70.8844C102.082 78.3915 98.8565 81.082 92.821 81.082C89.759 81.082 86.7856 80.0414 84.7491 78.4509ZM147.707 53.2091C147.707 47.0845 143.084 42.0451 136.825 42.0451C130.686 42.0451 125.929 46.9508 125.929 53.2091C125.929 59.512 130.686 64.4177 136.825 64.4177C143.084 64.4177 147.707 59.408 147.707 53.2091ZM119.923 53.2685C119.923 43.2342 127.43 36.5598 136.141 36.5598C140.527 36.5598 144.897 38.6112 147.365 41.9856V37.2137H153.281V69.3234H147.35V64.3732C144.838 67.8667 140.467 69.9776 136.097 69.9776C127.534 69.9776 119.923 63.2583 119.923 53.2685ZM157.382 62.9906L162.764 59.8244C164.785 62.8866 167.654 64.7002 171.861 64.7002C176.232 64.7002 178.536 62.5448 178.536 59.9135C178.536 56.9254 174.493 56.2565 170.152 55.3499C164.711 54.2348 158.913 52.5252 158.913 46.0142C158.913 41.0193 163.611 36.5302 171.177 36.5003C177.168 36.4767 181.256 38.7003 184.066 42.4316L178.908 45.479C177.228 43.056 174.79 41.5545 171.177 41.5545C167 41.5545 165.068 43.4721 165.068 45.91C165.068 48.6602 168.215 49.2898 173.125 50.3252C178.516 51.4621 184.586 53.2091 184.586 59.854C184.586 64.6408 180.35 70.0073 171.608 69.9776C164.771 69.9543 160.147 67.4949 157.382 62.9906ZM189.447 37.2137H195.363V41.8964C197.563 38.6855 201.235 36.5598 205.829 36.5598C214.035 36.5598 219.148 41.9409 219.148 50.7859V69.3234H213.053V51.2023C213.053 45.5384 210.05 41.8965 204.476 41.8965C199.392 41.8965 195.482 45.7019 195.482 51.5738V69.3234H189.447V37.2137Z" fill="#1B1B1B"/>
</g>
<defs>
<clipPath id="clip0_3095_9895">
<rect width="328" height="81.082" fill="white"/>
</clipPath>
</defs>
</svg>
