<svg width="156" height="50" viewBox="0 0 156 50" fill="none" xmlns="http://www.w3.org/2000/svg">
<path d="M111.908 50C110.643 50 109.519 48.8733 109.519 47.6056V2.39437C109.519 1.12676 110.643 0 111.908 0C113.173 0 114.297 1.12676 114.297 2.39437V47.6056C114.437 49.014 113.313 50 111.908 50ZM153.224 43.662C154.067 42.676 153.926 41.1267 152.943 40.2817C151.959 39.4366 150.413 39.5775 149.57 40.5634C147.041 43.5211 143.387 45.2113 139.311 45.2113C132.706 45.2113 127.226 39.7183 127.226 33.0986C127.226 26.4789 132.706 20.986 139.311 20.986C144.792 20.986 149.289 24.9296 150.272 30H135.517C134.252 30 133.128 31.1267 133.128 32.3944C133.128 33.662 134.252 34.7887 135.517 34.7887H152.943C154.207 34.7887 155.332 33.662 155.332 32.3944V32.1127C155.332 23.2394 148.164 16.1971 139.452 16.1971C130.177 16.1971 122.588 23.8028 122.588 33.0986C122.588 42.3944 130.177 50 139.452 50C144.792 50 149.851 47.7465 153.224 43.662ZM101.508 47.6056V32.1127C101.508 23.2394 94.3412 16.1971 85.6289 16.1971C76.3536 16.1971 68.765 23.8028 68.765 33.0986C68.765 42.3944 76.3536 50 85.6289 50C86.8936 50 88.0173 48.8733 88.0173 47.6056C88.0173 46.338 86.8936 45.2113 85.6289 45.2113C79.0237 45.2113 73.543 39.7183 73.543 33.0986C73.543 26.4789 79.0237 20.986 85.6289 20.986C91.8119 20.986 96.7303 25.9155 96.7303 32.1127V47.6056C96.7303 48.8733 97.8548 50 99.1194 50C100.384 50 101.508 49.014 101.508 47.6056ZM28.4327 40.2817C28.4327 37.8873 27.5895 34.6479 23.3736 32.8169C20.8441 31.6902 17.7524 31.1267 14.8012 30.7042C7.77473 29.5775 5.24518 28.7324 5.24518 25.7747C5.24518 22.5352 9.6016 20.986 13.958 20.986C16.6282 20.986 20.563 21.5493 23.7952 24.2253C24.7789 25.0704 26.3247 24.9296 27.1679 23.9437C28.0111 22.9578 27.8706 21.4084 26.8869 20.5634C22.5304 17.0422 17.4714 16.338 13.958 16.338C4.68306 16.338 0.326614 21.4084 0.326614 26.0564C0.326614 28.4507 1.16979 31.6902 5.38571 33.662C7.91526 34.7887 11.0069 35.3521 13.958 35.7747C20.9846 36.9014 23.3736 37.7465 23.3736 40.5634C23.3736 43.5211 19.8604 45.3521 14.8012 45.3521C9.6016 45.3521 5.52624 43.2394 3.55881 41.9718C2.43457 41.2676 0.888733 41.5493 0.186083 42.676C-0.235508 43.5211 0.0455526 45.0704 1.16979 45.7747C5.24518 48.4507 10.1638 50 15.0823 50C24.2168 50 28.4327 45.2113 28.4327 40.2817ZM63.4248 42.8169C64.1275 41.6902 63.8464 40.1409 62.7221 39.4366C61.5979 38.7324 60.0521 39.014 59.3494 40.1409C57.2415 43.2394 53.8687 45.0704 50.0744 45.0704C43.4694 45.0704 37.9888 39.5775 37.9888 32.9578C37.9888 26.338 43.4694 20.8451 50.0744 20.8451C53.8687 20.8451 57.2415 22.676 59.3494 25.7747C60.0521 26.9014 61.5979 27.1831 62.7221 26.4789C63.8464 25.7747 64.1275 24.2253 63.4248 23.0986C60.4737 18.5916 55.5551 15.9155 50.0744 15.9155C40.7994 15.9155 33.2107 23.5211 33.2107 32.8169C33.2107 42.1127 40.7994 49.7183 50.0744 49.7183C55.4145 50 60.4737 47.324 63.4248 42.8169Z" fill="black"/>
</svg>
