<svg width="145" height="18" viewBox="0 0 145 18" fill="none" xmlns="http://www.w3.org/2000/svg">
<path d="M0 16.883H33.133V12.113H0V16.883ZM0 5.079H6.629V0.313H0V5.079ZM13.254 5.079H19.883V0.313H13.253L13.254 5.079ZM26.508 5.079H33.133V0.313H26.508V5.079ZM15.996 10.981H0V6.215H15.996V10.981ZM33.133 10.981H17.137V6.215H33.133V10.981ZM58.195 16.325C60.387 16.251 60.871 15.836 60.871 14.938V2.336C60.871 1.438 60.387 1.001 58.195 0.926V0.391H65.859V0.926C63.668 1.001 63.184 1.438 63.184 2.336V14.938C63.184 15.836 63.668 16.251 65.859 16.325V16.883H58.195V16.325ZM71.016 16.325C73.18 16.251 73.836 15.836 73.836 14.938V1.071H72.62C70.577 1.071 69.53 1.086 68.339 4.079L67.804 4.028L67.948 0.391H82.007L82.179 4.028L81.644 4.078C80.55 1.278 79.479 1.071 77.362 1.071H76.12V14.938C76.12 15.836 76.78 16.251 78.944 16.325V16.883H71.014V16.325H71.016ZM114.684 16.325C116.797 16.251 117.336 15.836 117.336 14.938V2.336C117.336 1.438 116.796 1.001 114.684 0.926V0.391H128.063L128.133 4.024L127.598 4.047C126.578 1.102 125.75 1.098 122.977 1.098H119.645V7.981H121.129C123.051 7.981 123.902 7.544 124.535 4.938H125.02V11.704H124.535C123.902 9.098 123.051 8.684 121.129 8.684H119.645V16.044H122.977C126.238 16.044 127.332 16.129 128.402 13.016L128.938 13.043L128.816 16.883H114.684V16.325ZM131.418 16.325C133.535 16.251 134.07 15.836 134.07 14.938V2.336C134.07 1.438 133.535 1.001 131.418 0.926V0.391H138.91V0.926C136.746 1.001 136.379 1.415 136.379 2.336V16.043H138.813C142.023 16.043 143.168 15.083 144.336 11.532L144.871 11.555L144.676 16.883H131.418V16.325ZM104.363 16.071H102.563V1.071H104.34C108.766 1.071 110.957 2.993 110.957 8.493C110.957 13.891 109.543 16.071 104.363 16.071ZM104.605 0.391H98.004V0.95C99.774 1.067 100.254 1.5 100.254 2.336V14.938C100.254 15.774 99.774 16.188 98.004 16.298V16.883H104.828C110.957 16.883 113.605 12.77 113.605 8.344C113.605 3.724 110.566 0.391 104.605 0.391ZM85.828 9.926L88.504 3.043H88.602L90.984 9.926H85.828ZM94.949 14.11L89.793 0H88.969L83.906 12.672C82.934 15.082 82.254 15.981 80.621 16.372V16.883H86.098V16.372C83.93 16.008 83.688 15.473 84.711 12.821L85.563 10.606H91.23L92.543 14.403C93.027 15.766 92.687 16.251 90.473 16.372V16.883H97.328V16.297C95.863 16.027 95.461 15.485 94.949 14.11ZM50.61 0.661C47.738 0.661 45.063 3.188 45.063 8.735C45.063 14.012 48.273 16.2 51.07 16.2C51.9225 16.1904 52.7597 15.9716 53.508 15.563C54.262 15.149 54.949 14.583 55.438 13.868C55.781 13.368 56.028 12.86 56.246 12.247L56.786 12.411C56.512 13.29 56.133 14.149 55.574 14.887C55.0379 15.599 54.3494 16.1822 53.559 16.594C53.3331 16.7079 53.1007 16.8084 52.863 16.895C52.5996 16.9911 52.3296 17.068 52.055 17.125C51.5157 17.2388 50.9661 17.2964 50.415 17.297C45.719 17.297 42.41 13.915 42.41 8.833C42.41 3.797 46.133 0.000999987 50.875 0.000999987C52.602 0.000999987 53.988 0.465 55.012 1.024L55.863 1.012L56.039 2.606L56.371 5.376H55.863C54.743 2.36 53.067 0.661 50.61 0.661Z" fill="#08225A"/>
</svg>
