<svg width="471" height="76" viewBox="0 0 471 76" fill="none" xmlns="http://www.w3.org/2000/svg">
<mask id="mask0_3095_9932" style="mask-type:luminance" maskUnits="userSpaceOnUse" x="0" y="0" width="471" height="75">
<path d="M471 0.996094H0V74.0205H471V0.996094Z" fill="white"/>
</mask>
<g mask="url(#mask0_3095_9932)">
<path d="M118.11 31.602C119.936 28.3035 122.481 25.7239 125.745 23.8813C129.009 22.0385 132.715 21.1172 136.846 21.1172C141.917 21.1172 146.25 22.4623 149.864 25.1342C153.479 27.8059 155.876 31.4544 157.093 36.0796H145.66C144.812 34.2922 143.595 32.947 142.046 32.0073C140.478 31.0676 138.708 30.6068 136.717 30.6068C133.508 30.6068 130.926 31.7123 128.935 33.942C126.943 36.1716 125.948 39.1568 125.948 42.8789C125.948 46.6011 126.943 49.5861 128.935 51.8157C130.926 54.0454 133.508 55.151 136.717 55.151C138.708 55.151 140.478 54.6904 142.046 53.7507C143.613 52.8107 144.812 51.4657 145.66 49.6784H157.093C155.876 54.3033 153.46 57.9335 149.864 60.5867C146.25 63.2402 141.917 64.5669 136.846 64.5669C132.715 64.5669 129.009 63.6455 125.745 61.8029C122.481 59.9603 119.936 57.3991 118.11 54.1192C116.285 50.8392 115.381 47.0985 115.381 42.8789C115.381 38.6592 116.285 34.9002 118.11 31.602Z" fill="#171717"/>
<path d="M168.747 62.6307C166.091 61.2119 164.008 59.1849 162.477 56.55C160.965 53.915 160.19 50.8378 160.19 47.3182C160.19 43.7988 160.965 40.7583 162.496 38.1051C164.044 35.4516 166.147 33.4246 168.82 32.0058C171.494 30.587 174.5 29.8867 177.819 29.8867C181.139 29.8867 184.144 30.587 186.818 32.0058C189.492 33.4246 191.594 35.4516 193.143 38.1051C194.692 40.7583 195.448 43.8356 195.448 47.3182C195.448 50.8007 194.674 53.878 193.106 56.5315C191.539 59.1849 189.418 61.2119 186.726 62.6307C184.034 64.0496 181.028 64.7498 177.69 64.7498C174.352 64.7498 171.384 64.0496 168.728 62.6307H168.747ZM182.798 53.5833C184.2 52.1275 184.9 50.0454 184.9 47.3182C184.9 44.5911 184.218 42.5273 182.872 41.0532C181.507 39.5974 179.848 38.8604 177.856 38.8604C175.865 38.8604 174.15 39.5792 172.804 41.0162C171.457 42.4535 170.794 44.5543 170.794 47.2999C170.794 50.0454 171.457 52.1092 172.767 53.5648C174.076 55.0206 175.736 55.7577 177.727 55.7577C179.719 55.7577 181.415 55.0206 182.798 53.5648V53.5833Z" fill="#171717"/>
<path d="M199.689 38.0696C200.999 35.4346 202.806 33.4076 205.074 31.9888C207.342 30.57 209.868 29.8697 212.671 29.8697C214.903 29.8697 216.931 30.3303 218.775 31.2703C220.619 32.21 222.076 33.4629 223.127 35.0293V19.293H233.527V64.2537H223.127V59.3891C222.15 61.0106 220.766 62.3005 218.96 63.277C217.152 64.2537 215.05 64.7328 212.671 64.7328C209.868 64.7328 207.342 64.0141 205.074 62.577C202.806 61.1397 201.017 59.0942 199.689 56.4409C198.38 53.7875 197.716 50.7287 197.716 47.2276C197.716 43.7265 198.38 40.6863 199.689 38.0511V38.0696ZM220.97 41.1654C219.531 39.6728 217.779 38.9172 215.714 38.9172C213.649 38.9172 211.897 39.6542 210.458 41.1283C209.02 42.6024 208.301 44.6479 208.301 47.2276C208.301 49.8073 209.02 51.8711 210.458 53.4004C211.897 54.9116 213.649 55.6854 215.714 55.6854C217.779 55.6854 219.531 54.9298 220.97 53.4372C222.408 51.9449 223.127 49.8994 223.127 47.3014C223.127 44.7032 222.408 42.6577 220.97 41.1654Z" fill="#171717"/>
<path d="M271.662 49.8057H248.132C248.297 51.9063 248.981 53.528 250.16 54.6336C251.358 55.7391 252.833 56.3103 254.569 56.3103C257.168 56.3103 258.975 55.2233 259.99 53.0304H271.054C270.482 55.26 269.467 57.2685 267.974 59.0374C266.499 60.8249 264.636 62.2252 262.404 63.2387C260.173 64.2522 257.685 64.7496 254.918 64.7496C251.599 64.7496 248.631 64.0496 246.047 62.6305C243.448 61.2117 241.419 59.1849 239.963 56.5498C238.507 53.9148 237.768 50.8378 237.768 47.3182C237.768 43.7988 238.488 40.7215 239.926 38.0865C241.365 35.4516 243.374 33.4246 245.974 32.0058C248.574 30.587 251.544 29.8867 254.918 29.8867C258.293 29.8867 261.115 30.5685 263.678 31.9505C266.222 33.3325 268.232 35.2857 269.67 37.8469C271.108 40.3898 271.829 43.375 271.829 46.7838C271.829 47.7605 271.772 48.774 271.643 49.8243L271.662 49.8057ZM261.206 44.0382C261.206 42.2509 260.598 40.8321 259.381 39.7818C258.163 38.7313 256.652 38.1971 254.825 38.1971C253 38.1971 251.617 38.6945 250.419 39.708C249.221 40.7215 248.482 42.1588 248.206 44.0197H261.224L261.206 44.0382Z" fill="#171717"/>
<path d="M298.474 64.2708L289.603 48.1658H287.115V64.2708H276.714V21.6133H294.16C297.532 21.6133 300.392 22.2029 302.77 23.3822C305.148 24.5616 306.92 26.1647 308.1 28.21C309.28 30.2553 309.87 32.5402 309.87 35.0463C309.87 37.8839 309.076 40.4083 307.473 42.638C305.868 44.8676 303.509 46.4523 300.392 47.3735L310.238 64.2708H298.492H298.474ZM287.097 40.8136H293.549C295.449 40.8136 296.887 40.353 297.827 39.4133C298.787 38.4736 299.267 37.1652 299.267 35.4701C299.267 33.7749 298.787 32.577 297.827 31.6373C296.869 30.6976 295.449 30.237 293.549 30.237H287.097V40.8136Z" fill="#171717"/>
<path d="M315.051 38.0673C316.361 35.4323 318.168 33.4055 320.436 31.9865C322.704 30.5677 325.249 30.0703 328.034 30.0703H348.89V64.2514H338.489V59.4606C337.474 61.0453 336.073 62.3167 334.266 63.2932C332.46 64.2699 330.357 64.749 327.979 64.749C325.212 64.749 322.704 64.0303 320.436 62.5932C318.168 61.1559 316.38 59.1104 315.051 56.4571C313.743 53.8037 313.078 50.7449 313.078 47.2438C313.078 43.7427 313.743 40.7024 315.051 38.0673ZM336.331 41.163C334.893 39.6704 333.141 38.9149 331.077 38.9149C329.01 38.9149 327.258 39.6519 325.82 41.1263C324.382 42.6004 323.664 44.6456 323.664 47.2253C323.664 49.805 324.382 51.8687 325.82 53.3981C327.258 54.9092 329.01 55.6831 331.077 55.6831C333.141 55.6831 334.893 54.9275 336.331 53.4351C337.769 51.9425 338.489 49.8973 338.489 47.2991C338.489 44.7009 337.769 42.6556 336.331 41.163Z" fill="#171717"/>
<path d="M369.82 31.3256C371.644 30.3488 373.73 29.8697 376.089 29.8697C378.892 29.8697 381.419 30.57 383.687 31.9888C385.955 33.4076 387.743 35.4346 389.072 38.0696C390.382 40.7045 391.045 43.7633 391.045 47.2461C391.045 50.7287 390.382 53.8057 389.072 56.4592C387.761 59.1127 385.955 61.1579 383.687 62.5953C381.419 64.0326 378.892 64.7511 376.089 64.7511C373.693 64.7511 371.608 64.2722 369.82 63.3323C368.032 62.3741 366.63 61.1212 365.615 59.5365V64.2722H355.214V19.293H365.615V35.1582C366.594 33.5735 367.995 32.302 369.82 31.3256ZM378.303 41.1469C376.864 39.6728 375.095 38.9357 372.973 38.9357C370.853 38.9357 369.157 39.691 367.719 41.1836C366.278 42.6762 365.56 44.7215 365.56 47.3197C365.56 49.9179 366.278 51.9631 367.719 53.4557C369.157 54.9483 370.908 55.7039 372.973 55.7039C375.038 55.7039 376.809 54.9483 378.266 53.4189C379.722 51.9078 380.461 49.8441 380.461 47.2461C380.461 44.6479 379.741 42.6209 378.303 41.1469Z" fill="#171717"/>
<path d="M409.889 31.3255C411.716 30.3488 413.799 29.8697 416.161 29.8697C418.961 29.8697 421.488 30.57 423.756 31.9888C426.024 33.4078 427.814 35.4346 429.141 38.0695C430.451 40.7045 431.114 43.7635 431.114 47.2461C431.114 50.7287 430.451 53.8059 429.141 56.4594C427.833 59.1126 426.024 61.1581 423.756 62.5952C421.488 64.0325 418.961 64.7513 416.161 64.7513C413.762 64.7513 411.679 64.2722 409.889 63.3325C408.101 62.3743 406.699 61.1211 405.687 59.5365V64.2722H395.286V19.293H405.687V35.1581C406.663 33.5734 408.064 32.302 409.889 31.3255ZM418.372 41.1468C416.933 39.6727 415.164 38.9357 413.044 38.9357C410.922 38.9357 409.226 39.6912 407.788 41.1836C406.35 42.6762 405.629 44.7217 405.629 47.3196C405.629 49.9178 406.35 51.9633 407.788 53.4557C409.226 54.9483 410.977 55.7038 413.044 55.7038C415.109 55.7038 416.879 54.9483 418.335 53.4189C419.791 51.908 420.53 49.8442 420.53 47.2461C420.53 44.6479 419.81 42.6209 418.372 41.1468Z" fill="#171717"/>
<path d="M436.13 25.2241C434.968 24.1553 434.396 22.8287 434.396 21.244C434.396 19.6593 434.968 18.2773 436.13 17.2086C437.291 16.1398 438.766 15.6055 440.593 15.6055C442.417 15.6055 443.837 16.1398 444.999 17.2086C446.16 18.2773 446.732 19.6224 446.732 21.244C446.732 22.8656 446.16 24.1553 444.999 25.2241C443.837 26.2929 442.381 26.8273 440.593 26.8273C438.802 26.8273 437.273 26.2929 436.13 25.2241ZM445.774 30.3652V64.2698H435.373V30.3467H445.774V30.3652Z" fill="#171717"/>
<path d="M471.002 55.4458V64.2536H465.709C461.948 64.2536 458.996 63.3324 456.895 61.4898C454.791 59.6471 453.742 56.6434 453.742 52.4606V38.9726H449.61V30.3489H453.742V22.0938H464.14V30.3489H470.945V38.9726H464.14V52.5897C464.14 53.6032 464.381 54.3402 464.879 54.7825C465.359 55.2246 466.171 55.4458 467.314 55.4458H471.02H471.002Z" fill="#171717"/>
<path d="M54.3991 74.0177C50.3792 72.691 46.4881 63.625 41.6567 63.625C48.4243 67.6973 45.5477 73.0963 44.9944 74.0177H54.4174H54.3991Z" fill="#FF570A"/>
<path d="M83.6816 41.1655C82.8334 19.6064 65.389 2.02748 43.8325 1.03244C19.8048 -0.0547237 0 19.072 0 42.8237C0 51.8897 2.87667 60.2737 7.78177 67.11C10.6031 71.0534 15.0103 73.541 19.7863 73.9463C12.7606 65.9859 18.7353 59.334 18.7353 59.334C15.9508 60.6792 14.8075 65.2121 14.8075 65.2121C9.53359 61.9689 10.7506 58.0995 10.7506 58.0995C11.0826 57.2887 11.8386 55.059 15.8955 55.8699C23.751 30.0175 49.6226 43.4872 49.6226 43.4872C49.217 42.6764 47.8707 38.0697 47.8707 38.0697C31.0718 35.6374 25.3922 23.734 25.3922 23.734C40.9743 18.9983 50.4523 31.8601 50.4523 31.8601C46.1189 21.3016 35.7002 25.5029 32.9894 8.18194C51.0795 11.1855 53.6979 25.3555 54.0667 28.4143C54.3248 27.8246 55.7632 27.0323 61.701 27.3825C70.9026 27.9167 78.2235 37.2591 78.2235 37.2591C78.2235 56.2014 55.0624 51.6317 55.0624 65.9491C55.0624 69.3028 58.7136 69.1002 59.9306 70.7217C60.9264 72.0484 60.5025 73.5225 60.2994 74.0016H62.4939C67.6941 74.0016 72.636 71.6061 75.697 67.4049C81.0264 60.0895 84.0504 50.9868 83.6816 41.147V41.1655Z" fill="#FF570A"/>
</g>
</svg>
