<svg width="166" height="34" viewBox="0 0 166 34" fill="none" xmlns="http://www.w3.org/2000/svg">
<mask id="mask0_3095_9636" style="mask-type:luminance" maskUnits="userSpaceOnUse" x="0" y="0" width="166" height="34">
<path d="M165.205 0.898438H0V33.105H165.205V0.898438Z" fill="white"/>
</mask>
<g mask="url(#mask0_3095_9636)">
<path d="M117.339 25.2934H114.656L109.508 13.2812H112.239L116.01 22.2957L119.781 13.2812H122.512L117.339 25.2934Z" fill="black"/>
<path d="M45.2373 23.1881C41.9741 23.1881 39.4117 20.6015 39.4117 17.1944C39.4117 13.7873 41.9741 11.2006 45.2373 11.2006C47.3267 11.2006 49.1032 12.1205 50.0708 13.9704L52.0766 12.2474C50.985 10.5749 49.2763 9.4257 47.2373 8.9744C41.5645 7.71855 36.2061 12.4146 36.8565 18.1878C37.3352 22.4384 40.858 25.6292 45.2373 25.6292C48.1631 25.6292 50.6894 24.3373 52.1156 22.0275L50.0953 20.3708C49.1335 22.2509 47.3455 23.1881 45.2373 23.1881Z" fill="black"/>
<path d="M59.7166 13.0391C56.1635 13.0391 53.2637 15.5767 53.2637 19.2981C53.2637 23.0195 56.1635 25.5817 59.7166 25.5817C63.2696 25.5817 66.1219 23.0195 66.1219 19.2981C66.1219 15.5767 63.2451 13.0391 59.7166 13.0391ZM59.7166 23.4074C57.6141 23.4074 55.728 21.7882 55.728 19.2981C55.728 16.8081 57.6127 15.1889 59.7166 15.1889C61.8204 15.1889 63.6806 16.8081 63.6806 19.2981C63.6806 21.7882 61.7714 23.4074 59.7166 23.4074Z" fill="black"/>
<path d="M82.6796 12.9663C80.7099 12.9663 79.1944 13.8011 78.2268 15.1392C78.2181 15.1521 78.1994 15.1507 78.1922 15.1377C77.4149 13.7535 75.9239 12.9663 74.2195 12.9663C72.5151 12.9663 71.2822 13.5776 70.4127 14.6129C70.3997 14.6287 70.3752 14.6201 70.3752 14.5999V13.3253C70.3752 13.3138 70.3651 13.3037 70.3535 13.3037H67.882C67.8704 13.3037 67.8604 13.3138 67.8604 13.3253V25.2696C67.8604 25.2811 67.8704 25.2912 67.882 25.2912H70.3535C70.3651 25.2912 70.3752 25.2811 70.3752 25.2696V19.345C70.3752 16.6617 71.6326 15.2848 73.5663 15.2848C75.1135 15.2848 76.2729 16.3964 76.2729 18.1613V25.2696C76.2729 25.2811 76.283 25.2912 76.2945 25.2912H78.7661C78.7776 25.2912 78.7877 25.2811 78.7877 25.2696V19.345C78.7877 16.6617 80.0682 15.2848 82.0264 15.2848C83.5737 15.2848 84.733 16.3964 84.733 18.1613V25.2696C84.733 25.2811 84.7431 25.2912 84.7547 25.2912H87.2017C87.2132 25.2912 87.2233 25.2811 87.2233 25.2696V17.6537C87.2233 14.8263 85.1685 12.9648 82.6796 12.9648V12.9663Z" fill="black"/>
<path d="M104.483 12.9663C102.514 12.9663 100.998 13.8011 100.03 15.1392C100.022 15.1521 100.003 15.1507 99.9959 15.1377C99.2187 13.7535 97.7276 12.9663 96.0232 12.9663C94.3188 12.9663 93.0859 13.5776 92.2164 14.6129C92.2034 14.6287 92.1789 14.6201 92.1789 14.5999V13.3253C92.1789 13.3138 92.1688 13.3037 92.1573 13.3037H89.6857C89.6742 13.3037 89.6641 13.3138 89.6641 13.3253V25.2696C89.6641 25.2811 89.6742 25.2912 89.6857 25.2912H92.1573C92.1688 25.2912 92.1789 25.2811 92.1789 25.2696V19.345C92.1789 16.6617 93.4363 15.2848 95.37 15.2848C96.9173 15.2848 98.0766 16.3964 98.0766 18.1613V25.2696C98.0766 25.2811 98.0867 25.2912 98.0982 25.2912H100.57C100.581 25.2912 100.591 25.2811 100.591 25.2696V19.345C100.591 16.6617 101.872 15.2848 103.83 15.2848C105.377 15.2848 106.537 16.3964 106.537 18.1613V25.2696C106.537 25.2811 106.547 25.2912 106.558 25.2912H109.005C109.017 25.2912 109.027 25.2811 109.027 25.2696V17.6537C109.027 14.8263 106.972 12.9648 104.483 12.9648V12.9663Z" fill="black"/>
<path d="M135.023 13.3061H132.551C132.54 13.3061 132.53 13.3162 132.53 13.3278V14.6326C132.53 14.6514 132.507 14.66 132.494 14.6471C131.455 13.5815 129.972 12.9688 128.179 12.9688C125.037 12.9688 122.232 15.5308 122.232 19.3013C122.232 23.0717 125.036 25.634 128.179 25.634C129.972 25.634 131.457 25.0197 132.494 23.9556C132.507 23.9427 132.53 23.9513 132.53 23.9701V25.2749C132.53 25.2865 132.54 25.2966 132.551 25.2966H135.023C135.034 25.2966 135.044 25.2865 135.044 25.2749V13.3307C135.044 13.3191 135.034 13.309 135.023 13.309V13.3061ZM128.59 23.4092C126.391 23.4092 124.674 21.8376 124.674 19.2999C124.674 16.7623 126.39 15.1906 128.59 15.1906C130.571 15.1906 132.53 16.7853 132.53 19.2999C132.53 21.8145 130.571 23.4092 128.59 23.4092Z" fill="black"/>
<path d="M148.873 13.3047H146.403C146.392 13.3047 146.382 13.3148 146.382 13.3263V18.8399C146.382 21.8606 144.98 23.3111 142.829 23.3111C141.088 23.3111 139.952 21.9817 139.952 20.0237V13.3263C139.952 13.3148 139.942 13.3047 139.93 13.3047H137.46C137.449 13.3047 137.438 13.3148 137.438 13.3263V20.5312C137.438 23.5519 139.348 25.6311 142.249 25.6311C143.991 25.6311 145.379 24.9952 146.346 23.8619C146.359 23.8475 146.382 23.8547 146.382 23.8749V25.2706C146.382 25.2821 146.392 25.2922 146.403 25.2922H148.873C148.885 25.2922 148.895 25.2821 148.895 25.2706V13.3263C148.895 13.3148 148.885 13.3047 148.873 13.3047Z" fill="black"/>
<path d="M156.993 22.9099C156.516 23.1219 155.971 23.2617 155.566 23.2617C154.647 23.2617 154.018 22.6821 154.018 21.8603V7.70132C154.018 7.68978 154.008 7.67969 153.997 7.67969H151.527C151.515 7.67969 151.505 7.68978 151.505 7.70132V21.9583C151.505 23.9899 153.157 25.6495 155.189 25.6293C156.233 25.6192 156.872 25.338 157.485 25.0093C157.493 25.0049 157.498 24.9949 157.496 24.9848L157.022 22.9229C157.019 22.9099 157.005 22.9027 156.993 22.9085V22.9099Z" fill="black"/>
<path d="M165.447 22.6337C165.443 22.6207 165.427 22.6163 165.417 22.6236C164.793 23.0258 164.03 23.2623 163.408 23.2623C162.224 23.2623 161.427 22.537 161.427 21.039V15.4057C161.427 15.3941 161.437 15.384 161.449 15.384H165.515C165.527 15.384 165.537 15.3739 165.537 15.3624V13.3265C165.537 13.315 165.527 13.3049 165.515 13.3049H161.449C161.437 13.3049 161.427 13.2948 161.427 13.2833V9.60366C161.427 9.59212 161.417 9.58203 161.405 9.58203H158.934C158.922 9.58203 158.912 9.59212 158.912 9.60366V13.2833C158.912 13.2948 158.902 13.3049 158.89 13.3049H156.347C156.335 13.3049 156.325 13.315 156.325 13.3265V15.3624C156.325 15.3739 156.335 15.384 156.347 15.384H158.89C158.902 15.384 158.912 15.3941 158.912 15.4057V21.2091C158.912 24.1822 160.653 25.6313 163.238 25.6313C164.249 25.6313 165.068 25.3919 166.196 24.7229C166.204 24.7171 166.209 24.7056 166.206 24.6969L165.447 22.6351V22.6337Z" fill="black"/>
<path d="M15.2209 0.898438L1 9.104V24.8922L15.2209 33.105L29.4417 24.8922V9.104L15.2209 0.898438ZM26.9817 23.472L15.2209 30.2631L3.4658 23.472V10.5242L15.2209 3.73888L26.9817 10.53V23.4706V23.472Z" fill="#844896"/>
<path d="M14.4018 17.477L5.65039 12.4219V22.2063L14.4018 27.2614V17.477Z" fill="#844896"/>
<path d="M23.7067 22.8397L16.0498 18.4219V27.2604L23.7067 22.8397Z" fill="#844896"/>
<path d="M23.7043 11.1603L15.2239 6.26953L6.74219 11.1603L15.2239 16.0554L23.7043 11.1603Z" fill="#844896"/>
</g>
</svg>
