<svg width="192" height="42" viewBox="0 0 192 42" fill="none" xmlns="http://www.w3.org/2000/svg">
<path d="M43.24 18.65V24.55H42.24C41.24 20.33 40.54 19.77 37.07 19.77H33.25V28.77C38.05 28.7 38.78 27.94 38.91 25.24H40V33.38H38.9C38.78 30.73 38 29.96 33.25 29.93V40.26H33.88C41.28 40.26 42.13 38.54 42.68 34.56H43.78L43.22 41.38H26.9V40.26H29.8V19.73H26.9V18.65H43.24ZM153.35 10.67H190.09V11.8H153.34L153.35 10.67ZM149.56 0L124 10.73H0V11.83H124.23L150 1.05L149.56 0.05M14.12 40.73C12.1249 41.2564 10.0612 41.4756 8 41.38H0V40.26H2.9V19.73H0V18.65H8C10.0535 18.5517 12.11 18.7641 14.1 19.28C18.6 20.62 20.9 24.28 20.9 30.02C20.9 35.76 18.6 39.42 14.1 40.76M13.3 20.56C11.6052 19.9373 9.80407 19.6552 8 19.73H6.36V40.26H8C9.80069 40.3495 11.6014 40.0845 13.3 39.48C15.95 38.25 17.07 35.48 17.07 30.01C17.07 24.54 16 21.8 13.32 20.56H13.3ZM118.65 41.4L122.22 26.12H124.45V25H118.25V26.12H121L118.2 37.97L117.54 35.27L114.99 26.55H112.67L109.4 38L108.85 35.25L106.68 26.12H109.15V25H101.55V26.12H103.71L107.38 41.39H109.7L113 29.66L113.75 32.66L116.32 41.38H118.62M183.57 24.73C188.72 24.73 191.17 27.36 191.17 33.23C191.17 39.1 188.72 41.73 183.57 41.73C178.42 41.73 176 39 176 33.18C176 27.36 178.42 24.68 183.57 24.68M183.57 25.78C181.71 25.78 179.4 26.66 179.4 33.18C179.4 39.7 181.72 40.58 183.57 40.58C185.42 40.58 187.77 39.68 187.77 33.18C187.77 26.68 185.44 25.73 183.57 25.73V25.78ZM173.38 19.32C171.327 18.5918 169.157 18.2526 166.98 18.32C159.38 18.32 155.55 22.4 155.55 30.02C155.55 37.46 159.35 41.72 166.98 41.72C169.166 41.7461 171.334 41.3241 173.35 40.48L173.85 34.61H172.75C172.02 38.38 170.02 40.53 166.75 40.53C165.944 40.5877 165.135 40.4849 164.37 40.2274C163.604 39.9699 162.897 39.5629 162.29 39.03C160.57 37.38 159.65 34.43 159.65 30.03C159.65 25.63 160.59 22.46 162.48 20.83C163.57 19.9184 164.96 19.4444 166.38 19.5C169.88 19.5 171.78 21.68 172.38 24.5H173.38V19.3M64.88 19.4C63.0562 18.699 61.1135 18.3594 59.16 18.4C54.39 18.4 51.66 20.7 51.66 24.33C51.66 27.58 53.42 29.23 56.44 30.49L59.54 31.79C59.54 31.79 62.74 34.29 62.74 36.39C62.74 39.09 61.22 40.59 58.34 40.59C55.46 40.59 53.14 38.46 52.27 34.59H51.27L51.77 40.52C53.6584 41.3531 55.7064 41.7627 57.77 41.72C62.64 41.72 65.89 39.22 65.89 34.92C65.89 31.27 63.89 29.82 60.89 28.58L57.89 27.34C55.79 26.49 54.89 25.42 54.89 23.12C54.89 20.82 56.59 19.52 58.76 19.52C61.58 19.52 63.18 21.25 63.82 24.58H64.89V19.38M83 29.3C83 26 80.9 24.6 78.5 24.6C77.4088 24.5655 76.3284 24.826 75.3728 25.3539C74.4172 25.8819 73.6216 26.6578 73.07 27.6V18.6H67.7V19.73H69.93V40.27H67.7V41.39H75.43V40.26H73.1V31.26C73.0755 30.1828 73.3414 29.1189 73.87 28.18C74.218 27.5648 74.7199 27.0506 75.3264 26.6877C75.933 26.3249 76.6234 26.1258 77.33 26.11C78.96 26.11 79.86 27.25 79.86 29.31V40.31H77.53V41.41H85.23V40.25H83V29.25M99.6 36.34V29.14C99.6 25.84 97.22 24.66 93.54 24.66C89.86 24.66 87.34 25.96 87.34 28.31C87.3425 28.7523 87.5172 29.1762 87.8272 29.4917C88.1371 29.8073 88.5578 29.9896 89 30H89.2C89.4874 30.0302 89.778 29.9916 90.0475 29.8873C90.317 29.7829 90.5578 29.6159 90.75 29.4V28.64C90.75 26.76 91.67 25.71 93.5 25.71C93.8884 25.6598 94.2832 25.698 94.6548 25.8218C95.0264 25.9455 95.3652 26.1517 95.6459 26.4247C95.9267 26.6978 96.1421 27.0308 96.2762 27.3988C96.4102 27.7668 96.4594 28.1603 96.42 28.55V31L91 32.73C89.5 33.27 87 34.16 87 37.08C87 40.34 89.26 41.75 92.22 41.75C94.62 41.75 96.22 40.91 97.04 39.1C97.49 41.1 99.44 41.9 101.68 41.45V40.45C100.56 40.1 99.68 38.73 99.68 36.35M96.53 36.35C96.53 39.01 95.45 40.25 93.43 40.25C91.63 40.25 90.63 39.05 90.63 37.05C90.63 34.22 92.1 33.71 94.03 33.05L96.53 32.2V36.35ZM145.93 38.5C146.92 37.454 147.687 36.2181 148.185 34.8671C148.684 33.5162 148.903 32.0781 148.83 30.64C148.807 29.2816 148.584 27.9339 148.17 26.64H142.8V27.64C143.417 27.6015 144.035 27.6859 144.619 27.8885C145.202 28.0911 145.74 28.4077 146.2 28.82C146.615 29.2778 146.933 29.8153 147.134 30.3998C147.335 30.9843 147.416 31.6036 147.37 32.22C147.367 34.2673 146.58 36.2357 145.17 37.72C144.94 37.48 144.54 37.09 144.31 36.84C140.982 33.5013 138.141 29.7108 135.87 25.58C135.379 24.6788 135.105 23.6756 135.07 22.65C135.037 22.2118 135.099 21.7716 135.252 21.3595C135.405 20.9474 135.644 20.573 135.954 20.2617C136.265 19.9505 136.638 19.7098 137.05 19.5559C137.462 19.402 137.902 19.3386 138.34 19.37C140.46 19.37 142.11 20.62 142.82 24.37H143.82V19.37C142.221 18.6442 140.475 18.3018 138.72 18.37C134.92 18.37 132.25 20.17 132.25 23.81C132.288 25.0229 132.578 26.2146 133.1 27.31C131.784 27.762 130.649 28.6255 129.862 29.7726C129.075 30.9198 128.678 32.2898 128.73 33.68C128.73 37.62 131.73 41.85 137.73 41.85C139.798 41.9079 141.843 41.407 143.65 40.4C145.296 41.241 147.103 41.7184 148.95 41.8L149.27 40.92C148.073 40.2764 146.955 39.4944 145.94 38.59M139.44 40.44C138.425 40.4596 137.417 40.278 136.473 39.9055C135.529 39.533 134.668 38.9772 133.94 38.27C132.474 36.7391 131.676 34.6891 131.72 32.57C131.653 31.7213 131.77 30.868 132.063 30.0688C132.356 29.2696 132.819 28.5434 133.42 27.94C135.532 31.8936 138.248 35.4936 141.47 38.61C141.859 39.0031 142.273 39.3705 142.71 39.71C141.697 40.1973 140.583 40.4372 139.46 40.41L139.44 40.44Z" fill="black"/>
</svg>
