<svg width="171" height="50" viewBox="0 0 171 50" fill="none" xmlns="http://www.w3.org/2000/svg">
<path fill-rule="evenodd" clip-rule="evenodd" d="M38.1149 6.66797H44.3366C49.8705 6.66797 54.3633 11.1608 54.3633 16.6947V38.5719C54.3633 44.1058 49.8705 48.5987 44.3366 48.5987H43.8463C40.998 48.1531 39.7628 47.2989 38.8085 46.577L30.8982 40.073C30.7 39.9127 30.4529 39.8253 30.198 39.8253C29.9431 39.8253 29.6959 39.9127 29.4978 40.073L26.9279 42.1862L19.6901 36.235C19.4922 36.0744 19.2451 35.9868 18.9903 35.9868C18.7354 35.9868 18.4883 36.0744 18.2904 36.235L8.23529 45.0805C6.21164 46.7264 4.87307 46.4223 4.00504 46.3269C1.7629 44.4869 0.331543 41.6952 0.331543 38.5719V16.6947C0.331543 11.1608 4.82438 6.66797 10.359 6.66797H16.5668L16.5556 6.69298L16.3463 7.30303L16.2812 7.51231L15.9995 8.76204L15.9607 8.98118L15.837 10.2329L15.8205 10.5764L15.8179 10.6968L15.8297 11.2707L15.858 11.607L15.9278 12.1335L16.0166 12.6073L16.1219 13.0436L16.2588 13.5161L16.6142 14.5164L16.7313 14.8165L17.3499 16.1235L17.5684 16.525L18.2838 17.753L18.5576 18.1959L19.5559 19.6661L19.7 19.8609L20.9991 21.5515L21.419 22.0721L22.9023 23.8061L23.207 24.1398L24.4298 25.4553L24.9141 25.9568L25.7144 26.7518L25.5538 26.886L25.4538 26.9762C25.182 27.2296 24.924 27.4987 24.6825 27.7817C24.5664 27.9186 24.4558 28.06 24.3508 28.2055C24.1907 28.4279 24.0474 28.6619 23.9224 28.9057C23.8584 29.0323 23.8011 29.1622 23.7506 29.2947C23.6204 29.6333 23.542 29.9896 23.5183 30.3516L23.5137 30.6642C23.5251 31.105 23.6149 31.5402 23.7789 31.9494C23.9451 32.3644 24.1875 32.7445 24.4936 33.0702C24.716 33.3071 24.9694 33.5137 25.2471 33.6835C25.4834 33.8283 25.7354 33.9474 25.9973 34.0382C26.5667 34.2312 27.1708 34.2999 27.7689 34.2396H27.7722C28.2825 34.1901 28.7786 34.0429 29.2332 33.8059C29.4293 33.702 29.6162 33.5815 29.7913 33.4446C30.2926 33.0545 30.681 32.538 30.9166 31.9481C31.1009 31.4881 31.1911 30.9965 31.1832 30.5016L31.1687 30.243C31.1353 29.9013 31.0537 29.5661 30.9265 29.2473C30.8714 29.1084 30.8088 28.9727 30.7389 28.8406C30.6094 28.5973 30.462 28.3639 30.298 28.1424C30.223 28.041 30.1453 27.9416 30.065 27.8442C29.7979 27.5254 29.5104 27.2242 29.2043 26.9426L28.9877 26.7584L29.3543 26.3964L30.9298 24.7512L31.4747 24.153L32.3217 23.2L32.8725 22.5558L33.6583 21.5989L34.19 20.9303L34.9712 19.8859L35.3654 19.3456L35.9247 18.5091L36.3907 17.7964L37.2686 16.2676L37.7707 15.2647L37.7852 15.2338L38.1695 14.3032C38.1746 14.2912 38.179 14.2789 38.1827 14.2664L38.5966 12.9752L38.6401 12.787L38.8197 11.759L38.8546 11.4806L38.8651 11.3102L38.8776 10.6666L38.8743 10.5468L38.8414 9.9703L38.8006 9.5228L38.5966 8.23227C38.5933 8.21516 38.59 8.19805 38.5848 8.18094L38.3229 7.22669L38.2327 6.96148L38.1149 6.66797ZM41.0724 33.9494C40.4451 33.9583 39.8459 34.2114 39.4023 34.655C38.9586 35.0987 38.7055 35.6978 38.6967 36.3251C38.7058 36.9523 38.9591 37.5512 39.4027 37.9946C39.8463 38.4381 40.4452 38.6912 41.0724 38.7002C41.6996 38.691 42.2985 38.4379 42.7421 37.9945C43.1858 37.5511 43.4393 36.9523 43.4488 36.3251C43.4398 35.6978 43.1865 35.0986 42.7427 34.655C42.299 34.2114 41.6998 33.9582 41.0724 33.9494Z" fill="url(#paint0_radial_3095_10209)"/>
<path fill-rule="evenodd" clip-rule="evenodd" d="M23.7855 47.741L23.3663 48.0931C22.9788 48.4129 22.4932 48.5899 21.9909 48.5946H10.3577C8.04058 48.5975 5.79458 47.7946 4.00439 46.3235C4.87243 46.4189 6.211 46.723 8.23465 45.0771L18.2884 36.2322C18.4866 36.0722 18.7336 35.985 18.9883 35.985C19.243 35.985 19.49 36.0722 19.6882 36.2322L26.9253 42.1827L29.4945 40.0702C29.9018 39.7412 30.4882 39.7412 30.8949 40.0702L38.8046 46.5736C39.7588 47.2955 40.9941 48.1491 43.8417 48.5946H38.5802C38.1153 48.5891 37.6637 48.4386 37.2883 48.1642L37.1962 48.0931L36.806 47.7687C36.7745 47.7307 36.7397 47.6957 36.702 47.664C36.2597 47.2935 30.656 42.6513 30.656 42.6513C30.5376 42.5528 30.3883 42.499 30.2343 42.4993C30.0802 42.4995 29.9312 42.5538 29.813 42.6526C29.813 42.6526 29.8268 42.6697 23.8651 47.664C23.8367 47.6877 23.8101 47.7134 23.7855 47.741ZM41.0684 33.9473C40.4421 33.9588 39.8445 34.2127 39.4015 34.6556C38.9584 35.0985 38.7044 35.696 38.6927 36.3224C38.7047 36.9487 38.9589 37.5459 39.4018 37.9888C39.8448 38.4317 40.4422 38.6857 41.0684 38.6975C41.6947 38.6857 42.2921 38.4317 42.7351 37.9888C43.178 37.5459 43.4322 36.9487 43.4442 36.3224C43.4325 35.696 43.1785 35.0985 42.7354 34.6556C42.2924 34.2127 41.6948 33.9588 41.0684 33.9473ZM25.7117 26.7504L24.9115 25.9554L24.4271 25.4539L23.2044 24.1384L22.8997 23.8047L21.417 22.0713L20.9971 21.5507L19.698 19.8601L19.5539 19.6653L18.5556 18.1951L18.2818 17.7522L17.5665 16.5242L17.348 16.1227L16.7294 14.8164L16.6122 14.5163L16.2575 13.516L16.1206 13.0435L16.0153 12.6072L15.9265 12.1333L15.8567 11.6069L15.8284 11.2706L15.8166 10.6967L15.8192 10.5763L15.8357 10.2328L15.9594 8.98172L15.9982 8.76257L16.2799 7.51284L16.3444 7.30357L16.5537 6.69351L16.6208 6.53557L16.9538 5.80376L17.1848 5.3681L17.5066 4.83768L17.8271 4.36516L18.0554 4.06507L18.3187 3.74787L18.6082 3.42935L18.8563 3.18059L19.4605 2.64884L19.9021 2.28755C19.9126 2.27833 19.9238 2.27044 19.935 2.26254L20.4575 1.90914L20.8728 1.64459L21.6612 1.22933C21.673 1.22209 21.6868 1.21616 21.6993 1.21024L22.8168 0.746283L22.9201 0.707455L23.9138 0.416576L24.3337 0.322468L24.901 0.208617L25.2774 0.151362L25.8545 0.0796298L26.2481 0.0447506L27.0293 0.00329049L27.3353 0L27.9151 0.0118458L28.0658 0.020401L28.9055 0.0901594L30.0157 0.246787L30.144 0.273769L31.2417 0.546879L31.5642 0.642961L31.9222 0.766684L32.3585 0.931866L32.7034 1.07796L33.2101 1.31685L33.5293 1.48072L34.1031 1.81767L34.317 1.94929L35.0995 2.52051L35.3239 2.71531L35.8688 3.21152L35.8958 3.2385L36.3584 3.7347L36.5177 3.91436L37.0606 4.63564L37.1712 4.80806L37.6022 5.53592L37.7319 5.78534L37.9747 6.32827L38.2288 6.96202L38.3189 7.22723L38.5808 8.18147C38.5856 8.19839 38.5895 8.21552 38.5927 8.2328L38.7967 9.52333L38.8375 9.97018L38.8704 10.5467L38.8737 10.6664L38.8612 11.3101L38.8507 11.4805L38.8158 11.7589L38.6361 12.7868L38.5927 12.9751L38.1787 14.2662C38.1749 14.2787 38.1705 14.291 38.1656 14.3031L37.7813 15.2336L37.7668 15.2646L37.2646 16.2669L36.3867 17.7956L35.9208 18.5083L35.3621 19.3448L34.9679 19.8851L34.1867 20.9295L33.655 21.5981L32.8692 22.5543L32.3184 23.1986L31.4714 24.1515L30.9265 24.7497L29.351 26.395L28.9851 26.7569L29.201 26.9412C29.507 27.2229 29.7946 27.5236 30.0618 27.8428C30.1421 27.9402 30.2197 28.0396 30.2947 28.1409C30.4586 28.362 30.606 28.5957 30.7357 28.8385C30.8054 28.9701 30.8679 29.1063 30.9232 29.2452C31.0489 29.5637 31.1338 29.9007 31.1654 30.2409L31.1799 30.4995C31.1878 30.9944 31.0976 31.4867 30.9133 31.946C30.6777 32.5359 30.2893 33.0524 29.788 33.4425C29.6129 33.5794 29.426 33.6999 29.2299 33.8038C28.7754 34.0406 28.2797 34.1878 27.7696 34.2375H27.7663C27.1682 34.2975 26.5641 34.2289 25.9947 34.0362C25.7327 33.9451 25.4811 33.8262 25.2445 33.6814C24.967 33.5116 24.7136 33.3053 24.491 33.0681C24.1851 32.7422 23.9427 32.3621 23.7763 31.9473C23.6125 31.538 23.5227 31.1028 23.5111 30.6621L23.5157 30.3495C23.5394 29.9875 23.6177 29.6312 23.748 29.2926C23.7987 29.1596 23.8559 29.03 23.9197 28.9036C24.0448 28.6602 24.1882 28.4265 24.3482 28.2041C24.4528 28.0586 24.564 27.9172 24.6798 27.7803C24.9214 27.4973 25.1793 27.2281 25.4511 26.9748L25.5512 26.8846L25.7117 26.7504Z" fill="black"/>
<path fill-rule="evenodd" clip-rule="evenodd" d="M23.3664 48.0944L29.8131 42.6539C29.9313 42.555 30.0804 42.5008 30.2344 42.5005C30.3884 42.5003 30.5377 42.5541 30.6561 42.6526L37.1963 48.0944C37.5938 48.4182 38.0913 48.5952 38.604 48.5959H21.9673C22.478 48.5959 22.9722 48.4188 23.3664 48.0944ZM27.3795 28.6733L27.4427 28.6917C27.4631 28.7016 27.4802 28.7154 27.4986 28.7279L27.5512 28.7746C27.6815 28.8944 27.8079 29.0201 27.9297 29.1491C28.0152 29.2406 28.0988 29.3347 28.1791 29.4321C28.2811 29.5551 28.3765 29.6841 28.4634 29.8184C28.5009 29.8776 28.5358 29.9375 28.5687 30C28.597 30.054 28.6226 30.1099 28.645 30.1665C28.6845 30.2652 28.7141 30.3692 28.7233 30.4751L28.7213 30.6739C28.7081 30.8533 28.6524 31.0269 28.559 31.1806C28.4655 31.3342 28.3369 31.4635 28.1837 31.5577C27.9847 31.6781 27.7611 31.7516 27.5295 31.7729L27.2841 31.7802L27.0768 31.7617C26.9798 31.7476 26.8844 31.7245 26.7918 31.6926C26.6975 31.6605 26.607 31.6181 26.522 31.5663L26.3601 31.4478C26.1693 31.285 26.0394 31.0623 25.9916 30.816C25.9835 30.7746 25.9772 30.7329 25.9725 30.691L25.9665 30.5015C25.9698 30.4501 25.9777 30.3995 25.9889 30.3488C26.0172 30.2382 26.058 30.131 26.1094 30.029C26.1758 29.9013 26.2515 29.7782 26.3357 29.6611C26.4759 29.4715 26.6279 29.2912 26.7905 29.1208C26.8951 29.0102 27.0024 28.903 27.1143 28.7996L27.1939 28.7279C27.2492 28.6917 27.2498 28.6917 27.313 28.6733H27.3795ZM26.9721 2.25197L26.9978 2.25V24.4049L26.9425 24.3028C26.2132 22.9538 25.5342 21.578 24.907 20.1786C24.3982 19.0457 23.9374 17.8919 23.5257 16.7202C23.197 15.787 22.9191 14.8366 22.6932 13.8733C22.5188 13.108 22.3845 12.3314 22.3292 11.5469C22.3077 11.2122 22.3014 10.8767 22.3102 10.5414C22.3154 10.2492 22.3273 9.95764 22.3457 9.6661C22.3746 9.20807 22.4214 8.75069 22.4885 8.2966C22.5418 7.93925 22.6076 7.58322 22.6886 7.23114C22.7531 6.95145 22.8281 6.67373 22.9136 6.40062C23.0374 6.00576 23.1854 5.62012 23.3578 5.24369C23.421 5.10812 23.4888 4.97321 23.5599 4.84093C23.9876 4.04858 24.5681 3.31875 25.3282 2.8311C25.8221 2.5096 26.3858 2.31102 26.9721 2.25197ZM29.8447 2.30791L31.3353 2.73304C32.0256 2.98773 32.6903 3.31941 33.301 3.73401C34.1335 4.29586 34.8509 5.01153 35.4149 5.84255C35.7452 6.33481 36.019 6.8659 36.2329 7.42067C36.5428 8.24132 36.735 9.10145 36.8028 9.97541C36.8225 10.2044 36.8337 10.4341 36.8383 10.6638C36.8436 10.877 36.8423 11.0909 36.8252 11.3041C36.783 11.7812 36.6935 12.2531 36.5573 12.7124C36.448 13.0883 36.319 13.4583 36.171 13.8207C35.9867 14.2715 35.7821 14.7137 35.5577 15.1454C35.0615 16.1043 34.4896 17.0223 33.8775 17.9101C33.1188 19.0012 32.31 20.0566 31.4538 21.0729C30.5241 22.1817 29.5545 23.2564 28.5469 24.295C29.2306 23.0129 29.8687 21.7071 30.46 20.3799C30.7891 19.6402 31.099 18.8926 31.3906 18.1378C31.7111 17.3086 32.0006 16.4682 32.2573 15.6173C32.4481 14.9796 32.6166 14.3353 32.7555 13.6838C32.8746 13.1251 32.968 12.5604 33.026 11.9925C33.0747 11.5186 33.0924 11.0422 33.0806 10.567C33.0761 10.2762 33.0653 9.98545 33.0483 9.69506C32.9786 8.52693 32.8009 7.3621 32.46 6.24136C32.3309 5.81644 32.174 5.4005 31.9901 4.99624C31.5538 4.04595 30.9451 3.15817 30.1211 2.50995L29.8447 2.30791Z" fill="white"/>
<path fill-rule="evenodd" clip-rule="evenodd" d="M118.271 42.3135L111.196 27.1674C110.605 25.9058 110.253 25.4445 109.662 24.9094L109.087 24.3909C108.628 23.946 108.327 23.534 108.327 23.045C108.327 22.3448 108.881 21.7552 109.892 21.7552H116.034C116.998 21.7552 117.599 22.2566 117.599 23.0056C117.599 23.4235 117.407 23.7367 117.164 24.044C116.876 24.4093 116.501 24.7653 116.501 25.4142C116.501 25.8209 116.619 26.2263 116.848 26.7442L121.07 36.6321L124.857 26.993C125.09 26.352 125.25 25.7873 125.25 25.3352C125.25 24.6317 124.867 24.3448 124.572 24.0302C124.316 23.7571 124.11 23.4682 124.11 23.0056C124.11 22.2494 124.726 21.7552 125.554 21.7552H129.336C130.397 21.7552 130.901 22.304 130.901 23.0056C130.901 23.4544 130.643 23.8703 130.134 24.3191L129.599 24.7587C128.854 25.3675 128.509 26.248 128.118 27.1588L122.382 40.9775C121.704 42.5932 120.695 44.836 119.154 46.676C117.588 48.545 115.477 49.9981 112.617 49.9981C110.223 49.9981 108.774 48.855 108.774 47.2078C108.774 45.6987 109.89 44.4964 111.357 44.4964C112.159 44.4964 112.577 44.8755 113.001 45.2657C113.351 45.5875 113.707 45.9179 114.407 45.9179C115.058 45.9179 115.663 45.6428 116.212 45.1986C117.05 44.5207 117.753 43.4533 118.271 42.3135ZM159.846 42.2595C163.031 42.2595 165.64 41.1684 167.676 38.9907C169.709 36.8164 170.727 34.1991 170.727 31.139C170.727 28.1519 169.76 25.6978 167.834 23.7742C165.908 21.8519 163.409 20.8865 160.334 20.8865C157.096 20.8865 154.448 21.9375 152.386 24.0322C150.323 26.1289 149.291 28.6685 149.291 31.6516C149.291 34.6085 150.276 37.1145 152.241 39.1704C154.209 41.2276 156.743 42.2595 159.846 42.2595ZM132.916 42.0226C134.758 42.0226 136.067 40.7827 136.067 38.9954C136.067 37.2501 134.715 36.0076 132.916 36.0076C131.032 36.0076 129.684 37.2521 129.684 38.9954C129.684 40.7808 131.033 42.0226 132.916 42.0226ZM139.474 39.1895L139.922 38.7157C140.455 38.1977 140.627 37.6746 140.627 36.232V27.7037C140.627 26.4566 140.457 25.8999 139.928 25.4234L139.401 24.9509C138.884 24.4948 138.714 24.2112 138.714 23.7558C138.714 23.1082 139.216 22.5771 140.024 22.3929L143.604 21.5242C143.946 21.4413 144.332 21.3603 144.632 21.3603C145.044 21.3603 145.381 21.4959 145.617 21.7308C145.854 21.9664 145.994 22.3053 145.994 22.7292V36.232C145.994 37.5936 146.159 38.2267 146.727 38.7051C146.736 38.713 146.745 38.7216 146.753 38.7308L147.153 39.1967C147.656 39.6857 147.864 40.0101 147.864 40.4563C147.864 41.252 147.264 41.7067 146.3 41.7067H140.238C139.32 41.7067 138.714 41.2546 138.714 40.4563C138.714 40.0082 138.923 39.6811 139.474 39.1895ZM98.9566 39.1902L99.4048 38.7157C99.9385 38.1977 100.11 37.6746 100.11 36.232V18.4259C100.11 17.2182 99.982 16.6253 99.4166 16.1495L98.8757 15.6257C98.4091 15.1722 98.2386 14.8912 98.2386 14.4378C98.2386 13.7896 98.7434 13.2604 99.5068 13.0755L103.046 12.2068C103.389 12.1239 103.775 12.043 104.075 12.043C104.483 12.043 104.829 12.166 105.076 12.3997C105.324 12.6339 105.476 12.9821 105.476 13.4513V36.232C105.476 37.5969 105.646 38.1938 106.217 38.7104L106.673 39.1934C107.18 39.6857 107.348 40.0082 107.348 40.4563C107.348 40.7867 107.247 41.0532 107.068 41.2566C106.814 41.5429 106.39 41.7067 105.824 41.7067H99.7628C99.1968 41.7067 98.7724 41.5429 98.5183 41.2566C98.3393 41.0532 98.2386 40.7867 98.2386 40.4563C98.2386 40.0075 98.4051 39.6824 98.9566 39.1902ZM82.4522 30.0202V36.153C82.4522 37.077 82.6352 37.9306 83.3966 38.6327L83.8888 39.1105C84.4403 39.6456 84.6081 39.966 84.6081 40.4563C84.6081 41.2052 84.0073 41.7067 83.0432 41.7067H76.2088C75.2447 41.7067 74.6445 41.2052 74.6445 40.4563C74.6445 39.8746 74.815 39.5988 75.3665 39.1079L75.8567 38.6314C76.428 38.1142 76.8005 37.4093 76.8005 36.153V19.7684C76.8005 18.77 76.5793 17.9533 75.8561 17.288L75.3632 16.8102C74.8564 16.3186 74.6445 15.9955 74.6445 15.5039C74.6445 14.7102 75.2467 14.214 76.2088 14.214H94.5151C95.2147 14.214 95.8294 14.37 96.2222 14.755C96.4953 15.0228 96.6697 15.4006 96.6895 15.9251L96.9744 20.1507C97.0027 20.6792 96.8468 21.1195 96.5421 21.3912C96.3321 21.5781 96.0498 21.69 95.6944 21.69C95.2463 21.69 94.9028 21.5209 94.5961 21.2287C94.3203 20.9661 94.0749 20.5976 93.7978 20.1639C93.1292 19.0951 92.8179 18.7108 92.1052 18.2113C91.1134 17.4795 89.6024 17.2281 86.745 17.2281C85.0964 17.2281 84.056 17.2999 83.4005 17.469C82.9767 17.5782 82.7319 17.7204 82.6009 17.929C82.4667 18.1422 82.4522 18.412 82.4522 18.7417V27.0456H86.745C87.7723 27.0456 88.4949 26.86 89.332 25.7156L89.3366 25.709C89.6722 25.2819 89.915 24.9673 90.146 24.7587C90.4152 24.5152 90.6738 24.4001 91.0167 24.4001C91.3465 24.403 91.6618 24.5361 91.8939 24.7705C92.1259 25.0048 92.2561 25.3213 92.2559 25.6511V31.3759C92.2559 32.1426 91.6583 32.6658 91.0167 32.6658C90.6975 32.6658 90.4382 32.5519 90.1684 32.3137C89.9361 32.1097 89.6926 31.8037 89.3767 31.395C88.4606 30.2091 87.8137 30.0202 86.745 30.0202H82.4522ZM154.984 29.8754C154.984 27.8215 155.431 26.3454 156.359 25.4576C157.275 24.581 158.259 24.1375 159.317 24.1375C160.773 24.1375 162.085 24.9522 163.268 26.554C164.477 28.192 165.075 30.4059 165.075 33.1916C165.075 35.2475 164.626 36.7374 163.698 37.6509C162.782 38.5518 161.798 39.0085 160.741 39.0085C159.285 39.0085 157.974 38.1872 156.791 36.5729C155.581 34.9211 154.984 32.6875 154.984 29.8754ZM143.005 18.7681C144.85 18.7681 146.156 17.7296 146.156 15.9382C146.156 14.189 144.852 13.1479 143.005 13.1479C141.116 13.1479 139.813 14.1897 139.813 15.9382C139.813 17.6862 141.116 18.7681 143.005 18.7681Z" fill="black"/>
<defs>
<radialGradient id="paint0_radial_3095_10209" cx="0" cy="0" r="1" gradientUnits="userSpaceOnUse" gradientTransform="translate(29.02 27.4507) scale(39.1413 39.1413)">
<stop stop-color="#BA7BF0"/>
<stop offset="0.45" stop-color="#996BEC"/>
<stop offset="1" stop-color="#5046E4"/>
</radialGradient>
</defs>
</svg>
