<svg width="87" height="50" viewBox="0 0 87 50" fill="none" xmlns="http://www.w3.org/2000/svg">
<g clip-path="url(#clip0_3095_9951)">
<path fill-rule="evenodd" clip-rule="evenodd" d="M85.782 36.1301L72.809 49.1438C72.2935 49.6575 71.5203 50 70.747 50H2.18759C1.41436 50 0.727051 49.4007 0.727051 48.5445V15.839C0.727051 15.0685 1.07071 14.3836 1.58619 13.7842L14.5592 0.856164C15.0747 0.342466 15.8479 0 16.6212 0H85.2665C86.0397 0 86.7271 0.599315 86.7271 1.45548V34.161C86.6411 34.9315 86.2975 35.6164 85.782 36.1301Z" fill="#FF8200"/>
<path fill-rule="evenodd" clip-rule="evenodd" d="M73.5822 19.6048H68.771C68.5132 19.6048 68.2555 19.8616 68.2555 20.1185V35.187C68.2555 35.4438 67.9977 35.7007 67.74 35.7007H63.4443C63.1865 35.7007 62.9288 35.4438 62.9288 35.187V20.1185C62.9288 19.8616 62.6711 19.6048 62.4133 19.6048H57.6021C57.3444 19.6048 57.0866 19.3479 57.0866 19.0911V14.7246C57.0866 14.4678 57.3444 14.2109 57.6021 14.2109H73.5822C73.8399 14.2109 74.0976 14.4678 74.0976 14.7246V19.0911C74.0976 19.4335 73.9258 19.6048 73.5822 19.6048ZM54.767 35.7007H49.8699C49.698 35.7007 49.5262 35.615 49.3544 35.5294C49.1826 35.4438 49.0966 35.3582 49.0107 35.187L45.746 29.5363C45.746 29.4507 45.6601 29.4507 45.5742 29.4507H42.0517C41.9658 29.4507 41.8799 29.5363 41.8799 29.6219V35.1013C41.8799 35.5294 41.708 35.7007 41.2785 35.7007H37.0687C36.6391 35.7007 36.4673 35.5294 36.4673 35.1013V14.8959C36.4673 14.4678 36.6391 14.2966 37.0687 14.2966H50.8149C51.3304 14.2966 51.76 14.3822 52.1895 14.5534C52.6191 14.7246 53.0487 14.9815 53.3064 15.324C53.6501 15.6664 53.9078 16.0089 54.0797 16.437C54.2515 16.865 54.3374 17.3787 54.3374 17.8068V25.8548C54.3374 26.6253 54.0797 27.3103 53.6501 27.9096C53.2205 28.5089 52.6191 28.937 51.8459 29.1938H51.76C51.5881 29.1938 51.5881 29.2794 51.6741 29.365V29.4507L54.9388 35.1013C55.0247 35.2726 55.0247 35.3582 54.9388 35.4438C55.0247 35.615 54.9388 35.7007 54.767 35.7007ZM49.0966 19.1767H41.9658V24.4849H49.0966V19.1767ZM32.4293 35.7007H28.0477C27.7899 35.7007 27.5322 35.4438 27.5322 35.187V28.1664C27.5322 27.9096 27.2745 27.6527 27.0167 27.6527H20.8309C20.5732 27.6527 20.3154 27.9096 20.3154 28.1664V35.187C20.3154 35.4438 20.0577 35.7007 19.7999 35.7007H15.4183C15.1606 35.7007 14.9028 35.4438 14.9028 35.187V14.7246C14.9028 14.4678 15.1606 14.2109 15.4183 14.2109H19.7999C20.0577 14.2109 20.3154 14.4678 20.3154 14.7246V21.7452C20.3154 22.002 20.5732 22.2589 20.8309 22.2589H27.0167C27.2745 22.2589 27.5322 22.002 27.5322 21.7452V14.7246C27.5322 14.4678 27.7899 14.2109 28.0477 14.2109H32.4293C32.687 14.2109 32.9448 14.4678 32.9448 14.7246V35.1013C32.9448 35.4438 32.687 35.7007 32.4293 35.7007Z" fill="white"/>
</g>
<defs>
<clipPath id="clip0_3095_9951">
<rect width="86" height="50" fill="white" transform="translate(0.727051)"/>
</clipPath>
</defs>
</svg>
