<svg width="539" height="102" viewBox="0 0 539 102" fill="none" xmlns="http://www.w3.org/2000/svg">
<g clip-path="url(#clip0_3095_10022)">
<mask id="mask0_3095_10022" style="mask-type:luminance" maskUnits="userSpaceOnUse" x="0" y="0" width="539" height="102">
<path d="M539 0H0V102H539V0Z" fill="white"/>
</mask>
<g mask="url(#mask0_3095_10022)">
<mask id="mask1_3095_10022" style="mask-type:luminance" maskUnits="userSpaceOnUse" x="-32" y="-79" width="260" height="260">
<path d="M-31.5894 -78.707H227.929V180.728H-31.5894V-78.707Z" fill="white"/>
</mask>
<g mask="url(#mask1_3095_10022)">
<mask id="mask2_3095_10022" style="mask-type:luminance" maskUnits="userSpaceOnUse" x="-32" y="-79" width="260" height="260">
<path d="M-31.5894 -78.707H227.929V180.728H-31.5894V-78.707Z" fill="white"/>
</mask>
<g mask="url(#mask2_3095_10022)">
<mask id="mask3_3095_10022" style="mask-type:alpha" maskUnits="userSpaceOnUse" x="1" y="0" width="59" height="102">
<path d="M58.9549 34.1175L59.1443 33.7379L40.3825 0.924695L39.7727 0.917969C39.181 1.25571 38.5894 1.84713 38.2516 2.43855L1.6614 65.7959C0.900627 67.0633 0.900627 68.7525 1.6614 70.0199L18.731 99.5863C19.0688 100.262 19.6605 100.769 20.2521 101.107L20.5082 100.664L58.9549 34.1175Z" fill="#393939"/>
</mask>
<g mask="url(#mask3_3095_10022)">
<mask id="mask4_3095_10022" style="mask-type:luminance" maskUnits="userSpaceOnUse" x="-32" y="-79" width="260" height="260">
<path d="M-31.5894 -78.707H227.929V180.728H-31.5894V-78.707Z" fill="white"/>
</mask>
<g mask="url(#mask4_3095_10022)">
<path d="M98.1699 -78.707C169.784 -78.707 227.929 -20.5807 227.929 51.0104C227.929 122.601 169.784 180.728 98.1699 180.728C26.5558 180.728 -31.5894 122.601 -31.5894 51.0104C-31.5894 -20.5807 26.5558 -78.707 98.1699 -78.707Z" fill="url(#paint0_linear_3095_10022)"/>
</g>
</g>
<path d="M97.9958 34.1163L97.509 33.6758H59.242L58.685 34.1163L20.2378 100.792L20.2527 101.106C20.8443 101.444 21.6041 101.697 22.3649 101.697H56.5041C58.0251 101.697 59.3775 100.853 60.1378 99.5852L97.9112 34.1163H97.9958Z" fill="#09AF58"/>
<mask id="mask5_3095_10022" style="mask-type:alpha" maskUnits="userSpaceOnUse" x="39" y="0" width="59" height="35">
<path d="M58.9518 34.1151H97.9925L79.6551 2.43621C78.8943 1.1693 77.5424 0.324219 76.0214 0.324219H41.8817C41.1209 0.324219 40.3606 0.493332 39.769 0.915633L58.9518 34.1151Z" fill="#B6B6B6"/>
</mask>
<g mask="url(#mask5_3095_10022)">
<mask id="mask6_3095_10022" style="mask-type:luminance" maskUnits="userSpaceOnUse" x="-32" y="-79" width="260" height="260">
<path d="M-31.5894 -78.707H227.929V180.728H-31.5894V-78.707Z" fill="white"/>
</mask>
<g mask="url(#mask6_3095_10022)">
<path d="M98.1699 -78.707C169.784 -78.707 227.929 -20.5807 227.929 51.0104C227.929 122.601 169.784 180.728 98.1699 180.728C26.5558 180.728 -31.5894 122.601 -31.5894 51.0104C-31.5894 -20.5807 26.5558 -78.707 98.1699 -78.707Z" fill="url(#paint1_linear_3095_10022)"/>
</g>
</g>
</g>
<mask id="mask7_3095_10022" style="mask-type:luminance" maskUnits="userSpaceOnUse" x="65" y="-79" width="261" height="260">
<path d="M65.4897 180.73H325.008V-78.7043H65.4897V180.73Z" fill="white"/>
</mask>
<g mask="url(#mask7_3095_10022)">
<mask id="mask8_3095_10022" style="mask-type:alpha" maskUnits="userSpaceOnUse" x="97" y="0" width="60" height="102">
<path d="M156.034 67.906L156.223 68.2855L137.462 101.099L136.852 101.105C136.26 100.768 135.668 100.176 135.331 99.5849L97.9292 33.9455V33.9546L115.81 2.43714C116.148 1.76117 116.739 1.25431 117.331 0.916564L117.587 1.35952L156.034 67.906Z" fill="#393939"/>
</mask>
<g mask="url(#mask8_3095_10022)">
<mask id="mask9_3095_10022" style="mask-type:luminance" maskUnits="userSpaceOnUse" x="65" y="-79" width="261" height="260">
<path d="M65.4897 -78.707H325.008V180.728H65.4897V-78.707Z" fill="white"/>
</mask>
<g mask="url(#mask9_3095_10022)">
<path d="M195.249 -78.707C266.863 -78.707 325.008 -20.5807 325.008 51.0104C325.008 122.601 266.863 180.728 195.249 180.728C123.635 180.728 65.4897 122.601 65.4897 51.0104C65.4897 -20.5807 123.635 -78.707 195.249 -78.707Z" fill="url(#paint2_linear_3095_10022)"/>
</g>
</g>
<mask id="mask10_3095_10022" style="mask-type:alpha" maskUnits="userSpaceOnUse" x="117" y="0" width="79" height="69">
<path d="M195.075 67.9071L194.588 68.3477H156.321L155.764 67.9071L117.317 1.23188L117.332 0.91768C117.923 0.579452 118.683 0.326256 119.444 0.326256H153.583C155.104 0.326256 156.457 1.17087 157.217 2.43825L194.99 67.9071H195.075Z" fill="#B7B7B7"/>
</mask>
<g mask="url(#mask10_3095_10022)">
<mask id="mask11_3095_10022" style="mask-type:luminance" maskUnits="userSpaceOnUse" x="65" y="-79" width="261" height="260">
<path d="M65.4897 -78.707H325.008V180.728H65.4897V-78.707Z" fill="white"/>
</mask>
<g mask="url(#mask11_3095_10022)">
<path d="M195.249 -78.707C266.863 -78.707 325.008 -20.5807 325.008 51.0104C325.008 122.601 266.863 180.728 195.249 180.728C123.635 180.728 65.4897 122.601 65.4897 51.0104C65.4897 -20.5807 123.635 -78.707 195.249 -78.707Z" fill="url(#paint3_linear_3095_10022)"/>
</g>
</g>
<path d="M156.031 67.9083H195.072L176.734 99.5872C175.973 100.854 174.622 101.699 173.1 101.699H138.961C138.2 101.699 137.44 101.53 136.848 101.108L156.031 67.9083Z" fill="#09AF58"/>
</g>
</g>
<path d="M312.541 15.2577H330.171V88.6045H316.97V36.3331L296.664 88.6045H284.728L264.423 36.2467V88.6045H251.25V15.2577H268.881L290.768 71.8132L312.684 15.2577H312.541ZM393.217 61.8363C393.217 67.2129 392.037 71.9856 389.679 76.2697C387.349 80.4675 384.07 83.8316 379.871 86.1893C375.672 88.5182 370.783 89.6971 365.433 89.6971C360.055 89.6971 355.021 88.5183 350.822 86.1031C346.623 83.6592 343.344 80.3813 340.986 76.0972C338.627 71.8994 337.477 67.1267 337.477 61.8363C337.477 56.5459 338.627 51.6866 340.986 47.4888C343.344 43.291 346.709 40.0133 350.909 37.5694C355.108 35.1542 359.968 33.9754 365.433 33.9754C370.869 33.9754 375.672 35.1541 379.871 37.4831C384.07 39.8407 387.349 43.2048 389.679 47.4026C392.037 51.6004 393.217 56.4596 393.217 61.8363ZM380.533 61.8363C380.533 58.6448 379.958 55.712 378.692 53.1818C377.427 50.6804 375.672 48.6676 373.314 47.3163C371.041 45.9649 368.367 45.3038 365.433 45.3038C362.471 45.3038 359.796 45.9649 357.437 47.3163C355.165 48.6676 353.324 50.594 352.059 53.0955C350.822 55.6257 350.132 58.5585 350.132 61.8363C350.132 65.114 350.822 68.0466 352.059 70.5481C353.324 73.0783 355.165 75.0047 357.437 76.3561C359.709 77.7074 362.384 78.3688 365.433 78.3688C368.453 78.3688 370.955 77.7074 373.314 76.3561C375.586 75.0047 377.427 73.0783 378.692 70.5481C379.958 68.0466 380.533 65.114 380.533 61.8363ZM453.587 14.1651V88.5182H440.903V82.3078C439.206 84.5792 437.049 86.3331 434.259 87.6844C431.584 89.0358 428.306 89.6971 424.538 89.6971C419.648 89.6971 415.305 88.5182 411.509 86.2468C407.741 84.0041 404.808 80.7264 402.708 76.5286C400.608 72.3308 399.602 67.3853 399.602 61.7499C399.602 56.1145 400.608 51.3416 402.622 47.1438C404.635 42.9459 407.482 39.6682 411.164 37.3106C414.874 34.9816 419.159 33.8029 424.106 33.8029C427.96 33.8029 431.239 34.3778 434.029 35.6429C436.79 36.908 439.062 38.5757 440.903 40.7609V13.9062H453.587V14.1651ZM441.335 61.8363C441.335 58.6448 440.731 55.712 439.551 53.1818C438.372 50.6804 436.704 48.6676 434.518 47.3163C432.332 45.9649 429.83 45.3038 426.867 45.3038C423.761 45.3038 421.173 45.9649 418.987 47.3163C416.801 48.6676 415.133 50.6804 413.954 53.1818C412.774 55.712 412.199 58.6448 412.199 61.8363C412.199 65.0277 412.774 67.9603 413.954 70.4905C415.133 72.9919 416.801 75.0047 419.073 76.3561C421.345 77.7074 423.934 78.3688 426.954 78.3688C429.974 78.3688 432.332 77.7074 434.518 76.3561C436.704 75.0047 438.372 72.9919 439.638 70.4905C440.817 67.9603 441.392 65.0277 441.392 61.8363H441.335ZM514.964 35.1541V88.6045H502.28V82.5665C500.526 84.8379 498.34 86.5918 495.55 87.8569C492.875 89.122 489.596 89.7833 485.829 89.7833C480.939 89.7833 476.567 88.6044 472.8 86.333C469.032 84.0616 466.098 80.8126 464.085 76.6147C461.985 72.4169 460.979 67.4429 460.979 61.8363C460.979 56.2008 461.985 51.4279 463.998 47.2301C466.012 43.0323 468.859 39.7546 472.541 37.3969C476.251 35.068 480.537 33.889 485.483 33.889C489.424 33.889 492.789 34.5504 495.636 35.9017C498.483 37.2531 500.669 39.007 502.28 41.1922V34.9816H514.964V35.1541ZM502.683 61.8363C502.683 58.6448 502.108 55.712 500.928 53.1818C499.749 50.6804 498.081 48.6676 495.895 47.3163C493.709 45.9649 491.178 45.3038 488.244 45.3038C485.138 45.3038 482.55 45.9649 480.364 47.3163C478.178 48.6676 476.51 50.6804 475.331 53.1818C474.151 55.712 473.547 58.6448 473.547 61.8363C473.547 65.0277 474.151 67.9603 475.331 70.4905C476.51 72.9919 478.178 75.0047 480.45 76.3561C482.722 77.7074 485.311 78.3688 488.331 78.3688C491.351 78.3688 493.709 77.7074 495.895 76.3561C498.081 75.0047 499.749 72.9919 501.014 70.4905C502.194 67.9603 502.769 65.0277 502.769 61.8363H502.683ZM525.519 14.1651V88.5182H538.203V14.1651H525.519Z" fill="#09AF58"/>
</g>
</g>
<defs>
<linearGradient id="paint0_linear_3095_10022" x1="14.1186" y1="86.6692" x2="61.9596" y2="4.50933" gradientUnits="userSpaceOnUse">
<stop stop-color="#80EE64"/>
<stop offset="0.09" stop-color="#7DEC63"/>
<stop offset="0.18" stop-color="#7BEB63"/>
<stop offset="0.27" stop-color="#75E862"/>
<stop offset="0.36" stop-color="#6FE562"/>
<stop offset="0.46" stop-color="#64DF61"/>
<stop offset="0.55" stop-color="#5ADA60"/>
<stop offset="0.64" stop-color="#4BD25F"/>
<stop offset="0.74" stop-color="#3DCA5D"/>
<stop offset="0.83" stop-color="#2BC15B"/>
<stop offset="0.93" stop-color="#18B759"/>
<stop offset="0.96" stop-color="#11B358"/>
<stop offset="1" stop-color="#09AF58"/>
</linearGradient>
<linearGradient id="paint1_linear_3095_10022" x1="176.148" y1="74.0972" x2="130.731" y2="-7.37494" gradientUnits="userSpaceOnUse">
<stop stop-color="#BFF9B4"/>
<stop offset="0.5" stop-color="#9FF48C"/>
<stop offset="1" stop-color="#80EE64"/>
</linearGradient>
<linearGradient id="paint2_linear_3095_10022" x1="111.198" y1="86.6692" x2="159.039" y2="4.50933" gradientUnits="userSpaceOnUse">
<stop stop-color="#80EE64"/>
<stop offset="0.09" stop-color="#7DEC63"/>
<stop offset="0.18" stop-color="#7BEB63"/>
<stop offset="0.27" stop-color="#75E862"/>
<stop offset="0.36" stop-color="#6FE562"/>
<stop offset="0.46" stop-color="#64DF61"/>
<stop offset="0.55" stop-color="#5ADA60"/>
<stop offset="0.64" stop-color="#4BD25F"/>
<stop offset="0.74" stop-color="#3DCA5D"/>
<stop offset="0.83" stop-color="#2BC15B"/>
<stop offset="0.93" stop-color="#18B759"/>
<stop offset="0.96" stop-color="#11B358"/>
<stop offset="1" stop-color="#09AF58"/>
</linearGradient>
<linearGradient id="paint3_linear_3095_10022" x1="273.227" y1="74.0972" x2="227.81" y2="-7.37494" gradientUnits="userSpaceOnUse">
<stop stop-color="#BFF9B4"/>
<stop offset="0.5" stop-color="#9FF48C"/>
<stop offset="1" stop-color="#80EE64"/>
</linearGradient>
<clipPath id="clip0_3095_10022">
<rect width="539" height="102" fill="white"/>
</clipPath>
</defs>
</svg>
