<svg width="153" height="38" viewBox="0 0 153 38" fill="none" xmlns="http://www.w3.org/2000/svg">
<path d="M14.0639 2.70095C12.2825 2.67239 10.5141 2.99675 8.86952 3.65372C7.22498 4.31069 5.73959 5.28611 4.5064 6.51893C2.04218 8.94609 0.66333 12.1995 0.66333 15.5866C0.66333 18.9738 2.04218 22.2272 4.5064 24.6543C5.74843 25.8501 7.22397 26.7997 8.84874 27.4487C10.4735 28.0978 12.2158 28.4338 13.976 28.4373C15.7362 28.4408 17.4799 28.1119 19.1075 27.4694C20.7352 26.8269 22.2148 25.8833 23.4621 24.6925C24.7094 23.5017 25.6998 22.0871 26.3768 20.5293C27.0538 18.9716 27.4042 17.3012 27.4078 15.6136C27.4115 13.9261 27.0685 12.2543 26.3984 10.6938C25.7282 9.13337 24.7439 7.71474 23.5019 6.51893C22.2873 5.29438 20.8221 4.32327 19.1982 3.66634C17.5743 3.00939 15.8263 2.68075 14.0639 2.70095ZM14.0639 25.0361C12.1085 25.0246 10.2 24.4613 8.57639 23.4165C6.95281 22.3717 5.68611 20.8917 4.93433 19.161C4.18255 17.4304 3.97899 15.5258 4.34906 13.685C4.71912 11.8441 5.64642 10.1485 7.01524 8.80972C7.92086 7.89245 9.01448 7.16459 10.2274 6.67182C11.4405 6.17905 12.7466 5.93202 14.0639 5.94623C15.3778 5.954 16.677 6.21102 17.8868 6.70248C19.0966 7.19393 20.1929 7.91012 21.1125 8.80972C22.4814 10.1485 23.4087 11.8441 23.7787 13.685C24.1487 15.5258 23.9452 17.4304 23.1934 19.161C22.4417 20.8917 21.175 22.3717 19.5514 23.4165C17.9278 24.4613 16.0192 25.0246 14.0639 25.0361Z" fill="black"/>
<path d="M40.2276 9.68844C38.8832 9.66832 37.555 9.97244 36.365 10.5729C35.1752 11.1732 34.1617 12.0507 33.4179 13.1247V10.1084H30.1125V34.9253H33.4577V25.0367C34.2114 26.0932 35.2301 26.9511 36.4199 27.5315C37.6099 28.1119 38.933 28.3963 40.2674 28.3583C41.5087 28.3646 42.7391 28.135 43.8874 27.6829C45.0357 27.2307 46.0792 26.565 46.9577 25.724C48.6974 23.8953 49.6753 21.5174 49.7054 19.0425C49.6982 16.5634 48.7172 14.1778 46.9577 12.361C46.0738 11.5137 45.0247 10.8416 43.8699 10.383C42.7151 9.92444 41.4774 9.68842 40.2276 9.68844ZM39.8692 12.781C40.7292 12.7716 41.5824 12.929 42.3774 13.2438C43.1724 13.5585 43.8928 14.0241 44.4953 14.6125C45.098 15.2009 45.5702 15.9001 45.8839 16.6679C46.1975 17.4357 46.346 18.2564 46.3205 19.0807C46.3205 20.7261 45.6387 22.3042 44.4251 23.4677C43.2116 24.6312 41.5655 25.2849 39.8493 25.2849C38.133 25.2849 36.487 24.6312 35.2734 23.4677C34.0599 22.3042 33.3781 20.7261 33.3781 19.0807C33.3523 18.2532 33.502 17.4293 33.8181 16.6588C34.1341 15.8884 34.61 15.1875 35.2169 14.5985C35.8238 14.0096 36.549 13.5448 37.3487 13.2324C38.1483 12.92 39.0058 12.7664 39.8692 12.781Z" fill="black"/>
<path d="M57.4308 5.21875L54.0857 6.17324V10.1058H50.5017V13.1983H54.0857V22.7433C54.0857 24.6523 54.5636 26.0649 55.6388 26.9812C56.861 27.7981 58.3324 28.2011 59.8202 28.1266C60.6211 28.1016 61.4194 28.0251 62.2097 27.8975H62.3291V25.034H61.8512C59.9397 25.1486 58.6256 25.2631 58.0282 24.5759C57.5503 24.2323 57.4308 23.6214 57.4308 22.7433V13.1983H62.3291V10.1058H57.4308V5.21875Z" fill="black"/>
<path d="M69.3777 10.1445H65.9131V28.0127H69.3777V10.1445Z" fill="black"/>
<path d="M67.7052 2.8125C67.1032 2.8125 66.5258 3.04178 66.1002 3.44991C65.6744 3.85803 65.4353 4.41157 65.4353 4.98874C65.4377 5.26861 65.4989 5.54514 65.6154 5.80179C65.7317 6.05844 65.901 6.28992 66.1129 6.48241C66.3248 6.67489 66.5751 6.82441 66.8487 6.92202C67.1223 7.01962 67.4136 7.06331 67.7052 7.05046C67.988 7.05172 68.2682 6.99925 68.5297 6.89609C68.7912 6.79292 69.0288 6.64111 69.2287 6.44941C69.4287 6.25771 69.587 6.02993 69.6946 5.77922C69.8023 5.52851 69.857 5.25984 69.8557 4.98874C69.8614 4.4295 69.6403 3.88998 69.2392 3.48398C68.838 3.07797 68.288 2.83722 67.7052 2.8125Z" fill="black"/>
<path d="M81.2053 24.462L75.4708 10.1445H71.8867L79.2938 27.8981H83.1167L90.5238 10.2591V10.1445H86.9398L81.2053 24.462Z" fill="black"/>
<path d="M100.559 9.68744C99.266 9.65129 97.9792 9.87011 96.7782 10.3303C95.5763 10.7905 94.4867 11.4823 93.5758 12.3628C92.6649 13.2434 91.9521 14.2939 91.4816 15.4493C91.012 16.6046 90.7944 17.8403 90.8422 19.0797C90.8183 20.3121 91.0482 21.5369 91.5196 22.6836C91.9919 23.8303 92.6949 24.8762 93.59 25.7611C94.5433 26.6332 95.6683 27.3152 96.8985 27.7674C98.1287 28.2195 99.4411 28.4331 100.758 28.3955C102.358 28.457 103.947 28.1201 105.371 27.4175C106.795 26.7149 108.005 25.6707 108.882 24.3867L106.134 22.8976V22.7831L106.015 22.8976C105.443 23.7083 104.662 24.3632 103.748 24.7981C102.834 25.233 101.817 25.4334 100.798 25.3793C99.2908 25.4591 97.8023 25.0232 96.5995 24.1491C95.3959 23.2751 94.5548 22.0198 94.2276 20.6069H109.639V20.4923C109.738 20.0407 109.778 19.5789 109.758 19.1178C109.826 16.7138 108.927 14.3767 107.249 12.5891C106.419 11.6711 105.39 10.9365 104.235 10.4356C103.081 9.93473 101.826 9.67949 100.559 9.68744ZM100.559 12.78C102.005 12.7346 103.415 13.2184 104.502 14.1331C105.589 15.0478 106.272 16.325 106.413 17.7052H94.2276C94.446 16.2727 95.219 14.9714 96.3917 14.0593C97.5644 13.147 99.052 12.6905 100.559 12.78Z" fill="black"/>
<path d="M121.824 9.91698C120.674 9.83667 119.524 10.0882 118.524 10.6393C117.523 11.1905 116.717 12.0159 116.209 13.0096V10.1461H112.865V27.8996H116.209V18.5074C116.16 17.7815 116.261 17.0532 116.506 16.3649C116.752 15.6767 117.139 15.0423 117.643 14.4985C118.214 14.0267 118.879 13.6715 119.598 13.4549C120.317 13.2383 121.075 13.1647 121.824 13.2386H121.944V9.91698H121.824Z" fill="black"/>
<path d="M152.169 26.8682L140.621 3.15854C140.579 3.01221 140.483 2.88529 140.351 2.80112C140.22 2.71694 140.061 2.68117 139.904 2.70038H137.754C137.596 2.68117 137.437 2.71694 137.306 2.80112C137.175 2.88529 137.079 3.01221 137.037 3.15854L127.001 26.8682C126.947 26.981 126.924 27.1054 126.933 27.2295C126.943 27.3535 126.986 27.4731 127.058 27.5766C127.13 27.6802 127.229 27.7642 127.344 27.8206C127.46 27.8771 127.589 27.9041 127.719 27.899H151.493C152.05 27.899 152.567 27.2882 152.169 26.8682ZM137.953 13.1235L142.93 23.2029C142.985 23.3228 143.009 23.4532 143 23.5836C142.991 23.7139 142.95 23.8404 142.88 23.9524C142.809 24.0644 142.713 24.1588 142.597 24.2277C142.481 24.2965 142.35 24.3379 142.214 24.3483H133.054C132.915 24.3394 132.779 24.3005 132.657 24.2346C132.535 24.1688 132.431 24.0775 132.35 23.9676C132.27 23.8577 132.217 23.732 132.194 23.5997C132.171 23.4673 132.18 23.3318 132.218 23.2029L136.519 13.1235C136.585 12.9944 136.686 12.8855 136.813 12.8093C136.939 12.7331 137.086 12.6927 137.236 12.6927C137.386 12.6927 137.532 12.7331 137.659 12.8093C137.786 12.8855 137.887 12.9944 137.953 13.1235Z" fill="#FF3300"/>
</svg>
