<svg width="152" height="33" viewBox="0 0 152 33" fill="none" xmlns="http://www.w3.org/2000/svg">
<path d="M13.4006 0.00564201C11.6192 -0.0229265 9.85081 0.301433 8.20619 0.958406C6.56165 1.61538 5.07626 2.5908 3.84307 3.82362C1.37885 6.25078 0 9.50418 0 12.8913C0 16.2785 1.37885 19.5319 3.84307 21.959C5.0851 23.1548 6.56064 24.1044 8.18541 24.7534C9.81022 25.4025 11.5525 25.7385 13.3127 25.742C15.0729 25.7455 16.8166 25.4166 18.4442 24.7741C20.0718 24.1316 21.5515 23.188 22.7988 21.9972C24.046 20.8064 25.0365 19.3918 25.7135 17.834C26.3905 16.2762 26.7409 14.6059 26.7445 12.9183C26.7482 11.2308 26.4051 9.55901 25.735 7.99853C25.0648 6.43806 24.0806 5.01942 22.8386 3.82362C21.6239 2.59907 20.1588 1.62796 18.5348 0.971026C16.9109 0.314082 15.163 -0.0145646 13.4006 0.00564201ZM13.4006 22.3408C11.4452 22.3293 9.53668 21.766 7.91306 20.7212C6.28948 19.6764 5.02278 18.1963 4.271 16.4657C3.51922 14.7351 3.31566 12.8305 3.68573 10.9897C4.05579 9.14883 4.98309 7.45319 6.35191 6.11441C7.25753 5.19714 8.35115 4.46928 9.56409 3.97651C10.7771 3.48374 12.0833 3.23671 13.4006 3.25092C14.7144 3.25869 16.0137 3.51571 17.2235 4.00717C18.4332 4.49862 19.5295 5.2148 20.4492 6.11441C21.8181 7.45319 22.7453 9.14883 23.1154 10.9897C23.4854 12.8305 23.2819 14.7351 22.5301 16.4657C21.7784 18.1963 20.5116 19.6764 18.8881 20.7212C17.2645 21.766 15.3559 22.3293 13.4006 22.3408Z" fill="black"/>
<path d="M39.5643 6.99215C38.2198 6.97203 36.8916 7.27615 35.7017 7.87657C34.5118 8.47696 33.4984 9.35445 32.7545 10.4284V7.41213H29.4492V32.229H32.7943V22.3404C33.5481 23.3969 34.5668 24.2548 35.7566 24.8352C36.9466 25.4156 38.2696 25.7 39.6041 25.662C40.8454 25.6683 42.0758 25.4387 43.2241 24.9866C44.3724 24.5344 45.4159 23.8687 46.2943 23.0277C48.034 21.199 49.012 18.8211 49.0421 16.3462C49.0349 13.8671 48.0538 11.4815 46.2943 9.6647C45.4105 8.81745 44.3613 8.14527 43.2066 7.68671C42.0518 7.22815 40.8141 6.99213 39.5643 6.99215ZM39.2058 10.0847C40.0659 10.0753 40.9191 10.2327 41.7141 10.5475C42.509 10.8623 43.2295 11.3278 43.832 11.9162C44.4346 12.5047 44.9069 13.2038 45.2206 13.9716C45.5342 14.7394 45.6827 15.5601 45.6571 16.3844C45.6571 18.0298 44.9754 19.6079 43.7618 20.7714C42.5482 21.9349 40.9022 22.5886 39.1859 22.5886C37.4697 22.5886 35.8237 21.9349 34.6101 20.7714C33.3965 19.6079 32.7147 18.0298 32.7147 16.3844C32.689 15.5569 32.8387 14.733 33.1547 13.9625C33.4708 13.1921 33.9467 12.4912 34.5536 11.9022C35.1605 11.3133 35.8857 10.8485 36.6853 10.5361C37.485 10.2237 38.3425 10.0701 39.2058 10.0847Z" fill="black"/>
<path d="M56.7675 2.52393L53.4224 3.47842V7.41094H49.8384V10.5035H53.4224V20.0485C53.4224 21.9574 53.9003 23.3701 54.9755 24.2864C56.1977 25.1033 57.6691 25.5063 59.1569 25.4318C59.9578 25.4067 60.756 25.3302 61.5463 25.2027H61.6657V22.3392H61.1879C59.2764 22.4537 57.9622 22.5683 57.3649 21.8811C56.887 21.5374 56.7675 20.9266 56.7675 20.0485V10.5035H61.6657V7.41094H56.7675V2.52393Z" fill="black"/>
<path d="M68.7146 7.44922H65.25V25.3174H68.7146V7.44922Z" fill="black"/>
<path d="M67.0419 0.118652C66.4399 0.118652 65.8625 0.347932 65.4369 0.756059C65.0111 1.16418 64.772 1.71772 64.772 2.29489C64.7744 2.57476 64.8356 2.85129 64.952 3.10794C65.0684 3.36459 65.2377 3.59607 65.4496 3.78856C65.6615 3.98104 65.9118 4.13056 66.1854 4.22817C66.459 4.32577 66.7503 4.36946 67.0419 4.35661C67.3247 4.35787 67.6049 4.3054 67.8664 4.20224C68.1279 4.09907 68.3654 3.94727 68.5654 3.75557C68.7654 3.56387 68.9237 3.33608 69.0313 3.08537C69.1389 2.83467 69.1937 2.566 69.1923 2.29489C69.1981 1.73566 68.977 1.19613 68.5758 0.790135C68.1747 0.384126 67.6247 0.143372 67.0419 0.118652Z" fill="black"/>
<path d="M80.5422 21.7666L74.8077 7.44922H71.2236L78.6307 25.2028H82.4537L89.8607 7.56376V7.44922H86.2767L80.5422 21.7666Z" fill="black"/>
<path d="M99.8956 6.99115C98.6027 6.955 97.3159 7.17382 96.1149 7.63403C94.913 8.09423 93.8234 8.78603 92.9125 9.66653C92.0016 10.5471 91.2887 11.5976 90.8182 12.753C90.3486 13.9083 90.1311 15.144 90.1788 16.3834C90.1549 17.6158 90.3849 18.8406 90.8563 19.9873C91.3285 21.134 92.0316 22.1799 92.9266 23.0648C93.88 23.9369 95.005 24.6189 96.2351 25.0711C97.4653 25.5233 98.7778 25.7368 100.095 25.6993C101.695 25.7607 103.284 25.4238 104.708 24.7212C106.131 24.0186 107.341 22.9744 108.219 21.6904L105.471 20.2013V20.0868L105.351 20.2013C104.78 21.0121 103.998 21.6669 103.085 22.1018C102.17 22.5368 101.154 22.7371 100.134 22.683C98.6274 22.7628 97.139 22.3269 95.9362 21.4528C94.7326 20.5788 93.8915 19.3235 93.5643 17.9106H108.976V17.7961C109.075 17.3444 109.115 16.8826 109.095 16.4215C109.162 14.0175 108.264 11.6804 106.586 9.89285C105.756 8.97485 104.727 8.24021 103.572 7.73932C102.418 7.23844 101.163 6.9832 99.8956 6.99115ZM99.8956 10.0837C101.342 10.0383 102.751 10.5221 103.838 11.4368C104.925 12.3515 105.609 13.6287 105.749 15.0089H93.5643C93.7827 13.5764 94.5557 12.2751 95.7284 11.363C96.9011 10.4507 98.3886 9.9942 99.8956 10.0837Z" fill="black"/>
<path d="M121.161 7.22069C120.01 7.14038 118.861 7.39193 117.86 7.94303C116.859 8.49416 116.054 9.31957 115.546 10.3133V7.44976H112.201V25.2034H115.546V15.8111C115.496 15.0852 115.597 14.3569 115.843 13.6687C116.089 12.9804 116.475 12.346 116.98 11.8022C117.551 11.3304 118.216 10.9752 118.935 10.7586C119.654 10.542 120.412 10.4684 121.161 10.5423H121.28V7.22069H121.161Z" fill="black"/>
<path d="M151.506 24.1729L139.958 0.463232C139.916 0.316897 139.82 0.189976 139.688 0.105803C139.557 0.0216305 139.398 -0.0141388 139.241 0.00506846H137.091C136.933 -0.0141388 136.774 0.0216305 136.643 0.105803C136.512 0.189976 136.416 0.316897 136.374 0.463232L126.338 24.1729C126.284 24.2856 126.261 24.4101 126.27 24.5342C126.28 24.6582 126.322 24.7778 126.395 24.8813C126.467 24.9848 126.566 25.0689 126.681 25.1253C126.796 25.1818 126.926 25.2088 127.056 25.2037H150.83C151.387 25.2037 151.904 24.5929 151.506 24.1729ZM137.29 10.4282L142.267 20.5076C142.322 20.6274 142.346 20.7579 142.337 20.8882C142.328 21.0186 142.287 21.1451 142.217 21.2571C142.146 21.3691 142.05 21.4635 141.934 21.5323C141.818 21.6012 141.687 21.6425 141.551 21.653H132.391C132.252 21.644 132.116 21.6052 131.994 21.5393C131.872 21.4734 131.768 21.3822 131.687 21.2723C131.607 21.1624 131.554 21.0366 131.531 20.9043C131.508 20.7719 131.516 20.6365 131.555 20.5076L135.856 10.4282C135.922 10.2991 136.023 10.1902 136.15 10.1139C136.276 10.0378 136.423 9.99739 136.573 9.99739C136.723 9.99739 136.869 10.0378 136.996 10.1139C137.123 10.1902 137.224 10.2991 137.29 10.4282Z" fill="#FF3300"/>
</svg>
