<svg width="166" height="64" viewBox="0 0 166 64" fill="none" xmlns="http://www.w3.org/2000/svg">
<g clip-path="url(#clip0_3095_9968)">
<path d="M31.7201 57.0011C37.4882 57.0591 43.2555 56.8254 49.0001 56.3011C54.0601 55.8011 55.7101 53.5311 56.1601 49.1411C56.6917 43.3804 56.9187 37.5957 56.8401 31.8111C56.9027 26.03 56.6757 20.2495 56.1601 14.4911C55.7201 10.0711 54.1601 7.82111 49.0001 7.32111C41.2101 6.57111 33.3401 6.66111 31.7201 6.66111C30.1001 6.66111 22.2301 6.55111 14.4401 7.32111C9.17007 7.85111 7.70007 10.3211 7.28007 14.4911C6.76016 20.2492 6.5332 26.03 6.60007 31.8111C6.51602 37.5958 6.74302 43.3808 7.28007 49.1411C7.75007 53.6111 9.47007 55.8111 14.4401 56.3011C22.2301 57.0611 30.1401 56.9711 31.7201 56.9711V63.5311C24.8563 63.615 17.9929 63.3279 11.1601 62.6711C8.48006 62.3046 6.00248 61.0435 4.12921 59.0921C2.25595 57.1408 1.0969 54.6138 0.840073 51.9211C0.171159 45.2397 -0.109313 38.5251 7.34571e-05 31.8111C-0.0924421 25.0974 0.18799 18.3837 0.840073 11.7011C1.14433 9.03101 2.32028 6.53566 4.18589 4.60135C6.0515 2.66705 8.50271 1.40168 11.1601 1.00111C17.9879 0.265761 24.8531 -0.0681462 31.7201 0.0011117C38.5867 -0.0510788 45.4509 0.282781 52.2801 1.00111C58.1201 1.68111 62.1201 6.93111 62.6001 11.7511C63.2342 18.4349 63.5079 25.1479 63.4201 31.8611C63.5388 38.5747 63.265 45.2895 62.6001 51.9711C62.3447 54.6593 61.185 57.1814 59.3104 59.125C57.4358 61.0686 54.9573 62.3188 52.2801 62.6711C45.4466 63.3184 38.5838 63.6055 31.7201 63.5311V57.0011Z" fill="black"/>
<path d="M37.4001 11.142L37.8001 19.912H50.7101C51.0296 19.9308 51.3499 19.9004 51.6601 19.822C52.2601 33.472 51.7801 37.742 51.5401 46.512L45.6201 46.862C45.8601 43.072 45.9201 39.662 45.9201 37.582L43.7601 37.642C43.6434 37.6294 43.5255 37.6503 43.4201 37.702L43.1301 29.412H38.1301L38.8701 53.002C34.1065 53.2422 29.3338 53.2422 24.5701 53.002L25.3901 29.392H20.3101L20.0001 37.702C19.8945 37.6513 19.7768 37.6305 19.6601 37.642L17.4901 37.582C17.4901 39.662 17.5501 43.072 17.7901 46.862L11.8701 46.512C11.6301 37.742 11.1601 33.512 11.7501 19.822C12.0765 19.9057 12.4141 19.936 12.7501 19.912H25.7501L25.9101 15.052L20.9101 15.252C21.0067 15.0227 21.0674 14.7798 21.0901 14.532L21.2901 11.192C21.2928 10.9385 21.2452 10.687 21.1501 10.452C26.9201 10.212 30.9601 10.072 37.5501 10.312C37.4701 10.772 37.4001 11.002 37.4001 11.142Z" fill="black"/>
<path d="M125.52 13.7894C125.52 12.6194 125.52 11.4194 125.52 10.4194C125.52 8.09938 124.29 6.60938 121.66 6.60938C118.84 6.60938 117.66 7.96937 117.74 10.3994H120.2C120.26 9.29937 120.1 8.29938 121.57 8.29938C123.04 8.29938 122.98 9.29937 123.05 10.3794C123.101 10.7409 123.101 11.1078 123.05 11.4694C121.931 11.5061 120.82 11.6739 119.74 11.9694C118.5 12.3894 117.49 13.2594 117.49 15.4794C117.49 17.3894 117.87 19.2394 120.36 19.3994C120.864 19.4186 121.366 19.3191 121.824 19.1089C122.283 18.8987 122.686 18.5838 123 18.1894C123 18.1894 123.13 18.1894 123.26 19.1894H125.64C125.64 19.1894 125.55 16.8794 125.55 14.4794H123.1C123.1 14.7294 123.1 14.9794 123.1 15.2094C123 16.1294 122.71 17.4094 121.24 17.4094C119.77 17.4094 119.87 15.8494 120.05 14.6694C120.23 13.4894 121.42 13.2394 123.13 13.1594C123.13 13.1594 123.13 13.4094 123.13 13.7694" fill="black"/>
<path d="M125.52 13.7878C125.52 14.0178 125.52 14.2378 125.52 14.4678H123.07V13.7578" fill="black"/>
<path d="M116.44 6.80078H113.96V19.1908H116.45L116.44 6.80078Z" fill="black"/>
<path d="M93.3703 13.7894C93.3703 12.6194 93.3703 11.4194 93.3703 10.4194C93.3703 8.09938 92.1403 6.60938 89.5003 6.60938C86.6903 6.60938 85.5003 7.96937 85.5903 10.3994H88.0003C88.0003 9.29937 87.9003 8.29938 89.3703 8.29938C90.8403 8.29938 90.7803 9.29937 90.8503 10.3794C90.901 10.7409 90.901 11.1078 90.8503 11.4694C89.7312 11.5061 88.6203 11.6739 87.5403 11.9694C86.3003 12.3894 85.2803 13.2594 85.2803 15.4794C85.2803 17.3894 85.6703 19.2394 88.1503 19.3994C88.6541 19.417 89.1551 19.3168 89.6134 19.1067C90.0717 18.8967 90.4747 18.5826 90.7903 18.1894C90.7903 18.1894 90.9203 18.1894 91.0503 19.1894H93.4303C93.4303 19.1894 93.3303 16.8794 93.3403 14.4794H90.8803C90.8803 14.7294 90.8803 14.9794 90.8803 15.2094C90.7803 16.1294 90.4903 17.4094 89.0203 17.4094C87.5503 17.4094 87.6503 15.8494 87.8203 14.6694C87.9903 13.4894 89.1903 13.2394 90.9003 13.1594C90.9003 13.1594 90.9003 13.4094 90.9003 13.7694" fill="black"/>
<path d="M93.3702 13.7878V14.4678H90.9102C90.9102 14.2178 90.9102 13.9778 90.9102 13.7578" fill="black"/>
<path d="M97.1101 6.79994H94.6201C94.7527 7.7942 94.8095 8.79708 94.7901 9.79994V19.2399H97.3101V9.99994C97.3101 9.14994 97.6401 8.28994 98.8001 8.28994C99.0121 8.28605 99.2224 8.32712 99.4173 8.41045C99.6122 8.49378 99.7873 8.61747 99.9309 8.77338C100.075 8.92928 100.183 9.11386 100.251 9.31494C100.318 9.51602 100.341 9.72903 100.32 9.93994V19.2099H102.86V10.2099C102.86 7.61994 101.65 6.59994 99.7101 6.59994C99.2438 6.57071 98.7769 6.64524 98.3428 6.81815C97.9088 6.99107 97.5185 7.25807 97.2001 7.59994C97.1321 7.33893 97.1018 7.06953 97.1101 6.79994Z" fill="black"/>
<path d="M109.88 12.6305V10.0005C109.907 9.77233 109.883 9.54102 109.811 9.32307C109.738 9.10512 109.618 8.90592 109.46 8.73969C109.301 8.57346 109.108 8.44431 108.893 8.36147C108.679 8.27863 108.449 8.24414 108.22 8.26047C106.78 8.26047 106.59 9.26047 106.59 12.7105C106.59 15.3705 106.45 17.5605 108.21 17.5605C109.97 17.5605 109.88 15.8005 109.88 14.4005V12.6305H112.38V14.4505C112.38 16.8805 112.5 19.1605 112.5 19.1605H110.09C110.082 18.7872 110.021 18.4169 109.91 18.0605C109.621 18.4083 109.261 18.69 108.854 18.8867C108.447 19.0833 108.002 19.1904 107.55 19.2005C104.36 19.2005 104.29 16.4505 104.21 15.4105C104.11 13.4384 104.11 11.4625 104.21 9.49047C104.263 8.68119 104.62 7.92199 105.21 7.36545C105.8 6.80892 106.579 6.49631 107.39 6.49047C108.302 6.4889 109.188 6.79941 109.9 7.37047V2.23047H112.36C112.36 3.60047 112.36 9.41047 112.36 12.6605L109.88 12.6305Z" fill="black"/>
<path d="M84.4802 6.80969C84.4802 5.26969 84.4802 1.67969 79.6802 1.67969C74.8802 1.67969 74.8502 5.25969 74.8502 6.05969C74.8502 7.16969 74.7202 9.05969 77.7902 10.7897L80.2502 12.1697C80.8129 12.3907 81.2921 12.7827 81.6204 13.2903C81.9487 13.798 82.1095 14.3958 82.0802 14.9997C82.1129 15.312 82.0788 15.6278 81.9799 15.9259C81.8811 16.224 81.7198 16.4976 81.5069 16.7285C81.294 16.9594 81.0343 17.1422 80.7452 17.2648C80.4561 17.3875 80.1441 17.4471 79.8302 17.4397C79.5214 17.4887 79.2057 17.4704 78.9047 17.386C78.6037 17.3017 78.3244 17.1533 78.0861 16.951C77.8477 16.7488 77.6559 16.4974 77.5237 16.2141C77.3915 15.9308 77.3221 15.6223 77.3202 15.3097C77.2503 14.7994 77.2169 14.2847 77.2202 13.7697H74.4202C74.4202 13.7697 74.3202 16.7697 75.6502 18.0697C76.1815 18.571 76.8119 18.9555 77.5008 19.1984C78.1898 19.4412 78.9219 19.537 79.6502 19.4797C80.3605 19.538 81.0753 19.4529 81.7521 19.2296C82.4289 19.0063 83.054 18.6492 83.5902 18.1797C84.0092 17.7273 84.3318 17.1943 84.5381 16.6132C84.7444 16.0321 84.8302 15.415 84.7902 14.7997C84.7902 13.2697 84.4302 11.5297 81.8602 10.0097C81.0402 9.52969 80.1602 9.08969 79.2502 8.58969C78.7349 8.37738 78.2928 8.01915 77.9784 7.55902C77.6639 7.09889 77.4908 6.5569 77.4802 5.99969C77.4495 5.70563 77.4828 5.40842 77.5778 5.12845C77.6729 4.84847 77.8273 4.59236 78.0306 4.37769C78.2339 4.16301 78.4812 3.99484 78.7555 3.88471C79.0299 3.77459 79.3249 3.72512 79.6202 3.73969C79.9107 3.70607 80.205 3.73961 80.4805 3.83771C80.756 3.93581 81.0052 4.09586 81.2091 4.30552C81.413 4.51517 81.566 4.76884 81.6563 5.04697C81.7466 5.3251 81.7719 5.62025 81.7302 5.90969C81.7302 6.10969 81.7302 6.84969 81.7302 6.84969L84.4802 6.80969Z" fill="black"/>
<path d="M116.46 2.21094H113.96V4.71094H116.46V2.21094Z" fill="black"/>
<path d="M131.59 34.8519C131.59 33.6819 131.59 32.4819 131.59 31.4819C131.59 29.1619 130.37 27.6719 127.73 27.6719C124.92 27.6719 123.73 29.0319 123.82 31.4519H126.27C126.33 30.3519 126.17 29.3619 127.64 29.3619C129.11 29.3619 129.05 30.3619 129.13 31.4419C129.181 31.8001 129.181 32.1637 129.13 32.5219C128.008 32.559 126.894 32.7268 125.81 33.0219C124.57 33.4519 123.56 34.3219 123.56 36.5319C123.56 38.4419 123.95 40.3019 126.43 40.4619C126.923 40.466 127.41 40.3583 127.855 40.147C128.3 39.9357 128.692 39.6262 129 39.2419C129 39.2419 129.13 39.2419 129.26 40.2419H131.64C131.64 40.2419 131.54 37.9319 131.55 35.5319H129.09C129.09 35.7819 129.09 36.0319 129.09 36.2619C128.99 37.1719 128.71 38.4619 127.24 38.4619C125.77 38.4619 125.87 36.9019 126.04 35.7219C126.21 34.5419 127.41 34.2919 129.12 34.2119C129.12 34.2119 129.12 34.4619 129.12 34.8219" fill="black"/>
<path d="M131.59 34.8503V35.5303H129.13C129.13 35.2803 129.13 35.0403 129.13 34.8203" fill="black"/>
<path d="M94.1301 34.8519C94.1301 33.6819 94.1301 32.4819 94.1301 31.4819C94.1301 29.1619 92.9101 27.6719 90.2701 27.6719C87.4601 27.6719 86.2701 29.0319 86.3601 31.4519H88.8101C88.8701 30.3519 88.7101 29.3619 90.1801 29.3619C91.6501 29.3619 91.5901 30.3619 91.6701 31.4419C91.7207 31.8001 91.7207 32.1637 91.6701 32.5219C90.551 32.5586 89.4401 32.7264 88.3601 33.0219C87.1101 33.4519 86.1001 34.3219 86.1001 36.5319C86.1001 38.4419 86.4901 40.3019 88.9701 40.4619C89.4746 40.4767 89.9756 40.3743 90.4337 40.1626C90.8918 39.9509 91.2945 39.6357 91.6101 39.2419C91.6101 39.2419 91.7401 39.2419 91.8701 40.2419H94.2501C94.2501 40.2419 94.1501 37.9319 94.1601 35.5319H91.7001C91.7001 35.7819 91.7001 36.0319 91.7001 36.2619C91.6001 37.1719 91.3201 38.4619 89.8501 38.4619C88.3801 38.4619 88.4801 36.9019 88.6501 35.7219C88.8201 34.5419 90.0201 34.2919 91.7301 34.2119C91.7301 34.2119 91.7301 34.4619 91.7301 34.8219" fill="black"/>
<path d="M94.1299 34.8503V35.5303H91.6699C91.6699 35.2803 91.6699 35.0403 91.6699 34.8203" fill="black"/>
<path d="M110.79 33.2421C110.79 33.6821 110.79 34.1021 110.79 34.4721C110.79 35.3221 110.79 35.8821 110.79 36.7421C110.79 37.9121 110.41 38.6921 109.14 38.7421C107.87 38.7921 107.44 37.9621 107.45 36.8021C107.45 35.1021 107.45 33.5821 107.45 31.6521C107.45 29.7221 108.38 29.5221 108.96 29.5121C109.96 29.5121 110.75 29.6721 110.77 31.5821C110.77 32.1221 110.77 32.7021 110.77 33.2621L113.27 33.2021C113.271 32.4233 113.224 31.6452 113.13 30.8721C112.73 28.5521 111.03 27.7521 108.95 27.7821C106.87 27.8121 105.42 28.6521 105.08 30.9821C104.893 33.1995 104.92 35.4298 105.16 37.6421C105.43 39.1821 106.64 40.5121 109.16 40.4821C111.68 40.4521 112.98 39.2121 113.16 37.4321C113.24 36.5821 113.3 35.5521 113.31 34.3221V33.1821L110.79 33.2421Z" fill="black"/>
<path d="M78.5299 23.2695H74.4199V40.2495H76.9599V26.6695L80.6399 40.2495H84.8099V23.2695H82.2699V36.6295L78.5299 23.2695Z" fill="black"/>
<path d="M98.45 29.6323H100.26V27.8623H98.45V24.6523L96.05 25.6523V27.8623H94.5V29.6323H96.05V37.6323C96.05 38.6323 96.05 40.2323 98.76 40.2323H100.33V38.5723H99.25C98.85 38.5723 98.45 38.4223 98.45 37.2123V29.6323Z" fill="black"/>
<path d="M103.68 27.8594H101.19V40.2494H103.69L103.68 27.8594Z" fill="black"/>
<path d="M103.69 23.2695H101.19V25.7795H103.69V23.2695Z" fill="black"/>
<path d="M116.78 27.8629H114.29C114.42 28.8406 114.477 29.8267 114.46 30.8129V40.2629H117V31.0029C117 30.1529 117.33 29.2929 118.49 29.2929C118.706 29.291 118.921 29.3356 119.118 29.4236C119.316 29.5117 119.492 29.6412 119.635 29.8033C119.778 29.9655 119.885 30.1565 119.948 30.3634C120.011 30.5704 120.029 30.7885 120 31.0029V40.2829H122.53V31.2829C122.53 28.6829 121.32 27.6729 119.38 27.6729C118.914 27.6471 118.448 27.7232 118.015 27.8959C117.581 28.0686 117.191 28.3338 116.87 28.6729C116.8 28.4088 116.77 28.1358 116.78 27.8629Z" fill="black"/>
<path d="M135.84 23.2812H133.22V40.2512H135.84V23.2812Z" fill="black"/>
<path d="M135.69 54.3314C135.69 54.7714 135.69 55.2014 135.69 55.5614C135.69 56.4214 135.69 56.9814 135.69 57.8414C135.69 59.0014 135.31 59.7914 134.04 59.8414C132.77 59.8914 132.34 59.0714 132.35 57.9014C132.35 56.2114 132.35 54.6814 132.35 52.7614C132.35 50.8414 133.27 50.6214 133.85 50.6114C134.85 50.6114 135.64 50.7714 135.66 52.6814C135.66 53.2214 135.66 53.8014 135.66 54.3614L138.16 54.3014C138.16 53.5227 138.114 52.7446 138.02 51.9714C137.62 49.6514 135.93 48.8614 133.84 48.8914C131.75 48.9214 130.31 49.7514 129.97 52.0814C129.783 54.2989 129.81 56.5291 130.05 58.7414C130.32 60.2814 131.53 61.6114 134.05 61.5814C136.57 61.5514 137.87 60.3114 138.05 58.5814C138.14 57.7314 138.19 56.7014 138.2 55.4714V54.2714L135.69 54.3314Z" fill="black"/>
<path d="M106 54.3314C106 54.7714 106 55.2014 106 55.5614C106 56.4214 106 56.9814 106 57.8414C106 59.0014 105.62 59.7914 104.35 59.8414C103.08 59.8914 102.65 59.0714 102.66 57.9014C102.66 56.2114 102.66 54.6814 102.66 52.7614C102.66 50.8414 103.58 50.6214 104.16 50.6114C105.16 50.6114 105.95 50.7714 105.97 52.6814C105.97 53.2214 105.97 53.8014 105.97 54.3614L108.47 54.3014C108.47 53.5227 108.423 52.7446 108.33 51.9714C107.93 49.6514 106.24 48.8614 104.15 48.8914C102.06 48.9214 100.62 49.7514 100.28 52.0814C100.093 54.2989 100.12 56.5291 100.36 58.7414C100.63 60.2814 101.84 61.6114 104.36 61.5814C106.88 61.5514 108.18 60.3114 108.36 58.5814C108.44 57.7314 108.5 56.7014 108.51 55.4714V54.2714L106 54.3314Z" fill="black"/>
<path d="M123 55.9395C123 54.7695 123 53.5695 123 52.5695C123 50.2495 121.77 48.7695 119.13 48.7695C116.32 48.7695 115.13 50.1195 115.22 52.5495H117.68C117.73 51.4495 117.58 50.4495 119.05 50.4495C120.52 50.4495 120.46 51.4495 120.53 52.5295C120.581 52.8911 120.581 53.258 120.53 53.6195C119.411 53.6562 118.3 53.824 117.22 54.1195C115.98 54.5395 114.96 55.4095 114.96 57.6295C114.96 59.5395 115.35 61.3895 117.83 61.5495C118.334 61.5671 118.835 61.4669 119.293 61.2569C119.751 61.0468 120.154 60.7327 120.47 60.3395C120.47 60.3395 120.6 60.3395 120.73 61.3395H123C123 61.3395 122.91 59.0195 122.91 56.6195H120.45C120.45 56.8695 120.45 57.1195 120.45 57.3395C120.35 58.2595 120.06 59.5395 118.59 59.5395C117.12 59.5395 117.22 57.9895 117.39 56.7995C117.56 55.6095 118.76 55.3695 120.47 55.2895C120.47 55.2895 120.47 55.5395 120.47 55.8995" fill="black"/>
<path d="M123 55.9384C123 56.1684 123 56.3984 123 56.6184H120.54C120.54 56.3684 120.54 56.1184 120.54 55.8984" fill="black"/>
<path d="M89.2302 55.9395C89.2302 54.7695 89.2302 53.5695 89.2302 52.5695C89.2302 50.2495 88.0002 48.7695 85.3602 48.7695C82.5502 48.7695 81.3602 50.1195 81.4502 52.5495H83.9102C83.9102 51.4495 83.8102 50.4495 85.2802 50.4495C86.7502 50.4495 86.6902 51.4495 86.7602 52.5295C86.811 52.8911 86.811 53.258 86.7602 53.6195C85.6411 53.6562 84.5302 53.824 83.4502 54.1195C82.2102 54.5395 81.2002 55.4095 81.2002 57.6295C81.2002 59.5395 81.5802 61.3895 84.0602 61.5495C84.5642 61.5679 85.0654 61.4681 85.5239 61.258C85.9823 61.0478 86.3852 60.7333 86.7002 60.3395C86.7002 60.3395 86.8302 60.3395 86.9602 61.3395H89.3402C89.3402 61.3395 89.2502 59.0195 89.2502 56.6195H86.7902C86.7902 56.8695 86.7902 57.1195 86.7902 57.3395C86.6902 58.2595 86.4002 59.5395 84.9302 59.5395C83.4602 59.5395 83.5002 57.9995 83.6702 56.8395C83.8402 55.6795 85.0402 55.4095 86.7502 55.3295C86.7502 55.3295 86.7502 55.5795 86.7502 55.9395" fill="black"/>
<path d="M89.23 55.9384V56.6184H86.77C86.77 56.3684 86.77 56.1184 86.77 55.8984" fill="black"/>
<path d="M147.44 48.9609H144.96V61.3409H147.45L147.44 48.9609Z" fill="black"/>
<path d="M74.4199 61.3494H80.5199V59.2594H77.1199V44.3594H74.4199V61.3494Z" fill="black"/>
<path d="M96.49 56.7302C96.49 56.2002 96.49 55.6302 96.49 55.0202C96.49 51.5702 96.38 50.5302 94.94 50.5302C94.7101 50.5181 94.4804 50.5552 94.266 50.639C94.0516 50.7227 93.8575 50.8512 93.6966 51.0158C93.5358 51.1805 93.4119 51.3775 93.3331 51.5938C93.2544 51.8101 93.2226 52.0406 93.24 52.2702V57.0902C93.24 57.7402 93.11 59.8302 94.96 59.8302C96.43 59.8302 96.55 58.5402 96.52 56.7302H98.95C98.95 57.1802 98.95 57.5602 98.89 57.8002C98.75 58.9502 98.61 61.5502 95.57 61.5502C95.1104 61.542 94.6578 61.4361 94.2423 61.2395C93.8268 61.043 93.4579 60.7603 93.16 60.4102C93.0504 60.733 92.9864 61.0696 92.97 61.4102H90.5C90.6599 60.4185 90.7301 59.4144 90.71 58.4102V44.4102H93.17V49.8102C93.8751 49.2305 94.7572 48.9094 95.67 48.9002C96.468 48.8937 97.238 49.1942 97.8206 49.7396C98.4032 50.285 98.7538 51.0335 98.8 51.8302C98.9 52.7702 98.96 55.1802 98.93 56.7202L96.49 56.7302Z" fill="black"/>
<path d="M114.74 48.8627C112.62 48.7727 112.36 50.5327 112.04 50.5427C112.04 50.5427 111.96 49.4727 111.87 48.9527H109.51C109.644 49.9033 109.7 50.863 109.68 51.8227V61.3527H112.21V53.1827C112.171 52.8792 112.202 52.5708 112.301 52.2812C112.399 51.9915 112.563 51.7284 112.78 51.512C112.996 51.2956 113.259 51.1318 113.549 51.0331C113.838 50.9344 114.147 50.9035 114.45 50.9427L114.74 48.8627Z" fill="black"/>
<path d="M127.4 50.7322H129.21V49.0022H127.4V45.7422L125 46.7422V49.0022H123.45V50.7722H125V58.7722C125 59.7722 125 61.3722 127.72 61.3722H129.29V59.6622H128.2C127.8 59.6622 127.4 59.5222 127.4 58.3022V50.7322Z" fill="black"/>
<path d="M144.18 48.8594C142.32 48.9294 142.07 50.5294 141.76 50.5394C141.76 50.5394 141.68 49.4694 141.59 48.9494H139.23C139.371 49.8992 139.431 50.8593 139.41 51.8194V61.3494H141.93V53.1794C141.891 52.8759 141.922 52.5675 142.02 52.2778C142.119 51.9882 142.283 51.725 142.499 51.5086C142.716 51.2923 142.979 51.1284 143.268 51.0297C143.558 50.931 143.867 50.9001 144.17 50.9394L144.18 48.8594Z" fill="black"/>
<path d="M147.44 44.3711H144.96V46.8711H147.44V44.3711Z" fill="black"/>
<path d="M152.41 54.1194H151C151 53.6694 151 53.1894 151 52.6794C151.06 50.6794 151.9 50.5794 152.58 50.5794C153.58 50.5794 154.2 50.9994 154.2 52.9094C154.2 53.1194 154.2 53.8494 154.2 54.1194H152.45V55.8294H156.74C156.782 54.5552 156.749 53.2796 156.64 52.0094C156.28 49.6794 154.71 48.8594 152.64 48.8594C150.57 48.8594 149.1 49.6794 148.73 52.0094C148.554 54.2037 148.578 56.4093 148.8 58.5994C148.943 59.4918 149.418 60.2971 150.131 60.8535C150.843 61.41 151.739 61.6764 152.64 61.5994C155.12 61.5994 156.41 60.3494 156.64 58.5994C156.64 58.1494 156.7 58.0394 156.71 57.5994H154.22C154.22 58.4594 154.22 57.7394 154.22 58.0494C154.16 59.2094 153.95 59.8894 152.68 59.8894C151.41 59.8894 151.24 58.9594 151.21 57.7794C151.21 57.1294 151.21 56.5194 151.14 55.9094H152.51L152.41 54.1194Z" fill="black"/>
<path d="M165.06 52.682C165.06 51.222 165.16 48.832 161.42 48.832C158.22 48.832 157.62 50.902 157.62 52.002C157.585 52.5081 157.681 53.0146 157.9 53.4721C158.119 53.9296 158.454 54.3224 158.87 54.612C159.57 55.262 161.08 56.282 161.76 56.772C162.07 56.9684 162.327 57.2362 162.512 57.5529C162.696 57.8696 162.802 58.226 162.82 58.592C162.825 58.7683 162.791 58.9435 162.721 59.1054C162.651 59.2673 162.547 59.4122 162.416 59.5301C162.285 59.6479 162.13 59.736 161.961 59.7881C161.793 59.8402 161.615 59.8552 161.44 59.832C160.51 59.832 159.95 59.472 159.87 58.532C159.87 58.172 159.81 57.872 159.81 57.532H157.41C157.3 58.4263 157.453 59.3332 157.85 60.142C158.56 61.232 160.14 61.572 161.52 61.572C162.558 61.6459 163.584 61.3123 164.38 60.642C164.693 60.3234 164.931 59.9391 165.076 59.517C165.221 59.0948 165.27 58.6456 165.22 58.202C165.247 57.6011 165.109 57.0042 164.822 56.4756C164.535 55.9471 164.109 55.5068 163.59 55.202C163.05 54.782 161.91 54.012 161.3 53.612C160.69 53.212 160.07 52.672 160.07 51.852C160.07 51.032 160.48 50.622 161.38 50.622C162.28 50.622 162.6 51.182 162.6 52.162C162.6 52.302 162.6 52.722 162.6 52.722L165.06 52.682Z" fill="black"/>
</g>
<defs>
<clipPath id="clip0_3095_9968">
<rect width="165.22" height="63.54" fill="white"/>
</clipPath>
</defs>
</svg>
