<svg width="141" height="114" viewBox="0 0 141 114" fill="none" xmlns="http://www.w3.org/2000/svg">
<g filter="url(#filter0_d_3235_10167)">
<path d="M137 111L2 4V1H55.5V4L137 65.5H138.5V111H137Z" fill="url(#paint0_linear_3235_10167)"/>
</g>
<g filter="url(#filter1_i_3235_10167)">
<path d="M62.5962 23.7477L55.9391 31.7052C55.1466 32.6525 54.597 33.3736 54.0709 34.1949L50.5817 31.2758C51.2972 30.613 51.8703 29.9921 52.7025 28.9974L59.3596 21.04L57.4965 19.4814C56.5018 18.6492 56.2202 18.4405 55.02 17.5974L57.5428 14.5818C58.011 15.0808 58.8398 15.8546 59.8029 16.6604L66.7183 22.4457C67.8235 23.3703 68.4814 23.8671 69.2737 24.3957L66.7509 27.4113C66.1065 26.738 65.5171 26.1913 64.3803 25.2403L62.5962 23.7477ZM71.5091 26.4537L74.9826 29.3596C74.3463 29.9276 73.8656 30.438 72.9014 31.5906L65.8216 40.0533C64.9102 41.1427 64.4531 41.7533 63.9931 42.4957L60.5196 39.5898C61.1294 39.0533 61.7158 38.4166 62.6008 37.3587L69.6806 28.8961C70.6712 27.7119 71.0227 27.2276 71.5091 26.4537ZM82.4454 40.3534L75.7883 48.3108C74.9958 49.2581 74.4462 49.9792 73.9201 50.8005L70.4309 47.8815C71.1464 47.2186 71.7195 46.5977 72.5517 45.6031L79.2088 37.6456L77.3457 36.087C76.351 35.2549 76.0694 35.0461 74.8692 34.203L77.392 31.1874C77.8602 31.6864 78.689 32.4603 79.6521 33.266L86.5675 39.0514C87.6727 39.976 88.3306 40.4727 89.1229 41.0014L86.6001 44.017C85.9557 43.3437 85.3663 42.797 84.2295 41.8459L82.4454 40.3534ZM87.5052 62.1657L82.7055 58.1503C81.6161 57.2389 80.9555 56.7131 80.3292 56.2428C80.8862 55.7694 81.4989 55.1012 82.3839 54.0433L89.358 45.707C90.2826 44.6018 90.819 43.8964 91.3583 43.0593L94.8002 45.9388C94.0029 46.6673 93.6172 47.0962 92.587 48.3277L86.0355 56.1589L89.8563 59.3553C91.1984 60.4781 91.7484 60.9114 92.5697 61.4374L90.0337 64.4688C89.5155 63.9012 88.7683 63.2224 87.5052 62.1657ZM104.575 71.6149L102.105 74.5674C101.492 73.9205 100.95 73.4134 99.5921 72.2775L94.6187 68.1168C93.4188 67.1129 92.9635 66.7589 92.2582 66.2225C92.8812 65.6702 93.4015 65.1124 94.3129 64.023L101.525 55.4025C102.344 54.4236 102.774 53.8445 103.327 52.9917C103.948 53.5648 104.377 53.9504 105.608 54.9807L110.645 59.1942C111.718 60.0924 112.282 60.5099 113.09 61.0518L110.62 64.0042C109.96 63.3177 109.418 62.8106 108.36 61.9256L104.255 58.4914L102.313 60.8123L105.723 63.6654C106.765 64.5371 107.158 64.8384 108.184 65.5361L105.741 68.457C105.064 67.7573 104.554 67.2766 103.465 66.3652L100.054 63.5122L97.8353 66.1647L101.909 69.5725C103.109 70.5763 103.83 71.1259 104.575 71.6149Z" fill="#BA7008"/>
</g>
<defs>
<filter id="filter0_d_3235_10167" x="0" y="0" width="140.5" height="114" filterUnits="userSpaceOnUse" color-interpolation-filters="sRGB">
<feFlood flood-opacity="0" result="BackgroundImageFix"/>
<feColorMatrix in="SourceAlpha" type="matrix" values="0 0 0 0 0 0 0 0 0 0 0 0 0 0 0 0 0 0 127 0" result="hardAlpha"/>
<feOffset dy="1"/>
<feGaussianBlur stdDeviation="1"/>
<feComposite in2="hardAlpha" operator="out"/>
<feColorMatrix type="matrix" values="0 0 0 0 0 0 0 0 0 0 0 0 0 0 0 0 0 0 0.25 0"/>
<feBlend mode="normal" in2="BackgroundImageFix" result="effect1_dropShadow_3235_10167"/>
<feBlend mode="normal" in="SourceGraphic" in2="effect1_dropShadow_3235_10167" result="shape"/>
</filter>
<filter id="filter1_i_3235_10167" x="46.3682" y="14.582" width="66.9111" height="59.9844" filterUnits="userSpaceOnUse" color-interpolation-filters="sRGB">
<feFlood flood-opacity="0" result="BackgroundImageFix"/>
<feBlend mode="normal" in="SourceGraphic" in2="BackgroundImageFix" result="shape"/>
<feColorMatrix in="SourceAlpha" type="matrix" values="0 0 0 0 0 0 0 0 0 0 0 0 0 0 0 0 0 0 127 0" result="hardAlpha"/>
<feOffset dy="1"/>
<feComposite in2="hardAlpha" operator="arithmetic" k2="-1" k3="1"/>
<feColorMatrix type="matrix" values="0 0 0 0 0 0 0 0 0 0 0 0 0 0 0 0 0 0 0.25 0"/>
<feBlend mode="normal" in2="shape" result="effect1_innerShadow_3235_10167"/>
</filter>
<linearGradient id="paint0_linear_3235_10167" x1="70.25" y1="1" x2="142" y2="82" gradientUnits="userSpaceOnUse">
<stop stop-color="#F7D193"/>
<stop offset="1" stop-color="#F6BF65"/>
</linearGradient>
</defs>
</svg>
